<?xml version="1.0" encoding="UTF-8" standalone="no"?>
<svg
   version="1.1"
   width="70.000008"
   height="24.999998"
   style="clip-rule:evenodd;fill-rule:evenodd;image-rendering:optimizeQuality;shape-rendering:geometricPrecision;text-rendering:geometricPrecision"
   id="svg85"
   sodipodi:docname="Bellwethersmall.svg"
   inkscape:version="1.4 (86a8ad7, 2024-10-11)"
   xmlns:inkscape="http://www.inkscape.org/namespaces/inkscape"
   xmlns:sodipodi="http://sodipodi.sourceforge.net/DTD/sodipodi-0.dtd"
   xmlns="http://www.w3.org/2000/svg"
   xmlns:svg="http://www.w3.org/2000/svg">
  <defs
     id="defs85" />
  <sodipodi:namedview
     id="namedview85"
     pagecolor="#ffffff"
     bordercolor="#000000"
     borderopacity="0.25"
     inkscape:showpageshadow="2"
     inkscape:pageopacity="0.0"
     inkscape:pagecheckerboard="0"
     inkscape:deskcolor="#d1d1d1"
     inkscape:zoom="0.77051282"
     inkscape:cx="730.03328"
     inkscape:cy="438.66889"
     inkscape:window-width="2560"
     inkscape:window-height="1349"
     inkscape:window-x="-9"
     inkscape:window-y="-9"
     inkscape:window-maximized="1"
     inkscape:current-layer="svg85" />
  <g
     id="g1"
     transform="matrix(0.0224359,0,0,0.02850627,0.01121795,0.01425314)">
    <path
       style="opacity:0.993"
       fill="#3f4041"
       d="m 229.5,120.5 c 2.336,1.504 4.169,3.504 5.5,6 6.657,13.982 13.823,27.649 21.5,41 -2.167,-1.146 -3.5,-2.979 -4,-5.5 -0.983,-0.591 -1.65,-0.257 -2,1 1.449,5.681 3.282,11.181 5.5,16.5 2.966,2.997 5.133,2.664 6.5,-1 4.197,8.743 8.197,17.743 12,27 -1,0 -2,0 -3,0 -0.741,7.944 1.592,14.778 7,20.5 2.651,6.739 4.984,13.572 7,20.5 3.487,12.769 5.82,25.769 7,39 1.73,0.526 3.064,1.526 4,3 -0.616,2.61 -0.949,5.277 -1,8 7.5,38.332 12.333,76.999 14.5,116 -0.128,36.21 -1.128,72.21 -3,108 -1.983,13.83 -3.316,27.83 -4,42 -1.596,7.522 -3.096,15.022 -4.5,22.5 1.444,1.126 2.11,2.626 2,4.5 0.616,5.16 -0.051,10.16 -2,15 0.203,2.697 0.536,5.364 1,8 1,0 2,0 3,0 -0.237,-1.291 0.096,-2.291 1,-3 -0.868,4.737 -2.034,9.404 -3.5,14 -0.333,8 -0.667,16 -1,24 -4.23,10.589 -6.397,21.589 -6.5,33 -1.879,-0.841 -3.879,-1.175 -6,-1 -0.911,5.96 -1.411,14.627 -1.5,26 -0.419,1.172 -1.085,2.172 -2,3 -0.831,5.977 -1.331,11.977 -1.5,18 -3.343,17.62 -6.343,35.454 -9,53.5 -3.655,8.142 -5.989,16.642 -7,25.5 5.046,23.345 8.713,47.011 11,71 -4.333,0 -8.667,0 -13,0 0,-0.333 0,-0.667 0,-1 1,0 2,0 3,0 -1.077,-3.026 -1.077,-6.026 0,-9 -8.123,-25.221 -14.123,-50.888 -18,-77 -1,0 -2,0 -3,0 -0.665,-6.643 -1.165,-13.309 -1.5,-20 -1,-0.667 -2,-1.333 -3,-2 -0.452,-2.649 -1.286,-5.149 -2.5,-7.5 1.073,-1.313 1.74,-2.813 2,-4.5 -0.639,-2.975 -1.139,-5.975 -1.5,-9 -3.099,-11.496 -5.433,-23.163 -7,-35 -2.597,-6.114 -4.93,-12.447 -7,-19 -0.944,-6.662 -1.777,-13.329 -2.5,-20 -3,-0.333 -4.667,-2 -5,-5 -1.459,-0.067 -2.792,0.266 -4,1 -2.239,-5.394 -3.906,-11.061 -5,-17 1.598,1.895 2.932,4.062 4,6.5 0.916,0.374 1.75,0.874 2.5,1.5 -1.414,-12.532 -3.247,-25.032 -5.5,-37.5 -2.701,-9.14 -5.201,-18.307 -7.5,-27.5 -0.573,-4.348 -1.24,-8.681 -2,-13 -3.288,-2.904 -5.288,-6.571 -6,-11 -0.333,0.333 -0.667,0.667 -1,1 -0.401,-2.021 -1.568,-3.355 -3.5,-4 -0.886,0.825 -1.219,1.825 -1,3 -0.811,-8.183 -1.644,-16.517 -2.5,-25 -5.922,-17.038 -10.422,-34.371 -13.5,-52 -0.586,-0.209 -1.086,-0.543 -1.5,-1 -0.499,-4.989 -0.666,-9.989 -0.5,-15 0.165,-3.682 -0.001,-7.348 -0.5,-11 -2.575,-5.726 -3.909,-11.726 -4,-18 -1.597,-2.792 -2.597,-5.792 -3,-9 -1,-1.333 -2,-2.667 -3,-4 -0.31,-6.085 -1.31,-12.085 -3,-18 -2.828,-4.335 -6.661,-5.668 -11.5,-4 -1.91,7.221 -2.41,14.555 -1.5,22 4.351,18.492 7.684,37.159 10,56 1.684,6.443 2.851,6.443 3.5,0 0.821,3.141 1.321,6.475 1.5,10 0.915,0.828 1.581,1.828 2,3 0.333,4.333 0.667,8.667 1,13 1.397,1.57 2.897,2.904 4.5,4 -0.647,0.774 -0.98,1.774 -1,3 2.308,10.5 3.474,21.167 3.5,32 2.342,9.543 3.842,19.21 4.5,29 4.814,26.217 9.481,52.383 14,78.5 -0.27,1.514 -0.603,3.014 -1,4.5 0.72,4.637 1.22,9.303 1.5,14 7.375,28.235 14.041,56.902 20,86 0.862,1.587 1.529,3.254 2,5 0.671,0.752 1.504,1.086 2.5,1 1,0 2,0 3,0 -0.664,6.494 -3.33,11.994 -8,16.5 -3.572,1.405 -7.239,1.738 -11,1 -9.753,-6.759 -19.753,-13.093 -30,-19 C 157.306,763.806 148.14,754.64 139,745.5 131.535,735.359 124.035,725.193 116.5,715 107.718,697.53 98.8848,680.03 90,662.5 78.0184,634.061 66.5184,605.395 55.5,576.5 c 0.9959,0.086 1.8292,-0.248 2.5,-1 0.6667,-2.667 0.6667,-5.333 0,-8 -1.4631,-6.722 -3.1298,-13.388 -5,-20 -2.9439,-1.872 -4.1105,-4.539 -3.5,-8 -3,-0.333 -4.3333,1 -4,4 -5.3058,-15.582 -10.6391,-31.249 -16,-47 3.5841,-0.32 4.2508,-1.487 2,-3.5 0.3333,-0.333 0.6667,-0.667 1,-1 -1.256,-5.777 -2.4226,-11.61 -3.5,-17.5 -2.4197,-8.122 -5.0863,-16.122 -8,-24 -0.2577,-5.356 -1.7577,-10.189 -4.5,-14.5 -0.6645,-4.144 -1.1645,-8.311 -1.5,-12.5 -1.3561,-0.88 -2.8561,-1.214 -4.5,-1 0,1 0,2 0,3 -1.03747,-1.43 -1.70414,-3.097 -2,-5 2.0442,1.278 4.0442,1.112 6,-0.5 -0.9406,-3.272 -2.1073,-6.438 -3.5,-9.5 -0.8352,-12.344 -4.00185,-24.011 -9.5,-35 -0.668715,2.131 -1.335381,4.131 -2,6 0,-14.333 0,-28.667 0,-43 3.31228,-2.646 6.31228,-5.646 9,-9 2.4823,-1.844 5.149,-3.177 8,-4 12.0177,1.535 24.351,2.869 37,4 1.8693,-0.007 3.536,-0.34 5,-1 0.9584,0.453 1.7917,1.119 2.5,2 0.3216,5.404 3.1549,7.904 8.5,7.5 3.2553,-3.84 4.5886,-8.34 4,-13.5 2.6149,0.95 4.6149,2.617 6,5 1.3333,-0.333 2.6667,-0.667 4,-1 0.3333,-0.667 0.6667,-1.333 1,-2 -0.9657,-3.744 -2.2991,-7.244 -4,-10.5 3.2887,-1.077 3.7887,-2.91 1.5,-5.5 -3.5888,-2.919 -6.4221,-6.419 -8.5,-10.5 -1.7464,-0.471 -3.413,-1.138 -5,-2 -3.2063,-3.704 -6.5396,-7.204 -10,-10.5 -1.6222,1.939 -3.4555,2.272 -5.5,1 -1.6421,2.306 -3.1421,4.639 -4.5,7 -0.8473,-1.561 -0.5139,-3.061 1,-4.5 -2.0127,-0.875 -2.0127,-2.209 0,-4 -3.5411,-2.646 -6.2077,-5.98 -8,-10 -0.9491,-0.617 -1.7825,-0.451 -2.5,0.5 -0.242,-1.638 -1.0753,-3.138 -2.5,-4.5 -5.1076,-0.161 -5.1076,-1.161 0,-3 -2.3851,-1.465 -5.3851,-2.465 -9,-3 1.1341,-1.016 0.8008,-1.683 -1,-2 2.2053,-1.427 4.3719,-1.927 6.5,-1.5 0.8469,-2.99 -0.3198,-4.324 -3.5,-4 0,-1 0,-2 0,-3 -4.1252,-0.578 -7.4585,-0.078 -10,1.5 1.2786,-1.646 2.9453,-2.813 5,-3.5 -0.7458,-1.236 -1.0792,-2.57 -1,-4 -1,0 -2,0 -3,0 0.3588,-2.266 -0.3078,-4.099 -2,-5.5 0.6667,-0.667 1.3333,-1.333 2,-2 -0.7955,-2.456 -0.7955,-5.123 0,-8 -0.1995,-2.399 -1.1995,-4.399 -3,-6 0.8091,-1.784 1.4757,-3.617 2,-5.5 -1.0657,-5.684 -1.7324,-11.184 -2,-16.5 0.509,-2.693 1.509,-5.193 3,-7.5 -0.8088,-6.043 -0.8088,-12.21 0,-18.5 -1.4436,-1.126 -2.1102,-2.626 -2,-4.5 0.6397,-3.146 1.973,-5.979 4,-8.5 -2.0598,-2.034 -1.7265,-4.034 1,-6 0.7402,-1.728 0.7402,-3.728 0,-6 0.5,-0.5 1,-1 1.5,-1.5 0.52,7.921 1.3534,7.921 2.5,0 0.3333,0.333 0.6667,0.667 1,1 0.9066,2.921 1.2399,5.921 1,9 1.6667,0 3.3333,0 5,0 0,1.667 0,3.333 0,5 2.6667,0 5.3333,0 8,0 1.3758,-3.158 2.0424,-6.491 2,-10 -1.6667,0 -3.3333,0 -5,0 0.219,1.175 -0.1143,2.175 -1,3 -0.9742,-2.243 -1.3076,-4.576 -1,-7 -1.052,0.149 -2.052,-0.017 -3,-0.5 3.057,-0.256 6.057,-0.756 9,-1.5 0.3333,-0.833 0.6667,-1.667 1,-2.5 -0.4686,-1.887 -1.4686,-3.387 -3,-4.5 0.2093,-0.586 0.5426,-1.086 1,-1.5 2.9816,-0.498 5.9816,-0.665 9,-0.5 0,-1.667 0,-3.333 0,-5 -1.3333,0 -2.6667,0 -4,0 0.5111,-3.53 -0.1556,-6.696 -2,-9.5 2.2177,-1.091 4.3844,-2.257 6.5,-3.5 0.49,-1.293 0.6567,-2.627 0.5,-4 -4,0.667 -5.6667,-1 -5,-5 -4,-0.667 -4,-1.333 0,-2 0.7071,-3.286 1.0405,-6.619 1,-10 -3.814,0.151 -5.4807,2.151 -5,6 1,0 2,0 3,0 0,1 0,2 0,3 -3.3826,0.243 -6.5492,-0.424 -9.5,-2 -0.3333,0.667 -0.6667,1.333 -1,2 -2.4513,-4.308 -1.618,-7.808 2.5,-10.5 -2.0689,-0.324 -2.4023,-1.158 -1,-2.5 3.383,-1.14 6.0496,-3.1405 8,-6 -2.3781,-2.5239 -2.0447,-3.8573 1,-4 -1.1651,-1.0836 -2.4984,-1.9169 -4,-2.5 0.7529,-1.487 1.5862,-1.6537 2.5,-0.5 0,-1.3333 0,-2.6667 0,-4 2.2912,0.8106 4.1246,-0.0228 5.5,-2.5 -0.3333,-0.3333 -0.6667,-0.6667 -1,-1 0.928,-0.3879 1.5946,-1.0546 2,-2 -1.1699,-1.5866 -2.1699,-3.2533 -3,-5 2.1717,-2.4656 4.6717,-4.6323 7.5,-6.5 0.6172,-0.9491 0.4506,-1.7825 -0.5,-2.5 1.3333,-0.3333 2.6667,-0.6667 4,-1 0.4336,-3.8703 2.1003,-7.5369 5,-11 -1.3112,-2.0753 -0.6445,-3.4087 2,-4 -0.3333,-0.3333 -0.6667,-0.6667 -1,-1 2.8381,-2.853 5.3381,-6.0197 7.5,-9.5 0.9025,-1.2014 2.0692,-2.0348 3.5,-2.5 -0.6667,-0.3333 -1.3333,-0.6667 -2,-1 2.5904,-1.4451 5.257,-2.6118 8,-3.5 1.5335,-3.0484 3.7002,-5.715 6.5,-8 2.1341,0.8048 3.9674,0.1382 5.5,-2 -0.2093,-0.586 -0.5426,-1.086 -1,-1.5 3.1706,-2.1096 6.504,-2.6096 10,-1.5 1.638,-1.2046 1.971,-2.5379 1,-4 1.807,-1.2991 3.473,-1.1324 5,0.5 -0.333,0.3333 -0.667,0.6667 -1,1 1.692,1.4007 2.359,3.2341 2,5.5 1.788,0.2852 3.455,-0.0481 5,-1 -1.063,-1.866 -0.396,-2.366 2,-1.5 0,1 0,2 0,3 4.141,-0.0893 7.474,1.744 10,5.5 3.456,0.2905 5.456,2.1238 6,5.5 4.825,-1.1995 7.492,0.8005 8,6 -0.333,0.3333 -0.667,0.6667 -1,1 4.829,3.1694 8.662,6.6694 11.5,10.5 0.483,0.948 0.649,1.948 0.5,3 3.461,-0.6105 6.128,0.5561 8,3.5 -0.333,0.3333 -0.667,0.6667 -1,1 3.8,2.7546 5.467,6.2546 5,10.5 -1.505,-2.6306 -2.171,-2.2973 -2,1 -1.333,0 -2.667,0 -4,0 0,-1.3333 0,-2.6667 0,-4 -1.667,0 -3.333,0 -5,0 0,-1.3333 0,-2.6667 0,-4 1.373,0.1567 2.707,-0.01 4,-0.5 -2.932,-0.9533 -5.932,-1.4533 -9,-1.5 0,1.3333 0,2.6667 0,4 1.333,0 2.667,0 4,0 0,2.6667 0,5.3333 0,8 2,0 4,0 6,0 0,1 0,2 0,3 1,0 2,0 3,0 0.493,2.3056 0.826,4.639 1,7 2.667,1 5.333,2 8,3 0,-1 0,-2 0,-3 5.886,-1.1565 10.719,0.5102 14.5,5 0.718,-0.9506 1.551,-1.1172 2.5,-0.5 1.713,1.3782 3.047,3.0448 4,5 2.086,1.8272 4.086,1.8272 6,0 -2.295,-0.9836 -1.961,-1.8169 1,-2.5 0.692,0.5253 1.192,1.1919 1.5,2 1.666,-0.8402 1.833,-0.3402 0.5,1.5 0.828,0.9147 1.828,1.5814 3,2 -0.333,0.3333 -0.667,0.6667 -1,1 1.721,0.7393 3.387,1.5726 5,2.5 0.748,1.8325 1.748,3.499 3,5 0.667,-0.333 1.333,-0.667 2,-1 1.333,1.667 2.667,3.333 4,5 -1.371,2.826 -0.371,4.326 3,4.5 -1.576,0.44 -2.91,1.273 -4,2.5 -0.586,-0.209 -1.086,-0.543 -1.5,-1 -0.557,2.086 0.276,3.419 2.5,4 0.716,-0.811 1.55,-1.478 2.5,-2 1.235,1.115 2.402,1.115 3.5,0 2.353,2.023 4.686,4.023 7,6 z"
       id="path1" />
  </g>
  <g
     id="g2"
     transform="matrix(0.0224359,0,0,0.02850627,0.01121795,0.01425314)">
    <path
       style="opacity:0.865"
       fill="#fefffe"
       d="m 1027.5,45.5 c 9.67,0 19.33,0 29,0 0,31 0,62 0,93 37.67,0 75.33,0 113,0 -0.17,-30.668 0,-61.3351 0.5,-92 10,-1.3333 20,-1.3333 30,0 0.5,76.333 0.67,152.666 0.5,229 -10.33,0 -20.67,0 -31,0 0,-37 0,-74 0,-111 -37.67,0 -75.33,0 -113,0 0,37 0,74 0,111 -10,0 -20,0 -30,0 -0.33,-76.738 0,-153.404 1,-230 z"
       id="path2" />
  </g>
  <g
     id="g3"
     transform="matrix(0.0224359,0,0,0.02850627,0.01121795,0.01425314)">
    <path
       style="opacity:0.857"
       fill="#fefffe"
       d="m 1264.5,45.5 c 47.67,0 95.33,0 143,0 0,8.6667 0,17.3333 0,26 -37.67,0 -75.33,0 -113,0 0,23.6667 0,47.333 0,71 33,-0.167 66,0 99,0.5 1.33,8.667 1.33,17.333 0,26 -33,0.5 -66,0.667 -99,0.5 0,26.667 0,53.333 0,80 38.33,-0.167 76.67,0 115,0.5 0.98,8.415 1.32,16.915 1,25.5 -48.67,0 -97.33,0 -146,0 0,-76.667 0,-153.333 0,-230 z"
       id="path3" />
  </g>
  <g
     id="g4"
     transform="matrix(0.0224359,0,0,0.02850627,0.01121795,0.01425314)">
    <path
       style="opacity:0.85"
       fill="#fefffe"
       d="m 818.5,46.5 c 56.001,-0.1667 112.001,0 168,0.5 0.5,0.5 1,1 1.5,1.5 0.814,7.9128 0.647,15.7462 -0.5,23.5 -22.998,0.5 -45.998,0.6666 -69,0.5 0,68 0,136 0,204 -10.333,0 -20.667,0 -31,0 0,-68 0,-136 0,-204 -23.669,0.1666 -47.336,0 -71,-0.5 -1.147,-7.7538 -1.314,-15.5872 -0.5,-23.5 0.995,-0.5659 1.828,-1.2326 2.5,-2 z"
       id="path4" />
  </g>
  <g
     id="g5"
     transform="matrix(0.0224359,0,0,0.02850627,0.01121795,0.01425314)">
    <path
       style="opacity:0.878"
       fill="#3c3c3e"
       d="m 94.5,-0.5 c 9,0 18,0 27,0 22.016,20.1841 43.849,40.5174 65.5,61 14.432,19.8827 28.598,39.883 42.5,60 -2.314,-1.977 -4.647,-3.977 -7,-6 -1.098,1.115 -2.265,1.115 -3.5,0 -0.95,0.522 -1.784,1.189 -2.5,2 -2.224,-0.581 -3.057,-1.914 -2.5,-4 0.414,0.457 0.914,0.791 1.5,1 1.09,-1.227 2.424,-2.06 4,-2.5 -3.371,-0.174 -4.371,-1.674 -3,-4.5 -1.333,-1.667 -2.667,-3.333 -4,-5 -0.667,0.333 -1.333,0.667 -2,1 -1.252,-1.501 -2.252,-3.1675 -3,-5 -1.613,-0.9274 -3.279,-1.7607 -5,-2.5 0.333,-0.3333 0.667,-0.6667 1,-1 -1.172,-0.4186 -2.172,-1.0853 -3,-2 1.333,-1.8402 1.166,-2.3402 -0.5,-1.5 -0.308,-0.8081 -0.808,-1.4747 -1.5,-2 -2.961,0.6831 -3.295,1.5164 -1,2.5 -1.914,1.8272 -3.914,1.8272 -6,0 -0.953,-1.9552 -2.287,-3.6218 -4,-5 -0.949,-0.6172 -1.782,-0.4506 -2.5,0.5 -3.781,-4.4898 -8.614,-6.1565 -14.5,-5 0,1 0,2 0,3 -2.667,-1 -5.333,-2 -8,-3 -0.174,-2.361 -0.507,-4.6944 -1,-7 -1,0 -2,0 -3,0 0,-1 0,-2 0,-3 -2,0 -4,0 -6,0 0,-2.6667 0,-5.3333 0,-8 -1.333,0 -2.667,0 -4,0 0,-1.3333 0,-2.6667 0,-4 3.068,0.0467 6.068,0.5467 9,1.5 -1.293,0.49 -2.627,0.6567 -4,0.5 0,1.3333 0,2.6667 0,4 1.667,0 3.333,0 5,0 0,1.3333 0,2.6667 0,4 1.333,0 2.667,0 4,0 -0.171,-3.2973 0.495,-3.6306 2,-1 0.467,-4.2454 -1.2,-7.7454 -5,-10.5 0.333,-0.3333 0.667,-0.6667 1,-1 -1.872,-2.9439 -4.539,-4.1105 -8,-3.5 0.149,-1.052 -0.017,-2.052 -0.5,-3 -2.838,-3.8306 -6.671,-7.3306 -11.5,-10.5 0.333,-0.3333 0.667,-0.6667 1,-1 -0.508,-5.1995 -3.175,-7.1995 -8,-6 -0.544,-3.3762 -2.544,-5.2095 -6,-5.5 -2.526,-3.756 -5.859,-5.5893 -10,-5.5 0,-1 0,-2 0,-3 -2.396,-0.866 -3.063,-0.366 -2,1.5 -1.545,0.9519 -3.212,1.2852 -5,1 0.359,-2.2659 -0.308,-4.0993 -2,-5.5 0.333,-0.3333 0.667,-0.6667 1,-1 -1.527,-1.6324 -3.193,-1.7991 -5,-0.5 0.971,1.4621 0.638,2.7954 -1,4 -3.496,-1.1096 -6.8294,-0.6096 -10,1.5 0.4574,0.414 0.7907,0.914 1,1.5 -1.5326,2.1382 -3.3659,2.8048 -5.5,2 -2.7998,2.285 -4.9665,4.9516 -6.5,8 -2.743,0.8882 -5.4096,2.0549 -8,3.5 0.6667,0.3333 1.3333,0.6667 2,1 -1.4308,0.4652 -2.5975,1.2986 -3.5,2.5 -2.1619,3.4803 -4.6619,6.647 -7.5,9.5 0.3333,0.3333 0.6667,0.6667 1,1 -2.6445,0.5913 -3.3112,1.9247 -2,4 -2.8997,3.4631 -4.5664,7.1297 -5,11 -1.3333,0.3333 -2.6667,0.6667 -4,1 0.9506,0.7175 1.1172,1.5509 0.5,2.5 -2.8283,1.8677 -5.3283,4.0344 -7.5,6.5 0.8301,1.7467 1.8301,3.4134 3,5 -0.4054,0.9454 -1.072,1.6121 -2,2 0.3333,0.3333 0.6667,0.6667 1,1 -1.3754,2.4772 -3.2088,3.3106 -5.5,2.5 0,1.3333 0,2.6667 0,4 -0.9138,-1.1537 -1.7471,-0.987 -2.5,0.5 1.5016,0.5831 2.8349,1.4164 4,2.5 -3.0447,0.1427 -3.3781,1.4761 -1,4 -1.9504,2.8595 -4.617,4.86 -8,6 -1.4023,1.342 -1.0689,2.176 1,2.5 -4.118,2.692 -4.9513,6.192 -2.5,10.5 0.3333,-0.667 0.6667,-1.333 1,-2 2.9508,1.576 6.1174,2.243 9.5,2 0,-1 0,-2 0,-3 -1,0 -2,0 -3,0 -0.4807,-3.849 1.186,-5.849 5,-6 0.0405,3.381 -0.2929,6.714 -1,10 -4,0.667 -4,1.333 0,2 -0.6667,4 1,5.667 5,5 0.1567,1.373 -0.01,2.707 -0.5,4 -2.1156,1.243 -4.2823,2.409 -6.5,3.5 1.8444,2.804 2.5111,5.97 2,9.5 1.3333,0 2.6667,0 4,0 0,1.667 0,3.333 0,5 -3.0184,-0.165 -6.0184,0.002 -9,0.5 -0.4574,0.414 -0.7907,0.914 -1,1.5 1.5314,1.113 2.5314,2.613 3,4.5 -0.3333,0.833 -0.6667,1.667 -1,2.5 -2.943,0.744 -5.943,1.244 -9,1.5 0.948,0.483 1.948,0.649 3,0.5 -0.3076,2.424 0.0258,4.757 1,7 0.8857,-0.825 1.219,-1.825 1,-3 1.6667,0 3.3333,0 5,0 0.0424,3.509 -0.6242,6.842 -2,10 -2.6667,0 -5.3333,0 -8,0 0,-1.667 0,-3.333 0,-5 -1.6667,0 -3.3333,0 -5,0 0.2399,-3.079 -0.0934,-6.079 -1,-9 -0.3333,-0.333 -0.6667,-0.667 -1,-1 -1.1466,7.921 -1.98,7.921 -2.5,0 -0.5,0.5 -1,1 -1.5,1.5 0.7402,2.272 0.7402,4.272 0,6 -2.7265,1.966 -3.0598,3.966 -1,6 -2.027,2.521 -3.3603,5.354 -4,8.5 -0.1102,1.874 0.5564,3.374 2,4.5 -0.8088,6.29 -0.8088,12.457 0,18.5 -1.491,2.307 -2.491,4.807 -3,7.5 0.2676,5.316 0.9343,10.816 2,16.5 -0.5243,1.883 -1.1909,3.716 -2,5.5 1.8005,1.601 2.8005,3.601 3,6 -0.7955,2.877 -0.7955,5.544 0,8 -0.6667,0.667 -1.3333,1.333 -2,2 1.6922,1.401 2.3588,3.234 2,5.5 1,0 2,0 3,0 -0.0792,1.43 0.2542,2.764 1,4 -2.0547,0.687 -3.7214,1.854 -5,3.5 2.5415,-1.578 5.8748,-2.078 10,-1.5 0,1 0,2 0,3 3.1802,-0.324 4.3469,1.01 3.5,4 -2.1281,-0.427 -4.2947,0.073 -6.5,1.5 1.8008,0.317 2.1341,0.984 1,2 3.6149,0.535 6.6149,1.535 9,3 -5.1076,1.839 -5.1076,2.839 0,3 1.4247,1.362 2.258,2.862 2.5,4.5 0.7175,-0.951 1.5509,-1.117 2.5,-0.5 1.7923,4.02 4.4589,7.354 8,10 -2.0127,1.791 -2.0127,3.125 0,4 -1.5139,1.439 -1.8473,2.939 -1,4.5 1.3579,-2.361 2.8579,-4.694 4.5,-7 2.0445,1.272 3.8778,0.939 5.5,-1 3.4604,3.296 6.7937,6.796 10,10.5 1.587,0.862 3.2536,1.529 5,2 2.0779,4.081 4.9112,7.581 8.5,10.5 2.2887,2.59 1.7887,4.423 -1.5,5.5 1.7009,3.256 3.0343,6.756 4,10.5 -0.3333,0.667 -0.6667,1.333 -1,2 -1.3333,0.333 -2.6667,0.667 -4,1 -1.3851,-2.383 -3.3851,-4.05 -6,-5 -1.3118,-0.645 -2.3118,-1.645 -3,-3 -1.1888,-0.929 -2.5222,-1.262 -4,-1 0,1.333 0,2.667 0,4 -0.6667,-0.333 -1.3333,-0.667 -2,-1 0.4234,-0.765 0.7568,-1.598 1,-2.5 C 46.7623,301.261 27.5957,281.761 8,262.5 c -1.85989,-3.72 -3.69322,-7.386 -5.5,-11 3.80886,0.714 5.80886,-1.12 6,-5.5 -1.77334,-29.926 -0.77334,-59.759 3,-89.5 -2.0138,-0.108 -3.68047,0.558 -5,2 4.8266,-22.636 11.6599,-44.636 20.5,-66 4.2031,-6.4092 7.8698,-13.0758 11,-20 8.3333,-13.3333 16.6667,-26.6667 25,-40 10.4775,-11.3042 20.9775,-22.3042 31.5,-33 z"
       id="path5" />
  </g>
  <g
     id="g6"
     transform="matrix(0.0224359,0,0,0.02850627,0.01121795,0.01425314)">
    <path
       style="opacity:0.399"
       fill="#648ca2"
       d="m 461.5,136.5 c 11.702,4.368 19.702,12.368 24,24 -2.091,-0.182 -4.091,0.152 -6,1 -1.346,-2.009 -2.68,-4.009 -4,-6 -0.825,-0.886 -1.825,-1.219 -3,-1 -0.127,-3.762 -0.794,-7.428 -2,-11 -1.986,2.283 -3.153,1.616 -3.5,-2 -2.191,-1.333 -4.024,-3 -5.5,-5 z"
       id="path6" />
  </g>
  <g
     id="g7"
     transform="matrix(0.0224359,0,0,0.02850627,0.01121795,0.01425314)">
    <path
       style="opacity:0.752"
       fill="#296fa4"
       d="m 472.5,154.5 c 1.175,-0.219 2.175,0.114 3,1 1.32,1.991 2.654,3.991 4,6 1.909,-0.848 3.909,-1.182 6,-1 17.506,27.354 31.006,56.688 40.5,88 0.499,4.655 0.666,9.321 0.5,14 -0.904,0.709 -1.237,1.709 -1,3 -1,0 -2,0 -3,0 0.106,2.579 -0.561,4.912 -2,7 -3.185,-0.569 -6.518,-0.569 -10,0 0.124,-2.452 1.124,-4.452 3,-6 -2.112,-3.055 -3.612,-7.055 -4.5,-12 -4.719,-3.856 -6.886,-8.856 -6.5,-15 -1,0 -2,0 -3,0 -0.14,-1.624 0.527,-2.79 2,-3.5 -0.667,-0.667 -1.333,-1.333 -2,-2 1.333,-1.333 2.667,-2.667 4,-4 -1.049,-0.492 -2.049,-0.326 -3,0.5 -0.902,-4.059 -2.235,-7.893 -4,-11.5 1,-1 2,-2 3,-3 -2.148,-2.075 -2.482,-4.408 -1,-7 -1.335,-3.352 -3.502,-6.185 -6.5,-8.5 -0.239,-4.479 -2.073,-8.145 -5.5,-11 0.865,-3.044 0.532,-6.044 -1,-9 -1.908,-2.445 -3.408,-5.112 -4.5,-8 -1.011,-0.837 -2.178,-1.17 -3.5,-1 0.059,-2.549 -0.941,-4.549 -3,-6 0.487,-0.946 0.82,-1.946 1,-3 -1.072,-2.704 -2.072,-5.37 -3,-8 z"
       id="path7" />
  </g>
  <g
     id="g8"
     transform="matrix(0.0224359,0,0,0.02850627,0.01121795,0.01425314)">
    <path
       style="opacity:0.145"
       fill="#616261"
       d="m 256.5,167.5 c 2.84,3.182 4.84,6.849 6,11 -1.367,3.664 -3.534,3.997 -6.5,1 -2.218,-5.319 -4.051,-10.819 -5.5,-16.5 0.35,-1.257 1.017,-1.591 2,-1 0.5,2.521 1.833,4.354 4,5.5 z"
       id="path8" />
  </g>
  <g
     id="g9"
     transform="matrix(0.0224359,0,0,0.02850627,0.01121795,0.01425314)">
    <path
       style="opacity:0.787"
       fill="#2e74a7"
       d="m 459.5,136.5 c -1.935,1.31 -3.935,2.643 -6,4 -1.363,0.698 -2.529,0.698 -3.5,0 -1.419,0.96 -2.919,1.793 -4.5,2.5 2.968,2.178 2.635,3.344 -1,3.5 0.157,1.373 -0.01,2.707 -0.5,4 -1.512,0.757 -2.846,1.757 -4,3 -0.414,-0.457 -0.914,-0.791 -1.5,-1 -3.892,5.645 -6.059,4.978 -6.5,-2 -2.594,2.494 -3.427,5.328 -2.5,8.5 -0.421,2.185 -0.921,4.351 -1.5,6.5 -2.179,0.616 -4.012,1.783 -5.5,3.5 1.456,0.423 1.956,1.256 1.5,2.5 -2.346,2.178 -4.846,4.178 -7.5,6 -1.377,1.789 -2.377,3.789 -3,6 -4.265,1.267 -7.265,3.933 -9,8 -2.961,0.683 -3.295,1.516 -1,2.5 -1.488,1.717 -3.321,2.884 -5.5,3.5 -0.333,1.547 0.167,2.88 1.5,4 -1.561,0.847 -3.061,0.514 -4.5,-1 -0.75,0.626 -1.584,1.126 -2.5,1.5 0.333,0.333 0.667,0.667 1,1 -0.727,1.399 -1.227,2.899 -1.5,4.5 -4.926,4.912 -9.093,10.245 -12.5,16 -1,0 -2,0 -3,0 0.149,1.052 -0.017,2.052 -0.5,3 -1.713,1.378 -3.047,3.045 -4,5 -1.346,-2.595 -3.18,-3.262 -5.5,-2 -1.239,-0.442 -2.239,-1.109 -3,-2 1.482,-3.794 3.149,-7.461 5,-11 0,1.667 0,3.333 0,5 1,0 2,0 3,0 0.3,-2.769 1.3,-5.269 3,-7.5 2.958,-3.426 5.791,-6.926 8.5,-10.5 0.941,-2.654 1.774,-5.321 2.5,-8 2.541,-0.246 4.874,-1.579 7,-4 0.781,-1.229 1.281,-2.562 1.5,-4 5.368,-4.034 10.034,-8.701 14,-14 0.494,-1.634 0.66,-3.301 0.5,-5 10.79,-8.284 21.456,-16.784 32,-25.5 3.827,-1.746 7.493,-3.746 11,-6 2.646,-0.497 5.313,-0.664 8,-0.5 z"
       id="path9" />
  </g>
  <g
     id="g10"
     transform="matrix(0.0224359,0,0,0.02850627,0.01121795,0.01425314)">
    <path
       style="opacity:0.133"
       fill="#5e8290"
       d="m 408.5,168.5 c 0.16,1.699 -0.006,3.366 -0.5,5 -3.966,5.299 -8.632,9.966 -14,14 -0.219,1.438 -0.719,2.771 -1.5,4 -2.126,2.421 -4.459,3.754 -7,4 -1.105,1.1 -2.438,1.767 -4,2 6.391,-5.895 11.891,-12.561 16.5,-20 3.078,-3.585 6.578,-6.585 10.5,-9 z"
       id="path10" />
  </g>
  <g
     id="g11"
     transform="matrix(0.0224359,0,0,0.02850627,0.01121795,0.01425314)">
    <path
       style="opacity:0.071"
       fill="#656666"
       d="m 2.5,251.5 c -0.24747,-3.354 -1.24747,-6.354 -3,-9 0,-0.667 0,-1.333 0,-2 0.982236,-0.641 1.98224,-1.307 3,-2 1.16585,-11.652 1.33252,-23.319 0.5,-35 -1.14547,-1.184 -2.312133,-1.184 -3.5,0 0,-0.667 0,-1.333 0,-2 2.17742,-4.404 2.84409,-9.071 2,-14 0.12723,-9.977 1.7939,-19.644 5,-29 1.31953,-1.442 2.9862,-2.108 5,-2 -3.77334,29.741 -4.77334,59.574 -3,89.5 -0.19114,4.38 -2.19114,6.214 -6,5.5 z"
       id="path11" />
  </g>
  <g
     id="g12"
     transform="matrix(0.0224359,0,0,0.02850627,0.01121795,0.01425314)">
    <path
       style="opacity:0.114"
       fill="#84a9bb"
       d="m 385.5,195.5 c -0.726,2.679 -1.559,5.346 -2.5,8 -2.709,3.574 -5.542,7.074 -8.5,10.5 -1.7,2.231 -2.7,4.731 -3,7.5 -1,0 -2,0 -3,0 0,-1.667 0,-3.333 0,-5 2.594,-7.519 6.927,-13.853 13,-19 1.562,-0.233 2.895,-0.9 4,-2 z"
       id="path12" />
  </g>
  <g
     id="g13"
     transform="matrix(0.0224359,0,0,0.02850627,0.01121795,0.01425314)">
    <path
       style="opacity:0.148"
       fill="#999c9e"
       d="m -0.5,240.5 c 0,-12.333 0,-24.667 0,-37 1.187867,-1.184 2.35453,-1.184 3.5,0 0.83252,11.681 0.66585,23.348 -0.5,35 -1.01776,0.693 -2.017764,1.359 -3,2 z"
       id="path13" />
  </g>
  <g
     id="g14"
     transform="matrix(0.0224359,0,0,0.02850627,0.01121795,0.01425314)">
    <path
       style="opacity:0.157"
       fill="#89a5b7"
       d="m 348.5,249.5 c -1.231,6.735 -4.398,12.402 -9.5,17 -1.092,2.544 -1.759,5.211 -2,8 -1.574,2.652 -3.408,4.985 -5.5,7 -0.333,0 -0.667,0 -1,0 1.714,-13.202 7.714,-23.869 18,-32 z"
       id="path14" />
  </g>
  <g
     id="g15"
     transform="matrix(0.0224359,0,0,0.02850627,0.01121795,0.01425314)">
    <path
       style="opacity:0.596"
       fill="#4c87af"
       d="m 351.5,246.5 c -0.938,9.464 -4.271,18.131 -10,26 -1,0 -2,0 -3,0 -2.559,5.607 -5.225,11.273 -8,17 1.168,1.717 2.835,2.384 5,2 0.381,15.506 2.048,30.839 5,46 -1.957,-4.122 -2.624,-8.455 -2,-13 -2.721,-8.106 -4.221,-16.439 -4.5,-25 -1.981,-1.859 -2.981,-4.192 -3,-7 -0.383,0.556 -0.883,0.889 -1.5,1 0.034,-4.13 0.701,-8.13 2,-12 2.092,-2.015 3.926,-4.348 5.5,-7 0.241,-2.789 0.908,-5.456 2,-8 5.102,-4.598 8.269,-10.265 9.5,-17 0.356,-1.69 1.356,-2.69 3,-3 z"
       id="path15" />
  </g>
  <g
     id="g16"
     transform="matrix(0.0224359,0,0,0.02850627,0.01121795,0.01425314)">
    <path
       style="opacity:0.071"
       fill="#1e4859"
       d="m 526.5,262.5 c -2.681,7.737 -4.348,15.737 -5,24 0.078,13.566 0.078,27.232 0,41 -0.827,-14.333 -1.493,-28.833 -2,-43.5 0.08,-3.55 0.414,-7.05 1,-10.5 0,-0.333 0,-0.667 0,-1 1.439,-2.088 2.106,-4.421 2,-7 1,0 2,0 3,0 -0.237,-1.291 0.096,-2.291 1,-3 z"
       id="path16" />
  </g>
  <g
     id="g17"
     transform="matrix(0.0224359,0,0,0.02850627,0.01121795,0.01425314)">
    <path
       style="opacity:0.19"
       fill="#757c7d"
       d="m 292.5,247.5 c 3.081,10.149 5.415,20.482 7,31 0,1.667 0,3.333 0,5 -1,0 -2,0 -3,0 -0.544,-2.08 -1.378,-4.08 -2.5,-6 -1.464,-9.651 -3.297,-19.151 -5.5,-28.5 0.333,-1.5 0.667,-3 1,-4.5 0.641,1.493 1.641,2.493 3,3 z"
       id="path17" />
  </g>
  <g
     id="g18"
     transform="matrix(0.0224359,0,0,0.02850627,0.01121795,0.01425314)">
    <path
       style="opacity:0.012"
       fill="#525757"
       d="m 330.5,281.5 c 0.333,0 0.667,0 1,0 -1.299,3.87 -1.966,7.87 -2,12 0.317,4.202 -0.017,8.202 -1,12 -0.166,-7.341 0,-14.674 0.5,-22 0.278,-0.916 0.778,-1.582 1.5,-2 z"
       id="path18" />
  </g>
  <g
     id="g19"
     transform="matrix(0.0224359,0,0,0.02850627,0.01121795,0.01425314)">
    <path
       style="opacity:0.121"
       fill="#979da0"
       d="m 58.5,328.5 c -1.464,0.66 -3.1307,0.993 -5,1 -12.649,-1.131 -24.9823,-2.465 -37,-4 10.6591,-6.335 21.9924,-7.502 34,-3.5 3.4359,1.274 6.1026,3.441 8,6.5 z"
       id="path19" />
  </g>
  <g
     id="g20"
     transform="matrix(0.0224359,0,0,0.02850627,0.01121795,0.01425314)">
    <path
       style="opacity:0.012"
       fill="#96a0a3"
       d="m 64.5,323.5 c 0.6667,0.333 1.3333,0.667 2,1 2.2593,0.844 3.2593,2.511 3,5 -7.5512,1.5 -9.2179,-0.5 -5,-6 z"
       id="path20" />
  </g>
  <g
     id="g21"
     transform="matrix(0.0224359,0,0,0.02850627,0.01121795,0.01425314)">
    <path
       style="opacity:0.678"
       fill="#266ea4"
       d="m 520.5,273.5 c -0.586,3.45 -0.92,6.95 -1,10.5 0.507,14.667 1.173,29.167 2,43.5 0.403,8.235 1.403,16.568 3,25 0.606,6.764 -1.728,12.097 -7,16 -0.73,-1.212 -1.73,-2.212 -3,-3 1.419,-1.627 1.086,-2.127 -1,-1.5 -5.558,3.5 -10.891,8.166 -16,14 -2.234,1.75 -4.568,3.25 -7,4.5 0.513,-2.949 0.513,-5.782 0,-8.5 2.149,-1.164 4.315,-2.33 6.5,-3.5 0.333,0.333 0.667,0.667 1,1 1.04,-2.54 2.874,-4.207 5.5,-5 3.095,-4.513 6.095,-9.013 9,-13.5 -3.006,-2.635 -2.672,-4.635 1,-6 -0.74,-1.785 -1.407,-3.618 -2,-5.5 1.363,-1.393 2.196,-3.059 2.5,-5 0.333,-19.667 0.667,-39.333 1,-59 0.308,0.808 0.808,1.475 1.5,2 0.968,20.168 1.301,40.168 1,60 0.833,-21.659 1.333,-43.326 1.5,-65 0.383,-0.556 0.883,-0.889 1.5,-1 z"
       id="path21" />
  </g>
  <g
     id="g22"
     transform="matrix(0.0224359,0,0,0.02850627,0.01121795,0.01425314)">
    <path
       style="opacity:0.799"
       fill="#fefffe"
       d="m 2030.5,346.5 c 39.42,-0.488 78.75,0.012 118,1.5 0.5,0.5 1,1 1.5,1.5 0.81,6.914 0.64,13.748 -0.5,20.5 -31.66,0.5 -63.33,0.667 -95,0.5 0,20 0,40 0,60 27.34,-0.167 54.67,0 82,0.5 1.29,3.571 1.96,7.405 2,11.5 -0.02,3.916 -0.35,7.75 -1,11.5 -27.66,0.5 -55.33,0.667 -83,0.5 0,22.333 0,44.667 0,67 32.72,-0.655 65.22,0.011 97.5,2 0.81,6.914 0.64,13.748 -0.5,20.5 -41.57,0.83 -83.07,0.663 -124.5,-0.5 -0.67,-65 -0.67,-130 0,-195 1.3,-0.585 2.47,-1.251 3.5,-2 z"
       id="path22" />
  </g>
  <g
     id="g23"
     transform="matrix(0.0224359,0,0,0.02850627,0.01121795,0.01425314)">
    <path
       style="opacity:0.813"
       fill="#fefefe"
       d="m 2236.5,346.5 c 47.67,-0.167 95.33,0 143,0.5 0.92,0.374 1.75,0.874 2.5,1.5 0.81,7.247 0.65,14.414 -0.5,21.5 -20,0.5 -40,0.667 -60,0.5 0.17,57.668 0,115.334 -0.5,173 -8.67,1.333 -17.33,1.333 -26,0 -0.5,-57.666 -0.67,-115.332 -0.5,-173 -20,0 -40,0 -60,0 -0.58,-8.272 0.08,-16.272 2,-24 z"
       id="path23" />
  </g>
  <g
     id="g24"
     transform="matrix(0.0224359,0,0,0.02850627,0.01121795,0.01425314)">
    <path
       style="opacity:0.83"
       fill="#fefffe"
       d="m 2483.5,346.5 c 6.67,-0.166 13.34,0 20,0.5 1.27,0.309 2.43,0.809 3.5,1.5 0.5,25.998 0.67,51.998 0.5,78 32,0 64,0 96,0 -0.17,-26.002 0,-52.002 0.5,-78 0.5,-0.5 1,-1 1.5,-1.5 3.5,-0.167 7,-0.333 10.5,-0.5 4.28,-0.101 8.45,0.399 12.5,1.5 0.66,32.596 1,65.263 1,98 0,32.737 -0.34,65.404 -1,98 -8.25,0.815 -16.41,0.648 -24.5,-0.5 -0.5,-31.332 -0.67,-62.665 -0.5,-94 -32,0 -64,0 -96,0 0.17,31.335 0,62.668 -0.5,94 -9,1.333 -18,1.333 -27,0 -0.67,-65 -0.67,-130 0,-195 1.3,-0.585 2.47,-1.251 3.5,-2 z"
       id="path24" />
  </g>
  <g
     id="g25"
     transform="matrix(0.0224359,0,0,0.02850627,0.01121795,0.01425314)">
    <path
       style="opacity:0.818"
       fill="#fefffe"
       d="m 2754.5,346.5 c 39.7,-0.316 79.36,0.018 119,1 0,7.667 0,15.333 0,23 -32,0 -64,0 -96,0 0,20 0,40 0,60 28,-0.167 56,0 84,0.5 1.33,7.667 1.33,15.333 0,23 -28,0.5 -56,0.667 -84,0.5 0,22.333 0,44.667 0,67 32.91,-0.329 65.74,0.004 98.5,1 0.81,7.247 0.65,14.414 -0.5,21.5 -41.24,0.83 -82.4,0.663 -123.5,-0.5 -0.67,-65 -0.67,-130 0,-195 0.99,-0.566 1.83,-1.233 2.5,-2 z"
       id="path25" />
  </g>
  <g
     id="g26"
     transform="matrix(0.0224359,0,0,0.02850627,0.01121795,0.01425314)">
    <path
       style="opacity:0.815"
       fill="#fefefe"
       d="m 3119.5,538.5 c 0,1.667 0,3.333 0,5 -8.61,1.302 -17.27,1.302 -26,0 -7.33,-21.612 -14.83,-43.279 -22.5,-65 -2.53,-5.227 -5.7,-10.061 -9.5,-14.5 -3.52,-2.06 -7.19,-3.727 -11,-5 -13.97,-1.262 -27.97,-1.762 -42,-1.5 0.17,27.669 0,55.335 -0.5,83 -0.31,1.266 -0.81,2.433 -1.5,3.5 -8.58,0.816 -17.08,0.649 -25.5,-0.5 -0.83,-65.336 -0.67,-130.669 0.5,-196 26.62,-1.157 53.29,-1.324 80,-0.5 15.95,0.976 29.45,7.142 40.5,18.5 9.75,14.45 13.08,30.45 10,48 -1.13,6.851 -3.63,13.185 -7.5,19 -6.99,8.834 -15.99,14.668 -27,17.5 8.35,4.353 14.69,10.686 19,19 8.38,23.036 16.04,46.203 23,69.5 z m -111,-168 c 14.34,-0.167 28.67,0 43,0.5 27.52,1.867 38.35,16.367 32.5,43.5 -3.11,8.448 -8.95,14.282 -17.5,17.5 -19.29,1.436 -38.62,1.936 -58,1.5 0,-21 0,-42 0,-63 z"
       id="path26" />
  </g>
  <g
     id="g27"
     transform="matrix(0.0224359,0,0,0.02850627,0.01121795,0.01425314)">
    <path
       style="opacity:0.826"
       fill="#fefefe"
       d="m 1690.5,348.5 c 8.34,-0.166 16.67,0 25,0.5 0.5,0.5 1,1 1.5,1.5 10.58,51.422 22.25,102.755 35,154 13.54,-48.946 26.87,-97.946 40,-147 0.8,-3.043 1.96,-5.876 3.5,-8.5 8,-0.667 16,-0.667 24,0 12.05,41.228 23.21,82.728 33.5,124.5 3.17,10.346 6.51,20.68 10,31 11.54,-50.859 23.21,-101.859 35,-153 0.37,-0.916 0.87,-1.75 1.5,-2.5 8.25,-0.815 16.41,-0.648 24.5,0.5 0.11,3.333 -0.22,6.666 -1,10 -4,18.001 -8,36.001 -12,54 -10.16,43.757 -20.66,87.257 -31.5,130.5 -10.67,0.667 -21.33,0.667 -32,0 -0.5,-0.5 -1,-1 -1.5,-1.5 -10.57,-38.371 -20.91,-76.705 -31,-115 -3.18,-7.373 -5.51,-15.04 -7,-23 -0.41,-0.457 -0.91,-0.791 -1.5,-1 -12.74,46.969 -25.74,93.636 -39,140 -11.23,1.32 -22.39,1.32 -33.5,0 -2.68,-10.016 -5.35,-20.016 -8,-30 -11.13,-54.267 -23.3,-107.934 -36.5,-161 0.12,-1.425 0.46,-2.758 1,-4 z"
       id="path27" />
  </g>
  <g
     id="g28"
     transform="matrix(0.0224359,0,0,0.02850627,0.01121795,0.01425314)">
    <path
       style="opacity:0.953"
       fill="#1c72b6"
       d="m 816.5,347.5 c 30.69,-0.409 61.357,0.091 92,1.5 25.447,5.615 38.78,21.448 40,47.5 -1.153,18.327 -9.82,31.66 -26,40 30.092,10.307 42.592,31.307 37.5,63 -5.049,25.715 -20.549,40.549 -46.5,44.5 -32.572,0.829 -65.072,0.662 -97.5,-0.5 -0.829,-65.404 -0.663,-130.737 0.5,-196 z m 27,23 c 15.67,-0.167 31.337,0 47,0.5 25.31,2.069 34.81,15.569 28.5,40.5 -2.956,6.777 -7.79,11.61 -14.5,14.5 -20.288,1.44 -40.621,1.94 -61,1.5 0,-19 0,-38 0,-57 z m 0,81 c 21.358,-0.346 42.691,0.154 64,1.5 17.91,4.248 26.243,15.582 25,34 0.426,17.892 -7.907,29.225 -25,34 -21.331,0.5 -42.664,0.667 -64,0.5 0,-23.333 0,-46.667 0,-70 z"
       id="path28" />
  </g>
  <g
     id="g29"
     transform="matrix(0.0224359,0,0,0.02850627,0.01121795,0.01425314)">
    <path
       style="opacity:0.936"
       fill="#1b73b6"
       d="m 1068.5,347.5 c 40.33,-0.167 80.67,0 121,0.5 0.63,0.75 1.13,1.584 1.5,2.5 0.79,6.385 0.63,12.718 -0.5,19 -31.99,1 -63.99,1.333 -96,1 0,20 0,40 0,60 27.67,-0.167 55.34,0 83,0.5 1.33,7.667 1.33,15.333 0,23 -27.66,0.5 -55.33,0.667 -83,0.5 0,22.333 0,44.667 0,67 32.57,-0.329 65.07,0.004 97.5,1 0.81,7.247 0.65,14.414 -0.5,21.5 -41.24,0.83 -82.4,0.663 -123.5,-0.5 -0.83,-65.404 -0.66,-130.737 0.5,-196 z"
       id="path29" />
  </g>
  <g
     id="g30"
     transform="matrix(0.0224359,0,0,0.02850627,0.01121795,0.01425314)">
    <path
       style="opacity:0.921"
       fill="#1b72b7"
       d="m 1298.5,348.5 c 8.33,0 16.67,0 25,0 0,57.667 0,115.333 0,173 30.91,-0.329 61.74,0.004 92.5,1 0.81,7.247 0.65,14.414 -0.5,21.5 -39.24,0.83 -78.4,0.663 -117.5,-0.5 -0.83,-65.07 -0.66,-130.07 0.5,-195 z"
       id="path30" />
  </g>
  <g
     id="g31"
     transform="matrix(0.0224359,0,0,0.02850627,0.01121795,0.01425314)">
    <path
       style="opacity:0.922"
       fill="#1b73b7"
       d="m 1542.5,349.5 c 0,57.667 0,115.333 0,173 31.06,-0.655 61.89,0.012 92.5,2 0.46,-0.594 0.63,-1.261 0.5,-2 1.33,7.068 1.33,14.235 0,21.5 -39.33,0.5 -78.67,0.667 -118,0.5 0,-65.333 0,-130.667 0,-196 8.52,-0.326 16.85,0.007 25,1 z"
       id="path31" />
  </g>
  <g
     id="g32"
     transform="matrix(0.0224359,0,0,0.02850627,0.01121795,0.01425314)">
    <path
       style="opacity:0.039"
       fill="#1565b3"
       d="m 1542.5,349.5 c 1,57.164 1.33,114.498 1,172 30.84,-0.331 61.5,0.002 92,1 0.13,0.739 -0.04,1.406 -0.5,2 -30.61,-1.988 -61.44,-2.655 -92.5,-2 0,-57.667 0,-115.333 0,-173 z"
       id="path32" />
  </g>
  <g
     id="g33"
     transform="matrix(0.0224359,0,0,0.02850627,0.01121795,0.01425314)">
    <path
       style="opacity:0.135"
       fill="#9fc2d2"
       d="m 342.5,501.5 c 0.561,-38.341 -0.106,-76.674 -2,-115 -0.667,-0.333 -1.333,-0.667 -2,-1 -0.41,-6.791 -1.576,-13.458 -3.5,-20 -0.499,-4.989 -0.666,-9.989 -0.5,-15 0.814,-2.131 1.314,-4.464 1.5,-7 1.46,2.988 2.794,5.988 4,9 0.453,6.67 0.953,13.337 1.5,20 0.126,3.37 -0.54,6.537 -2,9.5 0.72,2.122 1.887,2.622 3.5,1.5 0.251,7.496 0.084,14.996 -0.5,22.5 1.548,14.338 2.215,28.838 2,43.5 0.126,17.523 -0.541,34.856 -2,52 z"
       id="path33" />
  </g>
  <g
     id="g34"
     transform="matrix(0.0224359,0,0,0.02850627,0.01121795,0.01425314)">
    <path
       style="opacity:0.02"
       fill="#446262"
       d="m 338.5,385.5 c 0.667,0.333 1.333,0.667 2,1 0.31,40.024 -0.023,80.024 -1,120 -0.999,-40.163 -1.332,-80.497 -1,-121 z"
       id="path34" />
  </g>
  <g
     id="g35"
     transform="matrix(0.0224359,0,0,0.02850627,0.01121795,0.01425314)">
    <path
       style="opacity:0.043"
       fill="#a7cece"
       d="m 340.5,386.5 c 1.894,38.326 2.561,76.659 2,115 0.317,4.202 -0.017,8.202 -1,12 0.16,-1.699 -0.006,-3.366 -0.5,-5 -0.198,1.882 -0.698,3.548 -1.5,5 0,-2.333 0,-4.667 0,-7 0.977,-39.976 1.31,-79.976 1,-120 z"
       id="path35" />
  </g>
  <g
     id="g36"
     transform="matrix(0.0224359,0,0,0.02850627,0.01121795,0.01425314)">
    <path
       style="opacity:0.071"
       fill="#a2abab"
       d="m 314.5,355.5 c 0.928,2.954 1.761,5.954 2.5,9 0.5,12.329 0.667,24.662 0.5,37 -0.979,-1.265 -1.979,-2.599 -3,-4 -2.202,-14.286 -2.869,-28.62 -2,-43 0.683,0.363 1.35,0.696 2,1 z"
       id="path36" />
  </g>
  <g
     id="g37"
     transform="matrix(0.0224359,0,0,0.02850627,0.01121795,0.01425314)">
    <path
       style="opacity:0.286"
       fill="#5c5c5c"
       d="m 274.5,205.5 c 8.099,12.921 14.099,26.921 18,42 -1.359,-0.507 -2.359,-1.507 -3,-3 -0.333,1.5 -0.667,3 -1,4.5 2.203,9.349 4.036,18.849 5.5,28.5 1.122,1.92 1.956,3.92 2.5,6 1,0 2,0 3,0 0,-1.667 0,-3.333 0,-5 4.661,24.155 9.327,48.489 14,73 -1.917,-0.616 -3.084,-1.95 -3.5,-4 -0.167,4.833 -0.333,9.667 -0.5,14.5 2.884,46.787 4.884,93.453 6,140 -1.359,1.204 -2.359,2.704 -3,4.5 -0.904,9.483 -1.571,18.983 -2,28.5 -2.068,10.901 -3.902,21.734 -5.5,32.5 -0.667,5.667 -0.667,11.333 0,17 0.671,-0.752 1.504,-1.086 2.5,-1 -0.901,8.739 -2.234,17.406 -4,26 -0.904,0.709 -1.237,1.709 -1,3 -1,0 -2,0 -3,0 -0.464,-2.636 -0.797,-5.303 -1,-8 1.949,-4.84 2.616,-9.84 2,-15 0.11,-1.874 -0.556,-3.374 -2,-4.5 1.404,-7.478 2.904,-14.978 4.5,-22.5 0.684,-14.17 2.017,-28.17 4,-42 1.872,-35.79 2.872,-71.79 3,-108 -2.167,-39.001 -7,-77.668 -14.5,-116 0.051,-2.723 0.384,-5.39 1,-8 -0.936,-1.474 -2.27,-2.474 -4,-3 -1.18,-13.231 -3.513,-26.231 -7,-39 -2.016,-6.928 -4.349,-13.761 -7,-20.5 -5.408,-5.722 -7.741,-12.556 -7,-20.5 1,0 2,0 3,0 z"
       id="path37" />
  </g>
  <g
     id="g38"
     transform="matrix(0.0224359,0,0,0.02850627,0.01121795,0.01425314)">
    <path
       style="opacity:0.19"
       fill="#666968"
       d="m 8.5,420.5 c -3.51263,-9.939 -6.51263,-19.939 -9,-30 0,-3 0,-6 0,-9 0.664619,-1.869 1.331285,-3.869 2,-6 5.49815,10.989 8.6648,22.656 9.5,35 1.3927,3.062 2.5594,6.228 3.5,9.5 -1.9558,1.612 -3.9558,1.778 -6,0.5 z"
       id="path38" />
  </g>
  <g
     id="g39"
     transform="matrix(0.0224359,0,0,0.02850627,0.01121795,0.01425314)">
    <path
       style="opacity:0.455"
       fill="#4680a9"
       d="m 517.5,368.5 c -6.453,9.124 -14.453,16.457 -24,22 0.5,0.333 1,0.667 1.5,1 5.119,-4.159 10.619,-4.826 16.5,-2 0.049,2.599 1.049,4.766 3,6.5 -2.599,0.769 -5.099,0.602 -7.5,-0.5 -6.815,2.118 -13.815,3.451 -21,4 -5.497,-2.262 -5.997,-5.428 -1.5,-9.5 1.813,0.046 3.479,-0.12 5,-0.5 -0.477,-0.978 -1.143,-1.811 -2,-2.5 1.641,-1.129 2.641,-2.629 3,-4.5 2.432,-1.25 4.766,-2.75 7,-4.5 5.109,-5.834 10.442,-10.5 16,-14 2.086,-0.627 2.419,-0.127 1,1.5 1.27,0.788 2.27,1.788 3,3 z"
       id="path39" />
  </g>
  <g
     id="g40"
     transform="matrix(0.0224359,0,0,0.02850627,0.01121795,0.01425314)">
    <path
       style="opacity:0.451"
       fill="#74a4c2"
       d="m 340.5,337.5 c 0,0.333 0,0.667 0,1 -0.166,4.346 10e-4,8.679 0.5,13 1.571,10.288 3.238,20.621 5,31 1.511,36.987 1.844,73.987 1,111 -1.698,3.11 -2.698,6.443 -3,10 0.145,10.052 -0.688,19.719 -2.5,29 0,-6.333 0,-12.667 0,-19 0.983,-3.798 1.317,-7.798 1,-12 1.459,-17.144 2.126,-34.477 2,-52 0.215,-14.662 -0.452,-29.162 -2,-43.5 0.584,-7.504 0.751,-15.004 0.5,-22.5 -1.613,1.122 -2.78,0.622 -3.5,-1.5 1.46,-2.963 2.126,-6.13 2,-9.5 -0.547,-6.663 -1.047,-13.33 -1.5,-20 -1.206,-3.012 -2.54,-6.012 -4,-9 -0.186,2.536 -0.686,4.869 -1.5,7 0.049,-12.294 -1.784,-24.294 -5.5,-36 -0.498,-2.982 -0.665,-5.982 -0.5,-9 0.983,-3.798 1.317,-7.798 1,-12 0.617,-0.111 1.117,-0.444 1.5,-1 0.019,2.808 1.019,5.141 3,7 0.279,8.561 1.779,16.894 4.5,25 -0.624,4.545 0.043,8.878 2,13 z"
       id="path40" />
  </g>
  <g
     id="g41"
     transform="matrix(0.0224359,0,0,0.02850627,0.01121795,0.01425314)">
    <path
       style="opacity:0.525"
       fill="#4a8ab4"
       d="m 340.5,338.5 c 4.315,15.563 6.815,31.563 7.5,48 1,3 2,6 3,9 0.667,35.333 0.667,70.667 0,106 -1.974,8.534 -2.974,17.201 -3,26 -0.833,0.833 -1.667,1.667 -2.5,2.5 0.584,5.073 0.584,10.24 0,15.5 -1.992,12.603 -3.492,25.27 -4.5,38 -1.494,4.724 -2.661,9.391 -3.5,14 -2.159,13.164 -3.993,26.498 -5.5,40 -0.383,0.556 -0.883,0.889 -1.5,1 -0.268,-10.289 0.732,-20.456 3,-30.5 -0.387,-1.823 -0.721,-3.657 -1,-5.5 4.421,-20.432 7.755,-41.098 10,-62 -0.007,-1.869 -0.34,-3.536 -1,-5 -1.125,-1.152 -1.125,-2.152 0,-3 1.812,-9.281 2.645,-18.948 2.5,-29 0.302,-3.557 1.302,-6.89 3,-10 0.844,-37.013 0.511,-74.013 -1,-111 -1.762,-10.379 -3.429,-20.712 -5,-31 -0.499,-4.321 -0.666,-8.654 -0.5,-13 z"
       id="path41" />
  </g>
  <g
     id="g42"
     transform="matrix(0.0224359,0,0,0.02850627,0.01121795,0.01425314)">
    <path
       style="opacity:0.943"
       fill="#4d4d4f"
       d="m 170.5,477.5 c -0.996,0.086 -1.829,-0.248 -2.5,-1 -0.498,-2.982 -0.665,-5.982 -0.5,-9 -1,0 -2,0 -3,0 0,-2 0,-4 0,-6 -1,0 -2,0 -3,0 0,-3 0,-6 0,-9 -1,0 -2,0 -3,0 0.165,-3.018 -0.002,-6.018 -0.5,-9 -1.158,-0.498 -1.991,-1.331 -2.5,-2.5 -0.718,-3.461 -1.218,-6.961 -1.5,-10.5 -2.016,-1.455 -2.849,-3.455 -2.5,-6 -1,0 -2,0 -3,0 -0.349,2.545 0.484,4.545 2.5,6 0.5,11.328 0.667,22.662 0.5,34 1,0 2,0 3,0 0,8.333 0,16.667 0,25 1.679,-0.215 2.679,0.452 3,2 -0.649,6.443 -1.816,6.443 -3.5,0 -2.316,-18.841 -5.649,-37.508 -10,-56 -0.91,-7.445 -0.41,-14.779 1.5,-22 4.839,-1.668 8.672,-0.335 11.5,4 1.69,5.915 2.69,11.915 3,18 1,1.333 2,2.667 3,4 0.403,3.208 1.403,6.208 3,9 0.091,6.274 1.425,12.274 4,18 0.499,3.652 0.665,7.318 0.5,11 z"
       id="path42" />
  </g>
  <g
     id="g43"
     transform="matrix(0.0224359,0,0,0.02850627,0.01121795,0.01425314)">
    <path
       style="opacity:0.00799997"
       fill="#868686"
       d="m 322.5,438.5 c 1.333,8.333 1.333,16.667 0,25 -0.106,-8.286 -0.106,-16.62 0,-25 z"
       id="path43" />
  </g>
  <g
     id="g44"
     transform="matrix(0.0224359,0,0,0.02850627,0.01121795,0.01425314)">
    <path
       style="opacity:0.18"
       fill="#c0d0dc"
       d="m 319.5,427.5 c 1.132,3.519 2.132,7.186 3,11 -0.106,8.38 -0.106,16.714 0,25 -1.108,4.314 -2.108,8.647 -3,13 -1,0 -2,0 -3,0 -0.268,-2.619 0.065,-5.119 1,-7.5 -0.727,-1.399 -1.227,-2.899 -1.5,-4.5 -0.667,-8.667 -0.667,-17.333 0,-26 0.402,-1.372 0.902,-2.705 1.5,-4 -1.02,-1.932 -1.187,-3.932 -0.5,-6 1.461,1.383 2.294,1.049 2.5,-1 z"
       id="path44" />
  </g>
  <g
     id="g45"
     transform="matrix(0.0224359,0,0,0.02850627,0.01121795,0.01425314)">
    <path
       style="opacity:0.085"
       fill="#6d7171"
       d="m 29.5,496.5 c -4.0222,-11.292 -7.8556,-22.625 -11.5,-34 -2.1765,-12.382 -4.6765,-24.716 -7.5,-37 0,-1 0,-2 0,-3 1.6439,-0.214 3.1439,0.12 4.5,1 0.3355,4.189 0.8355,8.356 1.5,12.5 2.7423,4.311 4.2423,9.144 4.5,14.5 2.9137,7.878 5.5803,15.878 8,24 1.0774,5.89 2.244,11.723 3.5,17.5 -0.3333,0.333 -0.6667,0.667 -1,1 2.2508,2.013 1.5841,3.18 -2,3.5 z"
       id="path45" />
  </g>
  <g
     id="g46"
     transform="matrix(0.0224359,0,0,0.02850627,0.01121795,0.01425314)">
    <path
       style="opacity:0.188"
       fill="#9abacb"
       d="m 532.5,413.5 c 0.768,0.763 1.268,1.763 1.5,3 0.667,5.667 0.667,11.333 0,17 -2.414,9.243 -4.414,18.577 -6,28 -2.057,5.781 -4.39,11.447 -7,17 -8.993,29.324 -17.993,58.657 -27,88 -4.772,11.341 -10.105,22.341 -16,33 -2.495,9.287 -4.828,18.62 -7,28 -7.174,11.678 -13.841,23.678 -20,36 -2.364,3.19 -4.864,6.19 -7.5,9 -0.996,-0.086 -1.829,0.248 -2.5,1 0.09,-4.925 2.09,-8.925 6,-12 2.047,-4.359 4.047,-8.693 6,-13 4.458,-4.365 6.792,-9.699 7,-16 1.333,-2 2.667,-4 4,-6 2.614,-8.672 5.781,-17.005 9.5,-25 3.148,-0.64 3.481,-1.64 1,-3 3.731,-5.026 5.564,-10.692 5.5,-17 0.667,-0.667 1.333,-1.333 2,-2 1.919,-12.138 6.252,-23.138 13,-33 2.255,-6.448 3.921,-13.114 5,-20 3.175,-5.524 4.842,-11.524 5,-18 5.407,-11.394 8.907,-23.394 10.5,-36 0.776,-7.161 2.276,-14.161 4.5,-21 4.078,-6.984 6.411,-14.651 7,-23 2.742,-4.684 4.575,-9.684 5.5,-15 z"
       id="path46" />
  </g>
  <g
     id="g47"
     transform="matrix(0.0224359,0,0,0.02850627,0.01121795,0.01425314)">
    <path
       style="opacity:0.224"
       fill="#85898a"
       d="m 313.5,351.5 c 0.734,1.208 1.067,2.541 1,4 -0.65,-0.304 -1.317,-0.637 -2,-1 -0.869,14.38 -0.202,28.714 2,43 1.021,1.401 2.021,2.735 3,4 0.246,8.705 0.913,17.372 2,26 -0.206,2.049 -1.039,2.383 -2.5,1 -0.687,2.068 -0.52,4.068 0.5,6 -0.598,1.295 -1.098,2.628 -1.5,4 -0.667,8.667 -0.667,17.333 0,26 0.273,1.601 0.773,3.101 1.5,4.5 -0.935,2.381 -1.268,4.881 -1,7.5 1,0 2,0 3,0 -1.072,19.617 -1.905,39.284 -2.5,59 -3.62,11.014 -5.62,22.347 -6,34 -0.547,4.853 -1.713,9.52 -3.5,14 -0.996,-0.086 -1.829,0.248 -2.5,1 -0.667,-5.667 -0.667,-11.333 0,-17 1.598,-10.766 3.432,-21.599 5.5,-32.5 0.429,-9.517 1.096,-19.017 2,-28.5 0.641,-1.796 1.641,-3.296 3,-4.5 -1.116,-46.547 -3.116,-93.213 -6,-140 0.167,-4.833 0.333,-9.667 0.5,-14.5 0.416,2.05 1.583,3.384 3.5,4 z"
       id="path47" />
  </g>
  <g
     id="g48"
     transform="matrix(0.0224359,0,0,0.02850627,0.01121795,0.01425314)">
    <path
       style="opacity:0.632"
       fill="#4183b1"
       d="m 530.5,408.5 c 1.713,1.135 2.38,2.802 2,5 -0.925,5.316 -2.758,10.316 -5.5,15 -0.589,8.349 -2.922,16.016 -7,23 -2.224,6.839 -3.724,13.839 -4.5,21 -2.572,6.392 -4.572,13.058 -6,20 -1,0 -2,0 -3,0 -0.381,4.737 -1.214,9.404 -2.5,14 -7.162,17.819 -13.328,35.985 -18.5,54.5 -0.336,1.03 -1.003,1.53 -2,1.5 0.906,-2.936 1.572,-5.936 2,-9 4.707,-16.195 10.207,-32.195 16.5,-48 3.211,-13.066 6.545,-26.066 10,-39 5.37,-10.692 8.87,-22.025 10.5,-34 0.368,-1.41 1.201,-2.41 2.5,-3 0.499,-5.991 0.666,-11.991 0.5,-18 1.175,0.219 2.175,-0.114 3,-1 -1.298,-2.702 -0.631,-3.369 2,-2 z"
       id="path48" />
  </g>
  <g
     id="g49"
     transform="matrix(0.0224359,0,0,0.02850627,0.01121795,0.01425314)">
    <path
       style="opacity:0.978"
       fill="#1f73b1"
       d="m 459.5,136.5 c 0.667,0 1.333,0 2,0 1.476,2 3.309,3.667 5.5,5 0.347,3.616 1.514,4.283 3.5,2 1.206,3.572 1.873,7.238 2,11 0.928,2.63 1.928,5.296 3,8 -0.18,1.054 -0.513,2.054 -1,3 2.059,1.451 3.059,3.451 3,6 1.322,-0.17 2.489,0.163 3.5,1 1.092,2.888 2.592,5.555 4.5,8 1.532,2.956 1.865,5.956 1,9 3.427,2.855 5.261,6.521 5.5,11 2.998,2.315 5.165,5.148 6.5,8.5 -1.482,2.592 -1.148,4.925 1,7 -1,1 -2,2 -3,3 1.765,3.607 3.098,7.441 4,11.5 0.951,-0.826 1.951,-0.992 3,-0.5 -1.333,1.333 -2.667,2.667 -4,4 0.667,0.667 1.333,1.333 2,2 -1.473,0.71 -2.14,1.876 -2,3.5 1,0 2,0 3,0 -0.386,6.144 1.781,11.144 6.5,15 0.888,4.945 2.388,8.945 4.5,12 -1.876,1.548 -2.876,3.548 -3,6 3.482,-0.569 6.815,-0.569 10,0 0,0.333 0,0.667 0,1 -0.617,0.111 -1.117,0.444 -1.5,1 -0.167,21.674 -0.667,43.341 -1.5,65 0.301,-19.832 -0.032,-39.832 -1,-60 -0.692,-0.525 -1.192,-1.192 -1.5,-2 -0.333,19.667 -0.667,39.333 -1,59 -0.304,1.941 -1.137,3.607 -2.5,5 0.593,1.882 1.26,3.715 2,5.5 -3.672,1.365 -4.006,3.365 -1,6 -2.905,4.487 -5.905,8.987 -9,13.5 -2.626,0.793 -4.46,2.46 -5.5,5 -0.333,-0.333 -0.667,-0.667 -1,-1 -2.185,1.17 -4.351,2.336 -6.5,3.5 0.513,2.718 0.513,5.551 0,8.5 -0.359,1.871 -1.359,3.371 -3,4.5 0.857,0.689 1.523,1.522 2,2.5 -1.521,0.38 -3.187,0.546 -5,0.5 -4.497,4.072 -3.997,7.238 1.5,9.5 7.185,-0.549 14.185,-1.882 21,-4 2.401,1.102 4.901,1.269 7.5,0.5 -1.951,-1.734 -2.951,-3.901 -3,-6.5 5.39,3.21 10.39,7.044 15,11.5 1.486,2.475 2.819,4.975 4,7.5 -2.631,-1.369 -3.298,-0.702 -2,2 -0.825,0.886 -1.825,1.219 -3,1 0.166,6.009 -10e-4,12.009 -0.5,18 -1.299,0.59 -2.132,1.59 -2.5,3 -1.63,11.975 -5.13,23.308 -10.5,34 -3.455,12.934 -6.789,25.934 -10,39 -6.293,15.805 -11.793,31.805 -16.5,48 -0.57,3.245 -2.57,5.078 -6,5.5 -0.376,1.84 -1.543,3.673 -3.5,5.5 -0.333,2.333 -0.667,4.667 -1,7 -1.666,-0.84 -1.833,-0.34 -0.5,1.5 -2.483,1.929 -3.149,4.262 -2,7 -3.631,3.285 -5.965,7.285 -7,12 0.448,3.469 -0.885,6.469 -4,9 2.208,2.263 1.541,3.929 -2,5 1.231,1.183 1.231,2.349 0,3.5 -1.363,-1.379 -2.363,-1.213 -3,0.5 -0.563,2.727 -1.23,5.393 -2,8 0.333,0.333 0.667,0.667 1,1 -1.851,1.684 -3.518,3.517 -5,5.5 2.422,1.548 2.422,3.214 0,5 1.496,2.451 0.829,4.284 -2,5.5 1.394,0.956 2.061,2.289 2,4 -2.147,3.603 -3.814,7.436 -5,11.5 -4.041,0.002 -4.708,1.335 -2,4 -0.774,1.211 -1.607,1.211 -2.5,0 -4.662,3.541 -8.662,7.207 -12,11 -0.72,1.612 -0.554,3.112 0.5,4.5 -2.189,0.677 -2.522,1.844 -1,3.5 -1.844,3.717 -2.511,7.717 -2,12 -1.333,0 -2.667,0 -4,0 -0.579,5.413 -3.579,8.246 -9,8.5 -4.401,5.609 -9.067,10.942 -14,16 -2.994,0.406 -5.161,1.906 -6.5,4.5 -0.333,-0.333 -0.667,-0.667 -1,-1 -0.333,1.333 -0.667,2.667 -1,4 -2.403,1.281 -4.237,3.114 -5.5,5.5 -0.948,0.483 -1.948,0.649 -3,0.5 0.188,1.603 -0.312,2.937 -1.5,4 -0.333,-0.333 -0.667,-0.667 -1,-1 -3.103,2.033 -6.603,3.2 -10.5,3.5 -1.5,0.833 -2.667,2 -3.5,3.5 -1.268,-0.116 -2.602,-0.449 -4,-1 -3.366,3.103 -7.199,4.103 -11.5,3 -8.268,3.194 -15.435,1.861 -21.5,-4 -0.851,-3.542 -0.351,-6.875 1.5,-10 -0.547,-2.878 -0.88,-5.711 -1,-8.5 1.746,-3.052 2.08,-6.218 1,-9.5 0.324,-2.826 1.324,-5.326 3,-7.5 -0.333,-0.333 -0.667,-0.667 -1,-1 0.667,-9.667 1.333,-19.333 2,-29 -2.919,-4.953 -2.585,-9.619 1,-14 -0.925,-2.038 -0.925,-4.371 0,-7 -0.403,-1.473 -1.07,-2.806 -2,-4 2.633,-14.285 3.966,-28.785 4,-43.5 0.839,-4.609 2.006,-9.276 3.5,-14 1.008,-12.73 2.508,-25.397 4.5,-38 0.584,-5.26 0.584,-10.427 0,-15.5 0.833,-0.833 1.667,-1.667 2.5,-2.5 0.026,-8.799 1.026,-17.466 3,-26 0.667,-35.333 0.667,-70.667 0,-106 -1,-3 -2,-6 -3,-9 -0.685,-16.437 -3.185,-32.437 -7.5,-48 0,-0.333 0,-0.667 0,-1 -2.952,-15.161 -4.619,-30.494 -5,-46 -2.165,0.384 -3.832,-0.283 -5,-2 2.775,-5.727 5.441,-11.393 8,-17 1,0 2,0 3,0 5.729,-7.869 9.062,-16.536 10,-26 4.058,-6.371 8.058,-12.705 12,-19 0.761,0.891 1.761,1.558 3,2 2.32,-1.262 4.154,-0.595 5.5,2 0.953,-1.955 2.287,-3.622 4,-5 0.483,-0.948 0.649,-1.948 0.5,-3 1,0 2,0 3,0 3.407,-5.755 7.574,-11.088 12.5,-16 0.273,-1.601 0.773,-3.101 1.5,-4.5 -0.333,-0.333 -0.667,-0.667 -1,-1 0.916,-0.374 1.75,-0.874 2.5,-1.5 1.439,1.514 2.939,1.847 4.5,1 -1.333,-1.12 -1.833,-2.453 -1.5,-4 2.179,-0.616 4.012,-1.783 5.5,-3.5 -2.295,-0.984 -1.961,-1.817 1,-2.5 1.735,-4.067 4.735,-6.733 9,-8 0.623,-2.211 1.623,-4.211 3,-6 2.654,-1.822 5.154,-3.822 7.5,-6 0.456,-1.244 -0.044,-2.077 -1.5,-2.5 1.488,-1.717 3.321,-2.884 5.5,-3.5 0.579,-2.149 1.079,-4.315 1.5,-6.5 -0.927,-3.172 -0.094,-6.006 2.5,-8.5 0.441,6.978 2.608,7.645 6.5,2 0.586,0.209 1.086,0.543 1.5,1 1.154,-1.243 2.488,-2.243 4,-3 0.49,-1.293 0.657,-2.627 0.5,-4 3.635,-0.156 3.968,-1.322 1,-3.5 1.581,-0.707 3.081,-1.54 4.5,-2.5 0.971,0.698 2.137,0.698 3.5,0 2.065,-1.357 4.065,-2.69 6,-4 z"
       id="path49" />
  </g>
  <g
     id="g50"
     transform="matrix(0.0224359,0,0,0.02850627,0.01121795,0.01425314)">
    <path
       style="opacity:0.995"
       fill="#1a74b9"
       d="m 457.5,154.5 c 2.779,1.117 3.112,2.283 1,3.5 1.333,0.667 1.333,1.333 0,2 3.1,3.402 6.767,6.068 11,8 -2.107,1.264 -3.107,3.097 -3,5.5 1.644,0.214 3.144,-0.12 4.5,-1 0.333,1.547 -0.167,2.88 -1.5,4 2.111,1.348 3.945,1.015 5.5,-1 -0.919,3.348 -1.752,6.848 -2.5,10.5 0.5,0.5 1,1 1.5,1.5 1.333,-1.333 2.667,-1.333 4,0 1.309,2.186 1.476,4.353 0.5,6.5 1.601,0.273 3.101,0.773 4.5,1.5 1.896,4.865 3.729,9.699 5.5,14.5 -1.394,1.739 -2.061,3.739 -2,6 2.817,13.748 4.817,27.581 6,41.5 2.138,0.203 3.805,1.203 5,3 0.653,3.775 1.653,7.442 3,11 -1.936,4.419 -1.103,8.086 2.5,11 0.859,23.022 0.526,46.022 -1,69 -1.751,1.99 -2.751,4.323 -3,7 -3.466,2.125 -5.633,5.125 -6.5,9 -3.661,-0.074 -4.328,0.926 -2,3 -4.737,4.782 -9.571,9.448 -14.5,14 -0.151,2.619 -0.985,4.953 -2.5,7 0.667,1.667 1.333,3.333 2,5 -2.382,3.293 -3.382,6.96 -3,11 3.946,-0.012 5.613,1.988 5,6 2.608,0.106 4.608,1.272 6,3.5 1.293,0.49 2.627,0.657 4,0.5 0,1.667 0,3.333 0,5 1,0 2,0 3,0 -0.219,1.175 0.114,2.175 1,3 4.193,1.881 8.027,4.214 11.5,7 0.667,8.667 0.667,17.333 0,26 -0.514,2.528 -1.68,4.695 -3.5,6.5 0.64,1.647 0.64,3.481 0,5.5 0.324,2.069 1.158,2.402 2.5,1 0.458,3.058 0.124,6.058 -1,9 -2.488,3.825 -5.321,6.658 -8.5,8.5 1.079,4.458 1.246,8.958 0.5,13.5 -1.583,1.702 -1.083,3.036 1.5,4 -3.266,4.034 -4.933,8.701 -5,14 0.525,0.692 1.192,1.192 2,1.5 -1.266,0.309 -2.433,0.809 -3.5,1.5 -1.604,4.013 -3.104,8.013 -4.5,12 0.333,0.667 0.667,1.333 1,2 -1.721,2.797 -3.887,5.131 -6.5,7 -2.635,-3.006 -4.635,-2.672 -6,1 -0.918,3.089 -2.085,6.089 -3.5,9 -0.234,3.55 -0.234,7.383 0,11.5 -0.167,0.5 -0.333,1 -0.5,1.5 -0.718,-0.951 -1.551,-1.117 -2.5,-0.5 0.844,4.306 1.344,8.806 1.5,13.5 -1.223,-2.485 -2.723,-2.652 -4.5,-0.5 1.507,0.837 2.007,2.004 1.5,3.5 -1,-0.333 -2,-0.667 -3,-1 -0.402,1.372 -0.902,2.705 -1.5,4 1.314,1.952 1.98,3.785 2,5.5 -2.198,-1.407 -4.532,-1.907 -7,-1.5 -1.172,0.419 -2.172,1.085 -3,2 -1.523,6.641 -3.857,12.974 -7,19 0.051,4.199 0.218,8.533 0.5,13 -2.316,1.022 -2.816,2.522 -1.5,4.5 -1.333,2.333 -2.667,4.667 -4,7 0.67,3.882 -0.663,7.215 -4,10 2.856,1.429 3.356,3.263 1.5,5.5 -1.775,-2.544 -3.608,-2.544 -5.5,0 -1.571,-0.809 -3.238,-1.143 -5,-1 0,1 0,2 0,3 -1,0 -2,0 -3,0 0,1.667 0,3.333 0,5 -1,0 -2,0 -3,0 0,3.333 0,6.667 0,10 -1.175,-0.219 -2.175,0.114 -3,1 -1.195,2.251 -2.195,4.585 -3,7 -1.633,2.003 -3.633,3.336 -6,4 -0.239,1.967 0.094,3.801 1,5.5 -1.467,1.098 -2.301,2.598 -2.5,4.5 -0.519,-1.016 -1.353,-1.682 -2.5,-2 -5.023,1.69 -8.356,5.023 -10,10 -3.04,0.875 -6.04,1.875 -9,3 -0.929,1.189 -1.262,2.522 -1,4 -1.333,0 -2.667,0 -4,0 -0.333,2 -0.667,4 -1,6 -3.088,-0.303 -4.754,1.03 -5,4 -1,0 -2,0 -3,0 0,1 0,2 0,3 -1.333,0 -2.667,0 -4,0 0,1 0,2 0,3 -1.667,0 -3.333,0 -5,0 0,1 0,2 0,3 -5.141,0.155 -10.141,-0.512 -15,-2 -0.612,-4.865 -1.945,-9.532 -4,-14 -1.264,-15.397 -1.764,-30.731 -1.5,-46 -0.358,-5.583 -1.525,-10.917 -3.5,-16 1.656,-3.16 1.323,-5.994 -1,-8.5 2.594,-2.072 2.594,-4.239 0,-6.5 0.59,-1.299 1.59,-2.132 3,-2.5 -0.667,-1 -1.333,-2 -2,-3 1.725,-0.865 3.392,-1.531 5,-2 -3.155,-0.981 -3.488,-2.315 -1,-4 -0.457,-0.414 -0.791,-0.914 -1,-1.5 1.666,-10.075 2.999,-20.241 4,-30.5 -0.457,-0.414 -0.791,-0.914 -1,-1.5 1.772,-0.77 2.772,-2.103 3,-4 -0.546,-1.635 -0.88,-3.301 -1,-5 1.175,0.219 2.175,-0.114 3,-1 -3.002,-6.974 -2.502,-13.641 1.5,-20 3.039,-0.515 5.206,-2.515 6.5,-6 -0.222,-1.555 -0.889,-2.889 -2,-4 0.346,-1.196 0.846,-1.196 1.5,0 2.408,-16.577 3.075,-33.244 2,-50 -0.718,0.951 -1.551,1.117 -2.5,0.5 1.333,-1.667 1.333,-3.333 0,-5 2.357,-7.309 4.023,-14.809 5,-22.5 0.871,-10.845 1.871,-21.678 3,-32.5 -1.275,-9.245 -1.275,-18.579 0,-28 -1.659,-6.476 -3.326,-12.976 -5,-19.5 -1.404,1.499 -2.07,1.166 -2,-1 1.594,-2.943 1.261,-5.61 -1,-8 1.711,-4.28 0.711,-7.78 -3,-10.5 0.727,-1.399 1.227,-2.899 1.5,-4.5 0.889,1.388 1.389,1.222 1.5,-0.5 -2.667,-2.333 -2.667,-4.667 0,-7 -0.259,-1.261 -0.926,-2.261 -2,-3 1.201,-0.903 2.035,-2.069 2.5,-3.5 0.5,-7.993 0.666,-15.993 0.5,-24 -1.644,-0.214 -3.144,0.12 -4.5,1 -0.498,-2.982 -0.665,-5.982 -0.5,-9 1.644,-0.214 3.144,0.12 4.5,1 0.667,-3.333 0.667,-6.667 0,-10 -1.297,1.284 -2.464,1.117 -3.5,-0.5 0.667,-0.333 1.333,-0.667 2,-1 -1.293,-0.49 -2.627,-0.657 -4,-0.5 -0.387,-5.314 0.279,-10.48 2,-15.5 -0.344,-1.365 -1.011,-2.532 -2,-3.5 1.598,-0.11 3.265,-0.443 5,-1 0.599,-3.474 1.932,-6.474 4,-9 1,0 2,0 3,0 0.773,-5.308 0.94,-10.641 0.5,-16 2.912,-1.865 3.078,-3.865 0.5,-6 0.998,-2.528 1.831,-2.528 2.5,0 1,-1.333 2,-1.333 3,0 0.667,-2 2,-3.333 4,-4 0.333,-1.333 0.667,-2.667 1,-4 2.129,1.363 2.629,1.029 1.5,-1 0.535,-1.771 1.369,-2.104 2.5,-1 0.731,-3.487 1.897,-6.82 3.5,-10 -1.237,-2 -0.903,-3.834 1,-5.5 -0.667,-0.667 -1.333,-1.333 -2,-2 1.333,-1 1.333,-2 0,-3 0.5,-0.5 1,-1 1.5,-1.5 0.333,1.667 0.667,3.333 1,5 -0.497,-4.394 1.336,-6.728 5.5,-7 0.17,-1.322 -0.163,-2.489 -1,-3.5 4.008,-2.619 8.008,-5.119 12,-7.5 1.353,-1.024 2.02,-2.357 2,-4 1.967,0.239 3.801,-0.094 5.5,-1 1.743,-4.851 4.076,-9.518 7,-14 2.719,0.944 5.552,1.277 8.5,1 0.76,-3.657 2.76,-6.324 6,-8 -0.209,-0.586 -0.543,-1.086 -1,-1.5 1.207,-3.406 1.707,-6.906 1.5,-10.5 -1.131,1.104 -1.965,0.771 -2.5,-1 1.017,-2.528 2.184,-2.528 3.5,0 1.171,-1.393 2.671,-2.227 4.5,-2.5 -0.667,-1.333 -1.667,-2.333 -3,-3 2.107,-1.264 3.107,-3.097 3,-5.5 2.403,0.107 4.236,-0.893 5.5,-3 0.368,1.41 1.201,2.41 2.5,3 3.418,-1.652 7.085,-2.485 11,-2.5 1.172,-0.419 2.172,-1.085 3,-2 -0.671,-0.986 -0.671,-2.153 0,-3.5 z"
       id="path50" />
  </g>
  <g
     id="g51"
     transform="matrix(0.0224359,0,0,0.02850627,0.01121795,0.01425314)">
    <path
       style="opacity:0.996"
       fill="#1974bc"
       d="m 454.5,342.5 c 2.333,0 4.667,0 7,0 0,4 0,8 0,12 -1.667,0 -3.333,0 -5,0 0,3 0,6 0,9 1.052,-0.149 2.052,0.017 3,0.5 -0.27,6.965 -0.604,14.132 -1,21.5 -1,0 -2,0 -3,0 0,2.333 0,4.667 0,7 2.458,-0.273 4.125,0.727 5,3 -2.313,0.773 -4.646,1.44 -7,2 -0.952,1.545 -1.285,3.212 -1,5 1.624,-0.14 2.79,0.527 3.5,2 0.497,2.31 0.663,4.643 0.5,7 1,0 2,0 3,0 0.277,2.948 -0.056,5.781 -1,8.5 1.293,0.49 2.627,0.657 4,0.5 0.17,1.322 -0.163,2.489 -1,3.5 2.171,1.174 3.171,3.007 3,5.5 2.333,0 4.667,0 7,0 -0.172,1.992 0.495,3.658 2,5 2.947,0.821 5.947,1.321 9,1.5 0.837,1.011 1.17,2.178 1,3.5 1,0 2,0 3,0 -0.079,2.166 -0.746,4.166 -2,6 0.419,1.172 1.085,2.172 2,3 -0.825,0.886 -1.825,1.219 -3,1 0.121,6.131 -0.546,12.131 -2,18 -1.333,0 -2.667,0 -4,0 0.308,2.424 -0.026,4.757 -1,7 -2.7,2.532 -5.2,5.199 -7.5,8 -1.854,8.586 -3.02,17.253 -3.5,26 1,0 2,0 3,0 -0.377,7.052 -1.711,13.886 -4,20.5 0.103,1.561 0.437,3.061 1,4.5 -2.37,2.552 -3.703,5.552 -4,9 -1,0 -2,0 -3,0 0,-1 0,-2 0,-3 -1.667,0 -3.333,0 -5,0 -1.023,2.893 -1.023,5.726 0,8.5 -2.413,2.638 -5.413,3.805 -9,3.5 -0.214,1.644 0.12,3.144 1,4.5 -0.808,1.706 -2.141,2.539 -4,2.5 0,1.333 0,2.667 0,4 -2.667,0 -5.333,0 -8,0 0.008,3.045 0.341,6.045 1,9 -1.333,0 -2.667,0 -4,0 -1.082,4.474 -2.415,8.808 -4,13 -2,0 -4,0 -6,0 -1.14,2.525 -1.807,5.192 -2,8 -1,0 -2,0 -3,0 0,1.333 0,2.667 0,4 -2.333,0 -4.667,0 -7,0 0.667,-3.333 1.333,-6.667 2,-10 -2.64,-0.053 -5.14,-0.72 -7.5,-2 -3.043,1.237 -4.21,3.57 -3.5,7 1.052,-0.149 2.052,0.017 3,0.5 -2.563,1.079 -5.229,1.579 -8,1.5 0.17,1.322 -0.163,2.489 -1,3.5 -3.324,2.248 -6.991,3.414 -11,3.5 -0.169,2.412 0.497,4.579 2,6.5 -0.532,2.02 -1.865,2.853 -4,2.5 -0.208,7.745 -0.542,15.578 -1,23.5 0.039,4.26 0.706,8.26 2,12 -1.42,1.53 -2.42,3.363 -3,5.5 -1.024,1.353 -2.357,2.02 -4,2 0,2 0,4 0,6 1.667,0 3.333,0 5,0 0.299,2.104 -0.034,4.104 -1,6 -1.679,-1.604 -3.679,-2.271 -6,-2 0,-2.333 0,-4.667 0,-7 -1.667,0 -3.333,0 -5,0 0,1 0,2 0,3 -1.333,0 -2.667,0 -4,0 0.157,-1.373 -0.01,-2.707 -0.5,-4 -3.095,-0.925 -4.928,-2.925 -5.5,-6 1.667,0 3.333,0 5,0 0.172,-1.992 -0.495,-3.658 -2,-5 0.742,-0.787 1.575,-1.453 2.5,-2 0.667,-3.333 0.667,-6.667 0,-10 -1.938,-1.36 -3.604,-1.027 -5,1 -0.483,-0.948 -0.649,-1.948 -0.5,-3 1.333,0 2.667,0 4,0 0.157,-1.373 -0.01,-2.707 -0.5,-4 -2.136,-1.878 -3.636,-4.211 -4.5,-7 -0.897,-5.717 -1.897,-11.384 -3,-17 1.333,0 2.667,0 4,0 0,-1.667 0,-3.333 0,-5 -7.525,0.15 -7.859,-1.517 -1,-5 0.481,-6.719 1.147,-11.385 2,-14 1.667,0 3.333,0 5,0 0,-1.667 0,-3.333 0,-5 -4,-0.667 -4,-1.333 0,-2 0.844,-5.707 1.844,-11.373 3,-17 1,0 2,0 3,0 0.075,-2.706 0.408,-5.373 1,-8 1,0 2,0 3,0 -0.333,-4 -0.667,-8 -1,-12 1.667,0 3.333,0 5,0 0,-2 0,-4 0,-6 -2,0 -4,0 -6,0 -1.721,0.633 -1.388,-1.367 1,-6 -0.978,-2.277 -1.645,-4.61 -2,-7 -1.333,0 -2.667,0 -4,0 0.564,-7.283 0.564,-14.617 0,-22 1,0 2,0 3,0 0,-1 0,-2 0,-3 1.333,0 2.667,0 4,0 0,-1.333 0,-2.667 0,-4 1.624,0.14 2.79,-0.527 3.5,-2 0.334,2.347 0.167,4.681 -0.5,7 -2,0 -4,0 -6,0 0,1.667 0,3.333 0,5 2.237,0.949 4.571,1.616 7,2 0,-1 0,-2 0,-3 2.667,0 5.333,0 8,0 0.429,-8.928 1.429,-17.761 3,-26.5 -0.327,-1.813 -0.993,-3.48 -2,-5 1.228,-3.854 1.894,-7.854 2,-12 -0.106,-4.146 -0.772,-8.146 -2,-12 2.578,-4.12 2.578,-8.12 0,-12 1.607,-1.049 2.273,-2.549 2,-4.5 1,0 2,0 3,0 -0.291,-4.718 -1.291,-9.218 -3,-13.5 0.462,-3.189 1.462,-6.189 3,-9 -1.443,-2.078 -0.776,-2.911 2,-2.5 0.838,-4.842 -1.162,-7.509 -6,-8 1.239,-1.811 1.906,-3.811 2,-6 -0.328,-5.35 -0.661,-10.683 -1,-16 0.689,-1.944 1.189,-3.944 1.5,-6 0.483,0.948 0.649,1.948 0.5,3 13.018,-0.802 26.018,-0.802 39,0 0,-3.667 0,-7.333 0,-11 3.333,-0.667 6.667,-1.333 10,-2 0,-2 0,-4 0,-6 2.948,-0.795 7.948,-0.795 15,0 0,-1 0,-2 0,-3 z"
       id="path51" />
  </g>
  <g
     id="g52"
     transform="matrix(0.0224359,0,0,0.02850627,0.01121795,0.01425314)">
    <path
       style="opacity:0.024"
       fill="#687375"
       d="m 341.5,513.5 c 0,6.333 0,12.667 0,19 -1.125,0.848 -1.125,1.848 0,3 -1.202,3.548 -1.869,7.215 -2,11 -1.333,0 -2.667,0 -4,0 2.343,-10.898 3.676,-21.898 4,-33 0.802,-1.452 1.302,-3.118 1.5,-5 0.494,1.634 0.66,3.301 0.5,5 z"
       id="path52" />
  </g>
  <g
     id="g53"
     transform="matrix(0.0224359,0,0,0.02850627,0.01121795,0.01425314)">
    <path
       style="opacity:0.193"
       fill="#5d5f5f"
       d="m 55.5,576.5 c -4.729,-10.584 -8.0623,-21.584 -10,-33 -0.3333,-3 1,-4.333 4,-4 -0.6105,3.461 0.5561,6.128 3.5,8 1.8702,6.612 3.5369,13.278 5,20 0.6667,2.667 0.6667,5.333 0,8 -0.6708,0.752 -1.5041,1.086 -2.5,1 z"
       id="path53" />
  </g>
  <g
     id="g54"
     transform="matrix(0.0224359,0,0,0.02850627,0.01121795,0.01425314)">
    <path
       style="opacity:0.141"
       fill="#88b0c7"
       d="m 341.5,535.5 c 0.66,1.464 0.993,3.131 1,5 -2.245,20.902 -5.579,41.568 -10,62 0.279,1.843 0.613,3.677 1,5.5 -2.268,10.044 -3.268,20.211 -3,30.5 -3.321,16.615 -6.321,33.281 -9,50 -0.305,-8.296 0.361,-16.463 2,-24.5 -2.076,-3.061 -2.076,-5.895 0,-8.5 -0.094,-2.189 -0.761,-4.189 -2,-6 0.825,-0.886 1.825,-1.219 3,-1 -0.079,-1.43 0.254,-2.764 1,-4 -1.684,-1.354 -2.184,-3.021 -1.5,-5 1.131,1.104 1.965,0.771 2.5,-1 -0.783,-1.788 -2.116,-2.788 -4,-3 1.514,-7.39 3.347,-14.723 5.5,-22 0.333,-8.667 0.667,-17.333 1,-26 4.58,-13.291 6.747,-26.958 6.5,-41 1.333,0 2.667,0 4,0 0.131,-3.785 0.798,-7.452 2,-11 z"
       id="path54" />
  </g>
  <g
     id="g55"
     transform="matrix(0.0224359,0,0,0.02850627,0.01121795,0.01425314)">
    <path
       style="opacity:0.422"
       fill="#717171"
       d="m 166.5,521.5 c 2.119,-0.032 3.452,0.968 4,3 -1.3,1.723 -1.967,3.89 -2,6.5 0.813,9.042 2.646,17.875 5.5,26.5 1.95,18.074 4.283,36.074 7,54 2.729,5.581 4.229,11.581 4.5,18 -1.712,-4.405 -3.379,-9.072 -5,-14 -1.047,-9.84 -2.881,-19.507 -5.5,-29 -0.383,-0.556 -0.883,-0.889 -1.5,-1 -0.658,-9.79 -2.158,-19.457 -4.5,-29 -0.026,-10.833 -1.192,-21.5 -3.5,-32 0.02,-1.226 0.353,-2.226 1,-3 z"
       id="path55" />
  </g>
  <g
     id="g56"
     transform="matrix(0.0224359,0,0,0.02850627,0.01121795,0.01425314)">
    <path
       style="opacity:0.137"
       fill="#9aa1a5"
       d="m 170.5,524.5 c 2.114,1.407 3.614,3.407 4.5,6 2.771,10.551 4.104,21.551 4,33 3.871,9.582 5.538,19.582 5,30 0.708,3.749 1.708,7.416 3,11 0.765,10.444 1.932,20.777 3.5,31 -0.658,0.898 -1.324,1.898 -2,3 -1.318,-3.005 -2.318,-6.005 -3,-9 -0.271,-6.419 -1.771,-12.419 -4.5,-18 -2.717,-17.926 -5.05,-35.926 -7,-54 -2.854,-8.625 -4.687,-17.458 -5.5,-26.5 0.033,-2.61 0.7,-4.777 2,-6.5 z"
       id="path56" />
  </g>
  <g
     id="g57"
     transform="matrix(0.0224359,0,0,0.02850627,0.01121795,0.01425314)">
    <path
       style="opacity:0.821"
       fill="#fefefe"
       d="m 891.5,623.5 c 12.005,-0.167 24.005,0 36,0.5 23.411,1.953 40.911,13.12 52.5,33.5 1.199,3.226 1.699,6.559 1.5,10 -1.052,-0.149 -2.052,0.017 -3,0.5 -5.258,5.587 -11.592,7.42 -19,5.5 -6.55,-11.721 -16.217,-19.554 -29,-23.5 -55.108,-8.234 -82.274,15.6 -81.5,71.5 -1.756,1.774 -1.756,3.441 0,5 -1.068,19.876 3.598,38.21 14,55 17.53,17.867 38.697,23.7 63.5,17.5 6.259,-2.798 12.259,-6.131 18,-10 5.565,-6.261 9.398,-13.427 11.5,-21.5 1.054,-9.974 1.554,-19.974 1.5,-30 -18.243,0.326 -36.41,-0.008 -54.5,-1 -0.81,-6.582 -0.643,-13.082 0.5,-19.5 26.572,-0.828 53.072,-0.661 79.5,0.5 0.829,35.238 0.662,70.405 -0.5,105.5 -7.667,0.667 -15.333,0.667 -23,0 -0.5,-0.5 -1,-1 -1.5,-1.5 -0.333,-7.333 -0.667,-14.667 -1,-22 -12.418,19.006 -30.084,27.34 -53,25 -28.817,1.591 -51.484,-9.409 -68,-33 -17.039,-32.212 -21.373,-66.212 -13,-102 9.059,-36.564 31.893,-58.564 68.5,-66 z"
       id="path57" />
  </g>
  <g
     id="g58"
     transform="matrix(0.0224359,0,0,0.02850627,0.01121795,0.01425314)">
    <path
       style="opacity:0.829"
       fill="#fefefe"
       d="m 1352.5,623.5 c 64.5,-3.531 99,26.802 103.5,91 0.74,21.265 -2.26,41.931 -9,62 -10.9,24.247 -29.07,39.747 -54.5,46.5 -20.31,2.797 -40.31,1.797 -60,-3 -21.17,-9.169 -36.34,-24.336 -45.5,-45.5 -2.38,-6.226 -4.38,-12.56 -6,-19 -2.81,-24.884 -1.81,-49.551 3,-74 11.38,-32.785 34.22,-52.118 68.5,-58 z m 14,25 c 30.2,-0.291 49.36,14.042 57.5,43 5.72,26.423 4.39,52.423 -4,78 -15.62,26.11 -38.46,35.943 -68.5,29.5 -20.58,-5.599 -33.75,-18.766 -39.5,-39.5 -6.21,-26.606 -5.21,-52.939 3,-79 10.66,-21.157 27.82,-31.823 51.5,-32 z"
       id="path58" />
  </g>
  <g
     id="g59"
     transform="matrix(0.0224359,0,0,0.02850627,0.01121795,0.01425314)">
    <path
       style="opacity:0.825"
       fill="#fefefe"
       d="m 1071.5,624.5 c 29.7,-0.451 59.37,0.049 89,1.5 23.78,4.11 37.94,17.944 42.5,41.5 4.73,30.056 -7.1,50.223 -35.5,60.5 9.19,4.861 16.03,12.028 20.5,21.5 8.79,23.549 16.29,47.549 22.5,72 -9.25,0.318 -18.42,-0.015 -27.5,-1 -8.11,-22.471 -15.78,-45.137 -23,-68 -3.2,-6.535 -8.04,-11.368 -14.5,-14.5 -15.74,-3.131 -31.74,-4.297 -48,-3.5 0,29 0,58 0,87 -9,0 -18,0 -27,0 -0.33,-65.738 0,-131.404 1,-197 z m 26,24 c 18.69,-0.336 37.36,0.164 56,1.5 8.12,1.786 14.29,6.286 18.5,13.5 5.23,13.208 4.23,25.875 -3,38 -5.25,4.877 -11.42,8.044 -18.5,9.5 -17.66,0.5 -35.33,0.667 -53,0.5 0,-21 0,-42 0,-63 z"
       id="path59" />
  </g>
  <g
     id="g60"
     transform="matrix(0.0224359,0,0,0.02850627,0.01121795,0.01425314)">
    <path
       style="opacity:0.829"
       fill="#fefefe"
       d="m 1540.5,625.5 c 7.34,-0.166 14.67,0 22,0.5 1.43,0.465 2.6,1.299 3.5,2.5 0.03,48.028 0.7,96.028 2,144 8.33,19.268 23.16,28.601 44.5,28 25.45,0.037 40.95,-12.296 46.5,-37 0.17,-45.67 0.67,-91.337 1.5,-137 8.33,-1.333 16.67,-1.333 25,0 0.33,22.833 0.67,45.667 1,68.5 0.12,25.858 -0.38,51.691 -1.5,77.5 -2.54,17.591 -11.04,31.425 -25.5,41.5 -6.87,3.457 -13.87,6.457 -21,9 -15.3,1.546 -30.63,1.879 -46,1 -31.16,-5.497 -48.66,-23.997 -52.5,-55.5 -0.83,-47.737 -0.66,-95.404 0.5,-143 z"
       id="path60" />
  </g>
  <g
     id="g61"
     transform="matrix(0.0224359,0,0,0.02850627,0.01121795,0.01425314)">
    <path
       style="opacity:0.831"
       fill="#fefefe"
       d="m 1781.5,625.5 c 27,-0.167 54,0 81,0.5 26.46,3.818 43.63,18.318 51.5,43.5 4.31,20.263 0.98,38.929 -10,56 -9.78,11.97 -22.28,18.803 -37.5,20.5 -20.33,0.5 -40.66,0.667 -61,0.5 0,25.667 0,51.333 0,77 -8.92,0.317 -17.75,-0.016 -26.5,-1 -0.67,-65 -0.67,-130 0,-195 0.99,-0.566 1.83,-1.233 2.5,-2 z m 24,24 c 17.34,-0.167 34.67,0 52,0.5 20.24,3.742 29.91,15.909 29,36.5 0.57,20.577 -9.09,33.077 -29,37.5 -17.33,0.5 -34.66,0.667 -52,0.5 0,-25 0,-50 0,-75 z"
       id="path61" />
  </g>
  <g
     id="g62"
     transform="matrix(0.0224359,0,0,0.02850627,0.01121795,0.01425314)">
    <path
       style="opacity:0.549"
       fill="#568fb4"
       d="m 515.5,472.5 c -1.593,12.606 -5.093,24.606 -10.5,36 -0.158,6.476 -1.825,12.476 -5,18 -1.079,6.886 -2.745,13.552 -5,20 -6.748,9.862 -11.081,20.862 -13,33 -0.667,0.667 -1.333,1.333 -2,2 0.064,6.308 -1.769,11.974 -5.5,17 2.481,1.36 2.148,2.36 -1,3 -3.719,7.995 -6.886,16.328 -9.5,25 -1.333,2 -2.667,4 -4,6 -0.208,6.301 -2.542,11.635 -7,16 -1.953,4.307 -3.953,8.641 -6,13 -3.91,3.075 -5.91,7.075 -6,12 0.671,-0.752 1.504,-1.086 2.5,-1 -6.599,10.869 -13.932,21.202 -22,31 -0.333,0 -0.667,0 -1,0 1.499,-2.408 2.332,-5.741 2.5,-10 1.976,-1.043 2.476,-2.377 1.5,-4 0.82,-1.611 2.154,-2.278 4,-2 3.727,-8.456 8.227,-16.456 13.5,-24 1,-3.667 2,-7.333 3,-11 6.139,-6.341 9.473,-14.007 10,-23 6.033,-6.077 9.7,-13.411 11,-22 1.667,-1 3,-2.333 4,-4 1.333,-6 2.667,-12 4,-18 1.333,-0.667 2.333,-1.667 3,-3 2.088,-6.834 4.254,-13.501 6.5,-20 0.997,0.03 1.664,-0.47 2,-1.5 5.172,-18.515 11.338,-36.681 18.5,-54.5 1.286,-4.596 2.119,-9.263 2.5,-14 1,0 2,0 3,0 1.428,-6.942 3.428,-13.608 6,-20 z"
       id="path62" />
  </g>
  <g
     id="g63"
     transform="matrix(0.0224359,0,0,0.02850627,0.01121795,0.01425314)">
    <path
       style="opacity:0.103"
       fill="#6a6c6c"
       d="m 208.5,651.5 c 0.162,-2.027 -0.005,-4.027 -0.5,-6 -8.043,-25.165 -14.543,-50.165 -19.5,-75 -0.219,-1.175 0.114,-2.175 1,-3 1.932,0.645 3.099,1.979 3.5,4 0.333,-0.333 0.667,-0.667 1,-1 0.712,4.429 2.712,8.096 6,11 0.76,4.319 1.427,8.652 2,13 2.299,9.193 4.799,18.36 7.5,27.5 2.253,12.468 4.086,24.968 5.5,37.5 -0.75,-0.626 -1.584,-1.126 -2.5,-1.5 -1.068,-2.438 -2.402,-4.605 -4,-6.5 z"
       id="path63" />
  </g>
  <g
     id="g64"
     transform="matrix(0.0224359,0,0,0.02850627,0.01121795,0.01425314)">
    <path
       style="opacity:0.86"
       fill="#2573ab"
       d="m 485.5,553.5 c -0.428,3.064 -1.094,6.064 -2,9 -2.246,6.499 -4.412,13.166 -6.5,20 -0.667,1.333 -1.667,2.333 -3,3 -1.333,6 -2.667,12 -4,18 -1,1.667 -2.333,3 -4,4 -1.3,8.589 -4.967,15.923 -11,22 -0.527,8.993 -3.861,16.659 -10,23 -1,3.667 -2,7.333 -3,11 -5.273,7.544 -9.773,15.544 -13.5,24 -1.846,-0.278 -3.18,0.389 -4,2 0.976,1.623 0.476,2.957 -1.5,4 -0.168,4.259 -1.001,7.592 -2.5,10 -0.31,1.238 -0.81,1.238 -1.5,0 -5.398,5.178 -10.898,10.845 -16.5,17 -6.361,4.096 -13.361,7.263 -21,9.5 -6.977,6.55 -15.31,9.55 -25,9 -6.26,2.589 -12.593,5.089 -19,7.5 -2.795,-1.525 -4.962,-0.858 -6.5,2 -1.144,-0.411 -2.311,-0.744 -3.5,-1 -1.832,1.321 -3.832,2.321 -6,3 -0.166,-10.006 0,-20.006 0.5,-30 0.427,-2.949 1.261,-5.783 2.5,-8.5 -0.498,-2.477 -0.831,-4.977 -1,-7.5 1.967,-12.067 3.634,-24.067 5,-36 0.939,-9.968 1.606,-19.968 2,-30 0.617,-0.111 1.117,-0.444 1.5,-1 1.507,-13.502 3.341,-26.836 5.5,-40 -0.034,14.715 -1.367,29.215 -4,43.5 0.93,1.194 1.597,2.527 2,4 -0.925,2.629 -0.925,4.962 0,7 -3.585,4.381 -3.919,9.047 -1,14 -0.667,9.667 -1.333,19.333 -2,29 0.333,0.333 0.667,0.667 1,1 -1.676,2.174 -2.676,4.674 -3,7.5 1.08,3.282 0.746,6.448 -1,9.5 0.12,2.789 0.453,5.622 1,8.5 -1.851,3.125 -2.351,6.458 -1.5,10 6.065,5.861 13.232,7.194 21.5,4 4.301,1.103 8.134,0.103 11.5,-3 1.398,0.551 2.732,0.884 4,1 0.833,-1.5 2,-2.667 3.5,-3.5 3.897,-0.3 7.397,-1.467 10.5,-3.5 0.333,0.333 0.667,0.667 1,1 1.188,-1.063 1.688,-2.397 1.5,-4 1.052,0.149 2.052,-0.017 3,-0.5 1.263,-2.386 3.097,-4.219 5.5,-5.5 0.333,-1.333 0.667,-2.667 1,-4 0.333,0.333 0.667,0.667 1,1 1.339,-2.594 3.506,-4.094 6.5,-4.5 4.933,-5.058 9.599,-10.391 14,-16 5.421,-0.254 8.421,-3.087 9,-8.5 1.333,0 2.667,0 4,0 -0.511,-4.283 0.156,-8.283 2,-12 -1.522,-1.656 -1.189,-2.823 1,-3.5 -1.054,-1.388 -1.22,-2.888 -0.5,-4.5 3.338,-3.793 7.338,-7.459 12,-11 0.893,1.211 1.726,1.211 2.5,0 -2.708,-2.665 -2.041,-3.998 2,-4 1.186,-4.064 2.853,-7.897 5,-11.5 0.061,-1.711 -0.606,-3.044 -2,-4 2.829,-1.216 3.496,-3.049 2,-5.5 2.422,-1.786 2.422,-3.452 0,-5 1.482,-1.983 3.149,-3.816 5,-5.5 -0.333,-0.333 -0.667,-0.667 -1,-1 0.77,-2.607 1.437,-5.273 2,-8 0.637,-1.713 1.637,-1.879 3,-0.5 1.231,-1.151 1.231,-2.317 0,-3.5 3.541,-1.071 4.208,-2.737 2,-5 3.115,-2.531 4.448,-5.531 4,-9 1.035,-4.715 3.369,-8.715 7,-12 -1.149,-2.738 -0.483,-5.071 2,-7 -1.333,-1.84 -1.166,-2.34 0.5,-1.5 0.333,-2.333 0.667,-4.667 1,-7 1.957,-1.827 3.124,-3.66 3.5,-5.5 3.43,-0.422 5.43,-2.255 6,-5.5 z"
       id="path64" />
  </g>
  <g
     id="g65"
     transform="matrix(0.0224359,0,0,0.02850627,0.01121795,0.01425314)">
    <path
       style="opacity:0.414"
       fill="#575757"
       d="m 173.5,585.5 c 0.617,0.111 1.117,0.444 1.5,1 2.619,9.493 4.453,19.16 5.5,29 1.621,4.928 3.288,9.595 5,14 -0.459,5.348 0.208,10.515 2,15.5 -1.201,2.468 -0.701,4.634 1.5,6.5 1.322,17.255 3.655,34.255 7,51 1.244,3.138 1.911,6.472 2,10 0.708,0.881 1.542,1.547 2.5,2 -0.104,9.38 1.562,18.38 5,27 0.888,6.325 1.722,12.658 2.5,19 2.934,4.134 4.434,8.801 4.5,14 -0.996,0.086 -1.829,-0.248 -2.5,-1 -0.471,-1.746 -1.138,-3.413 -2,-5 -5.959,-29.098 -12.625,-57.765 -20,-86 -0.28,-4.697 -0.78,-9.363 -1.5,-14 0.397,-1.486 0.73,-2.986 1,-4.5 -4.519,-26.117 -9.186,-52.283 -14,-78.5 z"
       id="path65" />
  </g>
  <g
     id="g66"
     transform="matrix(0.0224359,0,0,0.02850627,0.01121795,0.01425314)">
    <path
       style="opacity:0.197"
       fill="#7a7c7c"
       d="m 185.5,629.5 c 0.682,2.995 1.682,5.995 3,9 0.676,-1.102 1.342,-2.102 2,-3 2.362,9.916 4.362,19.916 6,30 -4.37,1.101 -5.036,3.434 -2,7 -0.487,0.946 -0.82,1.946 -1,3 2.936,12.876 5.269,25.876 7,39 -0.958,-0.453 -1.792,-1.119 -2.5,-2 -0.089,-3.528 -0.756,-6.862 -2,-10 -3.345,-16.745 -5.678,-33.745 -7,-51 -2.201,-1.866 -2.701,-4.032 -1.5,-6.5 -1.792,-4.985 -2.459,-10.152 -2,-15.5 z"
       id="path66" />
  </g>
  <g
     id="g67"
     transform="matrix(0.0224359,0,0,0.02850627,0.01121795,0.01425314)">
    <path
       style="opacity:0.055"
       fill="#6b6d6d"
       d="m 232.5,757.5 c -7.807,-27.378 -13.807,-55.045 -18,-83 0.982,-0.641 1.982,-1.307 3,-2 5.181,11.408 8.014,23.408 8.5,36 2.941,13.25 6.608,26.25 11,39 1.368,4.737 1.368,9.404 0,14 -2.019,-0.857 -3.519,-2.191 -4.5,-4 z"
       id="path67" />
  </g>
  <g
     id="g68"
     transform="matrix(0.0224359,0,0,0.02850627,0.01121795,0.01425314)">
    <path
       style="opacity:0.067"
       fill="#5d5e5e"
       d="m 292.5,680.5 c 0.455,9.183 -0.545,18.183 -3,27 -0.996,0.086 -1.829,-0.248 -2.5,-1 -0.323,2.641 -1.323,4.975 -3,7 -0.429,4.547 -1.262,8.881 -2.5,13 0.169,-6.023 0.669,-12.023 1.5,-18 0.915,-0.828 1.581,-1.828 2,-3 0.089,-11.373 0.589,-20.04 1.5,-26 2.121,-0.175 4.121,0.159 6,1 z"
       id="path68" />
  </g>
  <g
     id="g69"
     transform="matrix(0.0224359,0,0,0.02850627,0.01121795,0.01425314)">
    <path
       style="opacity:0.129"
       fill="#94999b"
       d="m 196.5,665.5 c 5.201,21.459 9.701,43.126 13.5,65 -0.355,10.026 1.312,19.692 5,29 0.499,4.989 0.666,9.989 0.5,15 -1,0 -2,0 -3,0 -0.066,-5.199 -1.566,-9.866 -4.5,-14 -0.778,-6.342 -1.612,-12.675 -2.5,-19 -3.438,-8.62 -5.104,-17.62 -5,-27 -1.731,-13.124 -4.064,-26.124 -7,-39 0.18,-1.054 0.513,-2.054 1,-3 -3.036,-3.566 -2.37,-5.899 2,-7 z"
       id="path69" />
  </g>
  <g
     id="g70"
     transform="matrix(0.0224359,0,0,0.02850627,0.01121795,0.01425314)">
    <path
       style="opacity:0.039"
       fill="#34535b"
       d="m 420.5,703.5 c 0.333,0 0.667,0 1,0 -7.278,8.946 -15.278,17.279 -24,25 -0.149,-1.052 0.017,-2.052 0.5,-3 1.707,-1.537 3.207,-3.204 4.5,-5 5.602,-6.155 11.102,-11.822 16.5,-17 0.69,1.238 1.19,1.238 1.5,0 z"
       id="path70" />
  </g>
  <g
     id="g71"
     transform="matrix(0.0224359,0,0,0.02850627,0.01121795,0.01425314)">
    <path
       style="opacity:0.159"
       fill="#a7c0cb"
       d="m 322.5,635.5 c 1.884,0.212 3.217,1.212 4,3 -0.535,1.771 -1.369,2.104 -2.5,1 -0.684,1.979 -0.184,3.646 1.5,5 -0.746,1.236 -1.079,2.57 -1,4 -1.175,-0.219 -2.175,0.114 -3,1 1.239,1.811 1.906,3.811 2,6 -2.076,2.605 -2.076,5.439 0,8.5 -1.639,8.037 -2.305,16.204 -2,24.5 -1.114,3.717 -2.114,7.384 -3,11 -2.895,16.125 -5.395,32.459 -7.5,49 -3.097,9.498 -5.597,19.164 -7.5,29 0.431,0.793 0.765,1.627 1,2.5 -1.457,4.464 -3.123,8.798 -5,13 1.078,0.674 1.745,1.674 2,3 -1.093,2.734 -1.093,5.4 0,8 -0.717,2.612 -2.05,4.778 -4,6.5 -0.722,-0.418 -1.222,-1.084 -1.5,-2 -0.667,-5.333 -0.667,-10.667 0,-16 3.847,-11.694 5.847,-23.694 6,-36 3.511,-11.065 5.511,-22.398 6,-34 2.126,-10.327 5.126,-20.327 9,-30 1.68,-7.472 1.846,-14.972 0.5,-22.5 1.27,-11.572 2.936,-23.072 5,-34.5 z"
       id="path71" />
  </g>
  <g
     id="g72"
     transform="matrix(0.0224359,0,0,0.02850627,0.01121795,0.01425314)">
    <path
       style="opacity:0.709"
       fill="#4988b0"
       d="m 330.5,638.5 c -0.394,10.032 -1.061,20.032 -2,30 -2.052,8.414 -4.052,16.914 -6,25.5 1.035,1.507 0.868,3.007 -0.5,4.5 -1.837,18.721 -4.171,37.388 -7,56 -0.499,4.989 -0.666,9.989 -0.5,15 -1.333,0 -2.667,0 -4,0 -0.379,7.084 -2.212,13.75 -5.5,20 -0.178,6.234 -1.012,12.234 -2.5,18 -0.316,-13.719 2.351,-26.719 8,-39 0.994,-4.956 1.327,-9.956 1,-15 1,0 2,0 3,0 2.359,-17.848 3.692,-35.848 4,-54 0.886,-3.616 1.886,-7.283 3,-11 2.679,-16.719 5.679,-33.385 9,-50 z"
       id="path72" />
  </g>
  <g
     id="g73"
     transform="matrix(0.0224359,0,0,0.02850627,0.01121795,0.01425314)">
    <path
       style="opacity:0.312"
       fill="#78a5c2"
       d="m 386.5,736.5 c -8.128,5.398 -16.795,9.731 -26,13 -0.651,-0.591 -1.318,-1.257 -2,-2 -8.689,2.351 -17.356,4.684 -26,7 -1.651,2.657 -3.318,5.323 -5,8 -1.146,6.194 -2.313,12.528 -3.5,19 -0.417,1.256 -1.25,1.923 -2.5,2 1.353,-9.292 2.353,-18.625 3,-28 3.681,-2.294 7.681,-4.127 12,-5.5 3.283,-1.023 6.616,-1.857 10,-2.5 6.349,-3.836 13.349,-6.002 21,-6.5 6.157,-3.083 12.49,-5.583 19,-7.5 0,1 0,2 0,3 z"
       id="path73" />
  </g>
  <g
     id="g74"
     transform="matrix(0.0224359,0,0,0.02850627,0.01121795,0.01425314)">
    <path
       style="opacity:0.169"
       fill="#afc9d2"
       d="m 360.5,749.5 c -6.824,3.264 -13.824,6.431 -21,9.5 -4.862,5.012 -8.195,10.846 -10,17.5 -1.737,-4.434 -2.404,-9.101 -2,-14 1.682,-2.677 3.349,-5.343 5,-8 8.644,-2.316 17.311,-4.649 26,-7 0.682,0.743 1.349,1.409 2,2 z"
       id="path74" />
  </g>
  <g
     id="g75"
     transform="matrix(0.0224359,0,0,0.02850627,0.01121795,0.01425314)">
    <path
       style="opacity:0.078"
       fill="#9dabad"
       d="m 285.5,750.5 c -1.81,9.273 -3.477,18.606 -5,28 -1.36,-1.546 -2.36,-3.38 -3,-5.5 1.165,-8.689 2.832,-17.189 5,-25.5 1,0 2,0 3,0 0,1 0,2 0,3 z"
       id="path75" />
  </g>
  <g
     id="g76"
     transform="matrix(0.0224359,0,0,0.02850627,0.01121795,0.01425314)">
    <path
       style="opacity:0.184"
       fill="#515151"
       d="m 263.5,875.5 c 0.777,-5.672 0.277,-11.339 -1.5,-17 -0.249,-2.677 -1.249,-5.01 -3,-7 -0.259,-6.076 -2.093,-11.41 -5.5,-16 -1.565,-14.235 -4.398,-28.235 -8.5,-42 -0.71,-1.473 -1.876,-2.14 -3.5,-2 0.295,2.235 -0.039,4.235 -1,6 -0.772,-4.25 -1.272,-8.583 -1.5,-13 -2.807,-8.844 -4.974,-17.844 -6.5,-27 0.981,1.809 2.481,3.143 4.5,4 1.368,-4.596 1.368,-9.263 0,-14 -4.392,-12.75 -8.059,-25.75 -11,-39 -0.486,-12.592 -3.319,-24.592 -8.5,-36 -1.018,0.693 -2.018,1.359 -3,2 -0.841,-1.879 -1.175,-3.879 -1,-6 1.208,-0.734 2.541,-1.067 4,-1 0.333,3 2,4.667 5,5 0.723,6.671 1.556,13.338 2.5,20 2.07,6.553 4.403,12.886 7,19 1.567,11.837 3.901,23.504 7,35 0.361,3.025 0.861,6.025 1.5,9 -0.26,1.687 -0.927,3.187 -2,4.5 1.214,2.351 2.048,4.851 2.5,7.5 1,0.667 2,1.333 3,2 0.335,6.691 0.835,13.357 1.5,20 1,0 2,0 3,0 3.877,26.112 9.877,51.779 18,77 -1.077,2.974 -1.077,5.974 0,9 -1,0 -2,0 -3,0 z"
       id="path76" />
  </g>
  <g
     id="g77"
     transform="matrix(0.0224359,0,0,0.02850627,0.01121795,0.01425314)">
    <path
       style="opacity:0.278"
       fill="#76a7c4"
       d="m 318.5,699.5 c -0.308,18.152 -1.641,36.152 -4,54 -1,0 -2,0 -3,0 0.327,5.044 -0.006,10.044 -1,15 -5.649,12.281 -8.316,25.281 -8,39 -0.904,0.709 -1.237,1.709 -1,3 -1.291,-0.237 -2.291,0.096 -3,1 -0.667,0 -1,-0.333 -1,-1 1.95,-1.722 3.283,-3.888 4,-6.5 -1.093,-2.6 -1.093,-5.266 0,-8 -0.255,-1.326 -0.922,-2.326 -2,-3 1.877,-4.202 3.543,-8.536 5,-13 -0.235,-0.873 -0.569,-1.707 -1,-2.5 1.903,-9.836 4.403,-19.502 7.5,-29 2.105,-16.541 4.605,-32.875 7.5,-49 z"
       id="path77" />
  </g>
  <g
     id="g78"
     transform="matrix(0.0224359,0,0,0.02850627,0.01121795,0.01425314)">
    <path
       style="opacity:0.171"
       fill="#727474"
       d="m 289.5,707.5 c 0.689,14.683 -0.645,29.017 -4,43 0,-1 0,-2 0,-3 -1,0 -2,0 -3,0 -2.168,8.311 -3.835,16.811 -5,25.5 0.64,2.12 1.64,3.954 3,5.5 -0.859,3.774 -1.859,7.441 -3,11 -1.88,-0.271 -3.213,0.396 -4,2 -0.625,3.335 -2.125,6.335 -4.5,9 -0.167,2 -0.333,4 -0.5,6 3.231,12.144 6.231,24.31 9,36.5 -0.333,0.333 -0.667,0.667 -1,1 1.047,10.755 1.713,21.588 2,32.5 -0.667,0 -1.333,0 -2,0 -2.287,-23.989 -5.954,-47.655 -11,-71 1.011,-8.858 3.345,-17.358 7,-25.5 2.657,-18.046 5.657,-35.88 9,-53.5 1.238,-4.119 2.071,-8.453 2.5,-13 1.677,-2.025 2.677,-4.359 3,-7 0.671,0.752 1.504,1.086 2.5,1 z"
       id="path78" />
  </g>
  <g
     id="g79"
     transform="matrix(0.0224359,0,0,0.02850627,0.01121795,0.01425314)">
    <path
       style="opacity:0.016"
       fill="#cbcfcf"
       d="m 277.5,789.5 c -0.373,14.034 -0.373,28.034 0,42 -1.146,-3.14 -2.48,-6.307 -4,-9.5 0.74,-1.785 1.407,-3.618 2,-5.5 -0.774,-1.211 -1.607,-1.211 -2.5,0 -0.573,-8.349 -0.407,-16.682 0.5,-25 0.787,-1.604 2.12,-2.271 4,-2 z"
       id="path79" />
  </g>
  <g
     id="g80"
     transform="matrix(0.0224359,0,0,0.02850627,0.01121795,0.01425314)">
    <path
       style="opacity:0.581"
       fill="#3d779e"
       d="m 328.5,668.5 c -1.366,11.933 -3.033,23.933 -5,36 0.169,2.523 0.502,5.023 1,7.5 -1.239,2.717 -2.073,5.551 -2.5,8.5 -0.5,9.994 -0.666,19.994 -0.5,30 2.168,-0.679 4.168,-1.679 6,-3 1.189,0.256 2.356,0.589 3.5,1 1.538,-2.858 3.705,-3.525 6.5,-2 6.407,-2.411 12.74,-4.911 19,-7.5 9.69,0.55 18.023,-2.45 25,-9 7.639,-2.237 14.639,-5.404 21,-9.5 -1.293,1.796 -2.793,3.463 -4.5,5 -0.483,0.948 -0.649,1.948 -0.5,3 -3.097,3.388 -6.764,6.055 -11,8 0,-1 0,-2 0,-3 -6.51,1.917 -12.843,4.417 -19,7.5 -7.651,0.498 -14.651,2.664 -21,6.5 -3.384,0.643 -6.717,1.477 -10,2.5 -4.319,1.373 -8.319,3.206 -12,5.5 -0.647,9.375 -1.647,18.708 -3,28 -1.867,7.126 -4.2,14.126 -7,21 -2.385,1.313 -2.552,2.98 -0.5,5 1.007,-2.242 1.841,-1.908 2.5,1 -1.085,2.087 -2.751,3.42 -5,4 -1,0 -2,0 -3,0 0.262,-1.478 -0.071,-2.811 -1,-4 -2.685,3.549 -5.685,3.882 -9,1 0.709,-0.904 1.709,-1.237 3,-1 -0.237,-1.291 0.096,-2.291 1,-3 1.488,-5.766 2.322,-11.766 2.5,-18 3.288,-6.25 5.121,-12.916 5.5,-20 1.333,0 2.667,0 4,0 -0.166,-5.011 10e-4,-10.011 0.5,-15 2.829,-18.612 5.163,-37.279 7,-56 1.368,-1.493 1.535,-2.993 0.5,-4.5 1.948,-8.586 3.948,-17.086 6,-25.5 z"
       id="path80" />
  </g>
  <g
     id="g81"
     transform="matrix(0.0224359,0,0,0.02850627,0.01121795,0.01425314)">
    <path
       style="opacity:0.078"
       fill="#90b3c3"
       d="m 327.5,762.5 c -0.404,4.899 0.263,9.566 2,14 -1.124,10.162 -3.957,19.828 -8.5,29 -1.517,1.74 -3.017,3.406 -4.5,5 -0.659,-2.908 -1.493,-3.242 -2.5,-1 -2.052,-2.02 -1.885,-3.687 0.5,-5 2.8,-6.874 5.133,-13.874 7,-21 1.25,-0.077 2.083,-0.744 2.5,-2 1.187,-6.472 2.354,-12.806 3.5,-19 z"
       id="path81" />
  </g>
  <g
     id="g82"
     transform="matrix(0.0224359,0,0,0.02850627,0.01121795,0.01425314)">
    <path
       style="opacity:0.00799997"
       fill="#141515"
       d="m 311.5,814.5 c -1.896,0.981 -3.896,1.981 -6,3 -1.836,-1.419 -3.836,-2.586 -6,-3.5 -0.752,-0.671 -1.086,-1.504 -1,-2.5 3.315,2.882 6.315,2.549 9,-1 0.929,1.189 1.262,2.522 1,4 1,0 2,0 3,0 z"
       id="path82" />
  </g>
  <g
     id="g83"
     transform="matrix(0.0224359,0,0,0.02850627,0.01121795,0.01425314)">
    <path
       style="opacity:0.078"
       fill="#949c9e"
       d="m 253.5,835.5 c -0.113,2.549 0.554,4.882 2,7 -0.746,1.236 -1.079,2.57 -1,4 -1,0 -2,0 -3,0 -2.388,-5.804 -4.555,-11.804 -6.5,-18 -0.754,-10.483 -2.254,-20.817 -4.5,-31 0.961,-1.765 1.295,-3.765 1,-6 1.624,-0.14 2.79,0.527 3.5,2 4.102,13.765 6.935,27.765 8.5,42 z"
       id="path83" />
  </g>
  <g
     id="g84"
     transform="matrix(0.0224359,0,0,0.02850627,0.01121795,0.01425314)">
    <path
       style="opacity:0.012"
       fill="#a7aeb3"
       d="m 273.5,791.5 c -0.907,8.318 -1.073,16.651 -0.5,25 0.893,-1.211 1.726,-1.211 2.5,0 -0.593,1.882 -1.26,3.715 -2,5.5 1.52,3.193 2.854,6.36 4,9.5 2.054,3.692 3.554,7.692 4.5,12 0.333,4.667 0.667,9.333 1,14 2.951,6.111 3.784,12.444 2.5,19 -2.333,0 -4.667,0 -7,0 -0.287,-10.912 -0.953,-21.745 -2,-32.5 0.333,-0.333 0.667,-0.667 1,-1 -2.769,-12.19 -5.769,-24.356 -9,-36.5 0.167,-2 0.333,-4 0.5,-6 2.375,-2.665 3.875,-5.665 4.5,-9 z"
       id="path84" />
  </g>
  <g
     id="g85"
     transform="matrix(0.0224359,0,0,0.02850627,0.01121795,0.01425314)">
    <path
       style="opacity:0.09"
       fill="#6d7372"
       d="m 253.5,835.5 c 3.407,4.59 5.241,9.924 5.5,16 1.751,1.99 2.751,4.323 3,7 1.777,5.661 2.277,11.328 1.5,17 0,0.333 0,0.667 0,1 -1,0 -2,0 -3,0 -3.311,-9.911 -6.311,-19.911 -9,-30 1,0 2,0 3,0 -0.079,-1.43 0.254,-2.764 1,-4 -1.446,-2.118 -2.113,-4.451 -2,-7 z"
       id="path85" />
  </g>
</svg>
