<svg xmlns="http://www.w3.org/2000/svg" width="4096" height="1892" shape-rendering="geometricPrecision" image-rendering="optimizeQuality" fill-rule="evenodd" xmlns:v="https://vecta.io/nano"><g fill="#fefefe"><path d="M1351.5 625.5h16v74h-16c.15-1.052-.02-2.052-.5-3-11.39 7.373-21.73 6.04-31-4-6.98-12.646-5.48-24.146 4.5-34.5 6.6-3.378 13.6-4.378 21-3a15.81 15.81 0 0 1 5.5 3.5 541.98 541.98 0 0 0 .5-33zm-11 42c9.47.965 12.97 5.965 10.5 15-4.39 5.538-9.56 6.371-15.5 2.5-4.71-7.712-3.04-13.545 5-17.5z" opacity=".951"/><path d="M956.5 628.5a242.79 242.79 0 0 1 36 1.5c12.3 5.209 16.8 14.375 13.5 27.5-2.5 7.833-7.667 13-15.5 15.5-5.657.499-11.324.666-17 .5v26h-17v-71zm17 14a23.93 23.93 0 0 1 13 2.5c2.956 4.665 2.622 8.998-1 13a26.16 26.16 0 0 1-12 2.5v-18z" opacity=".954"/><path d="M1408.5 628.5a392.6 392.6 0 0 1 28 .5c12.71 1.703 18.21 8.87 16.5 21.5-.63 5.112-3.13 8.945-7.5 11.5 9.68 1.995 14.34 7.995 14 18 .03 8.647-3.97 14.647-12 18-12.93 1.443-25.93 1.943-39 1.5v-71zm17 14c10.89-.65 13.56 3.517 8 12.5-2.62.822-5.28 1.322-8 1.5v-14zm0 29a60.93 60.93 0 0 1 11 .5c5.79 3.532 6.46 7.865 2 13-4.23 1.29-8.56 1.79-13 1.5v-15z" opacity=".947"/><path d="M1792.5 653.5l226 2 234-.5c3.7.318 7.36.818 11 1.5l827-1a31.9 31.9 0 0 0 4.5 3c.67-2.667 1.33-2.667 2 0l1-1c3.81 2.074 7.64 4.074 11.5 6 2.91 1.739 5.41 4.072 7.5 7 7.86 16.872 16.19 33.539 25 50 6.11 9.216 11.44 18.883 16 29 9.36 14.434 17.69 29.434 25 45 6.19 9.623 12.19 19.29 18 29a65.66 65.66 0 0 0 8 18 82.92 82.92 0 0 0 7.5 10c2.25-.753 4.09-2.086 5.5-4 14.08-27.507 28.58-54.507 43.5-81 1.61-.927 3.28-1.761 5-2.5l51.5-1.5c7.14-.183 14.14.484 21 2 .79 3.134.46 6.134-1 9a506.82 506.82 0 0 1-16 25c-6.05 13.766-12.38 27.433-19 41l-45 82c-2.75 5.189-3.09 10.523-1 16a474.6 474.6 0 0 1 29 53l32.5 56.5c10.27 21.18 21.11 42.01 32.5 62.5.67 4.67.67 9.33 0 14-.75.63-1.58 1.13-2.5 1.5-22.05.96-44.05.62-66-1-8.13-8.64-14.47-18.48-19-29.5-15.87-26.11-30.87-52.95-45-80.5-2.57-4.45-5.4-4.95-8.5-1.5-6.19 11.88-12.86 23.54-20 35a24.56 24.56 0 0 0-3 8c-7.23 13.57-14.9 26.9-23 40a109.02 109.02 0 0 1-17.5 28 28.29 28.29 0 0 1-4 1.5c-22.33.78-44.67 1.12-67 1-2.18-.16-4.01-1-5.5-2.5-.45-2.91.22-5.58 2-8 3.74-6.47 7.74-12.8 12-19 15.89-30.46 32.22-60.46 49-90 1.47-3.16 2.47-6.49 3-10 6.37-8.889 11.54-18.555 15.5-29l8.5-13c4.12-7.912 7.96-15.912 11.5-24-1.67-6.826-4.84-12.826-9.5-18-7.64-16.607-16.3-32.607-26-48-1.12-4.523-3.12-8.523-6-12l-70-128a18.79 18.79 0 0 0-5.5-4.5l-339-1.5c-60.99-.164-122.32-.164-184 0-.69-.525-1.19-1.192-1.5-2-.84 1.124-2.01 1.791-3.5 2a9900.83 9900.83 0 0 0-54.5 0c-1.67-2.667-3.33-2.667-5 0-17.65-1.237-35.32-1.237-53 0-1.15-2.012-2.32-2.178-3.5-.5l-44 .5c-198.83-.333-392.5-.333-581 0-13.64 1.11-27.31 1.776-41 2-6.08-.025-11.91-.691-17.5-2-16.64-.488-33.3.178-50 2-2.01-1.104-4.18-1.771-6.5-2-3.34-.235-5.68.432-7 2-6.11.348-12.27-.319-18.5-2-10.43 1.095-21.09 1.095-32 0-1.91.954-3.91 1.621-6 2-7.45-1.515-15.28-2.182-23.5-2-5.84.047-11.51.714-17 2l-10-2c-1.55 2.422-3.21 2.422-5 0-2.13.733-3.96.733-5.5 0-1.63-1.22-2.63-3.22-3-6-.25 1.124-.75 2.124-1.5 3l-1-.5c.47-2.778 1.47-5.611 3-8.5a42.56 42.56 0 0 1 3.5-8c9.93-14.069 20.43-27.569 31.5-40.5a15.32 15.32 0 0 1 6-3l204-1.5z" opacity=".915"/><path d="M1028.5 654.5c6.76-.377 13.42.123 20 1.5 15.05 8.374 18.55 20.208 10.5 35.5-12.26 11.437-25.76 12.937-40.5 4.5-12.18-12.658-11.84-24.992 1-37l9-4.5zm7 13c10.48 2.257 13.14 8.091 8 17.5-8.6 4.693-13.94 2.36-16-7-.11-5.713 2.56-9.213 8-10.5z" opacity=".948"/><path d="M1175.5 654.5c9.11-1.348 17.45.485 25 5.5 4.93 5.948 6.93 12.781 6 20.5h-31c-.1 4.075 1.9 6.575 6 7.5 5.16.504 9.66-.996 13.5-4.5 4.16 1.319 7.66 3.485 10.5 6.5-5.3 7.9-12.8 11.733-22.5 11.5-17.98-1.943-25.98-11.943-24-30 3.02-8.184 8.52-13.851 16.5-17zm6 10c3.97-.015 6.97 1.652 9 5a28.63 28.63 0 0 1-15 0c1.46-2.472 3.46-4.139 6-5z" opacity=".925"/><path d="M1240.5 654.5c4.01-.166 8.01.001 12 .5 1.68.347 2.68 1.347 3 3-1.78 4.387-3.94 8.554-6.5 12.5-4.99-2.962-9.66-2.628-14 1a23.03 23.03 0 0 0-2 5 263.37 263.37 0 0 0-.5 23h-16v-44h16c-.16 1.699.01 3.366.5 5 2.11-2.621 4.61-4.621 7.5-6z" opacity=".933"/><path d="M1277.5 654.5c20.18-2.805 30.52 5.861 31 26-10.69-.332-21.35.001-32 1 3.24 6.47 8.24 8.303 15 5.5a26.31 26.31 0 0 0 5-3.5 87.45 87.45 0 0 1 11 6c-5.08 8.294-12.58 12.294-22.5 12-18.86-2.082-26.86-12.415-24-31 3.08-7.917 8.58-13.25 16.5-16zm6 10c4.23-.099 7.23 1.735 9 5.5-5.03.829-10.03.662-15-.5 1.46-2.472 3.46-4.139 6-5z" opacity=".928"/></g><path fill="#f6f6f6" d="M1792.5 653.5l1300 1.5c5.98.434 11.31 2.434 16 6 .75.671 1.09 1.504 1 2.5-3.86-1.926-7.69-3.926-11.5-6l-1 1c-.67-2.667-1.33-2.667-2 0a31.9 31.9 0 0 1-4.5-3c-275.32-.329-550.98.005-827 1-3.64-.682-7.3-1.182-11-1.5-78.01-.807-156.01-.64-234 .5l-226-2z" opacity=".056"/><g fill="#fefefe"><path d="M1066.5 656.5c6.18-1.317 12.51-1.317 19 0l9.5 21 9.5-21a24.55 24.55 0 0 1 12-.5c3.21 6.91 6.54 13.743 10 20.5 3.46-6.757 6.79-13.59 10-20.5 6.03-.83 12.03-.664 18 .5l-22 42a43.12 43.12 0 0 1-13 1 272.34 272.34 0 0 0-8.5-21l-9.5 20.5a24.55 24.55 0 0 1-12-.5l-23-42z" opacity=".948"/><path d="M1462.5 656.5c6.18-1.317 12.51-1.317 19 0 3.41 6.497 7.08 12.83 11 19 3.73-6.297 7.06-12.797 10-19.5 6.03-.83 12.03-.664 18 .5l-33.5 65c-6.08.976-12.24 1.31-18.5 1l14-30c-6.17-12.347-12.84-24.347-20-36z" opacity=".939"/></g><path fill="#f3f3f3" d="M1547.5 706.5c-1.53 2.889-2.53 5.722-3 8.5l1 .5c.75-.876 1.25-1.876 1.5-3 .37 2.78 1.37 4.78 3 6 1.54.733 3.37.733 5.5 0 1.79 2.422 3.45 2.422 5 0l10 2c5.49-1.286 11.16-1.953 17-2 8.22-.182 16.05.485 23.5 2 2.09-.379 4.09-1.046 6-2 10.91 1.095 21.57 1.095 32 0 6.23 1.681 12.39 2.348 18.5 2 1.32-1.568 3.66-2.235 7-2 2.32.229 4.49.896 6.5 2 16.7-1.822 33.36-2.488 50-2 5.59 1.309 11.42 1.975 17.5 2 13.69-.224 27.36-.89 41-2h581l44-.5c1.18-1.678 2.35-1.512 3.5.5 17.68-1.237 35.35-1.237 53 0 1.67-2.667 3.33-2.667 5 0h54.5c1.49-.209 2.66-.876 3.5-2 .31.808.81 1.475 1.5 2h184l-663.5 2-1-1-139 3-359.5-.5c-4.06-1.191-8.06-2.691-12-4.5-1.86-4.531-.86-8.198 3-11z" opacity=".019"/><g fill="#fefefe"><path d="M1812.5 774.5c-.11 2.403.89 4.236 3 5.5l-1 1a4.94 4.94 0 0 0 3 .5c-.25 2.327.41 4.327 2 6-1.23 1.898-.9 3.565 1 5-1.45 2.144-1.12 3.977 1 5.5.19 1.867-.15 3.867-1 6 1.43 1.889 2.1 4.055 2 6.5v264c-.73 2.58-1.73 5.08-3 7.5a4.5 4.5 0 0 1 2 1.5c-.35 1.2-.85 1.2-1.5 0l-1.5 3 2 7.5c-1.1 9.57-1.1 19.24 0 29-1.75 2.37-2.08 4.87-1 7.5a14.93 14.93 0 0 1-3 3.5c.56.38.89.88 1 1.5-4.72 2.51-9.88 3.51-15.5 3-15.81-1.28-31.64-2.11-47.5-2.5-3.11-.62-4.95-2.46-5.5-5.5l-.5-204c-2.76.244-4.93 1.577-6.5 4-1.46 2.472-2.46 5.139-3 8-6.26 6.362-11.26 13.695-15 22-4.44 4.283-7.94 9.283-10.5 15-1.26.882-2.43 1.882-3.5 3l-34 55a518.46 518.46 0 0 0-18 25c-1.28 2.22-2.28 4.55-3 7a1555.42 1555.42 0 0 1-42.5 63c-2.82-.18-4.49 1.15-5 4a25.11 25.11 0 0 0-8 6.5c-4.67.84-9.01 2.5-13 5-19.23 1.7-33.07-6.13-41.5-23.5-1.13-1.85-1.63-3.85-1.5-6 .27-4.35-.4-8.52-2-12.5 1.23-2.66.89-5.33-1-8a34.44 34.44 0 0 0 1.5-11.5c-1.16 1.49-1.99 1.33-2.5-.5 2.63-5.25 2.63-10.08 0-14.5.35-1.2.85-1.2 1.5 0 .16-7.91-.34-15.74-1.5-23.5a165.11 165.11 0 0 0 0-34l2-4c-1.54-3.34-2.54-6.838-3-10.5.91-2.602.91-5.435 0-8.5 1.35-1.574 2.01-3.407 2-5.5l-2-27.5c.81-12.069.81-24.069 0-36 .06-1.711-.61-3.044-2-4 .12-1.268.45-2.602 1-4-1-.667-2-.667-3 0-2.02 1.593-4.35 3.593-7 6l1 1-5 6c.56.383.89.883 1 1.5-1.89 4.415-4.06 8.749-6.5 13a141.66 141.66 0 0 0-8 9 32.01 32.01 0 0 1-3 7l-17.5 24.5a155.64 155.64 0 0 0-7 13.5c-10.22 14.75-20.22 29.75-30 45a148.8 148.8 0 0 1-15.5 25 283.3 283.3 0 0 1-21 33c-5.81 12.29-12.64 23.96-20.5 35-2.47 1.3-4.8 2.8-7 4.5l-65 1.5c-8.36-.8-10.19-4.8-5.5-12 8.16-11.49 15.49-23.49 22-36 4.45-5.13 8.12-10.79 11-17a1255.05 1255.05 0 0 0 44.5-65.5 230.38 230.38 0 0 0 18.5-32.5 403.71 403.71 0 0 0 26-39l3-2 33-54c9.53-15.097 19.53-29.764 30-44 6.23-10.479 12.23-21.146 18-32 6.12-7.305 11.28-15.305 15.5-24 8.01-11.595 19.18-17.595 33.5-18a46.76 46.76 0 0 1 16.5 4.5c9.49 5.876 15.33 14.376 17.5 25.5l3 184 1 19c.37 1.41 1.2 2.41 2.5 3l32.5-50a11.46 11.46 0 0 0 4-4 50.7 50.7 0 0 0 6-12c2.88-1.409 4.55-3.743 5-7a118.31 118.31 0 0 1 12.5-17l19.5-33c9.05-13.726 18.38-27.392 28-41 11.73-20.906 24.9-40.906 39.5-60 2.76-1.253 5.09-3.087 7-5.5 11.99-3.305 23.99-3.305 36 0a36.51 36.51 0 0 1 9 8.5z" opacity=".926"/><path d="M1049.5 1138.5c-.62.11-1.12.44-1.5 1l-.5 26.5 5.5 5.5 12.5-2h183l13 2 55-2c85.11 1.25 170.11 1.25 255 0 2.58.98 5.25 1.65 8 2 11.17-1.32 22.34-1.32 33.5 0a22.63 22.63 0 0 0 5.5-2h134c6.65.85 13.31 1.51 20 2l96-1 176.5 1 5.5-.5c-1.2-.65-1.2-1.15 0-1.5 2.43 2.45 4.93 2.45 7.5 0 23.81 1.18 47.81 1.18 72 0 15.36 2.25 30.69 2.25 46 0h284c1.76 1.58 3.26 3.25 4.5 5a285.51 285.51 0 0 1-5 8 88.31 88.31 0 0 1-9.5 8c-.48.95-.65 1.95-.5 3-2.76 1.58-5.43 3.41-8 5.5-8.24 8.5-16.24 17.17-24 26-2.8 2.21-5.8 4.21-9 6h-1427c-1.504-1.49-2.337-3.32-2.5-5.5-1.423-35.64-1.923-71.31-1.5-107 1.315-7.13 1.981-14.46 2-22-.525-9.18-1.192-18.34-2-27.5a1102.68 1102.68 0 0 1 1-34.5l-2-69a147.74 147.74 0 0 1 2-12c-2.045-2.175-2.378-4.675-1-7.5-.146-2.76-.813-5.26-2-7.5a180.87 180.87 0 0 0-.5-19c-1.494-1.247-2.994-1.247-4.5 0a1331.96 1331.96 0 0 1-28.5 42 816.82 816.82 0 0 1-30.5 48.5l-81 129c-3.384 1.96-7.05 2.79-11 2.5-20.64-1.52-41.307-2.69-62-3.5-3.735-3.88-3.902-8.05-.5-12.5l59-86c12.163-19.13 23.829-38.47 35-58a3327.85 3327.85 0 0 0 89-141c3.743-5.808 7.743-11.475 12-17 4.564-9.688 10.231-18.688 17-27 5.22-11.881 12.72-22.048 22.5-30.5 15.05-7.288 29.38-6.121 43 3.5 4.94 4.663 8.11 10.33 9.5 17 1.05 15.649 1.72 31.315 2 47l3.5 305z" opacity=".929"/><path d="M2861.5 1016.5l-2 7.5c1.4 14.91 2.07 30.24 2 46-.57 14.63-.57 29.13 0 43.5-1.97 2.86-2.64 5.86-2 9a30.72 30.72 0 0 1-12.5 4c-17.29-.05-34.46-.38-51.5-1-.77-1.61-1.77-3.11-3-4.5.41-.95 1.07-1.61 2-2-1.65-6.13-2.65-12.46-3-19 1.39-10.29 2.06-20.95 2-32l-.5-17.5c-.65 3.44-1.15 3.6-1.5.5.34-1.37 1.01-2.53 2-3.5a9.3 9.3 0 0 1-2-2.5c1.98-4.64 2.48-9.48 1.5-14.5l-1 7-.5-4.5c.82-19.66.65-39.832-.5-60.5l-.5-200.5c1.32-.816 1.99-1.983 2-3.5.56-1.29 1.56-2.123 3-2.5l104-2.5c25.69-.314 51.03 2.186 76 7.5 66.66 21.478 96.82 67.645 90.5 138.5-.66 8.949-2.32 17.616-5 26-8.23 22.276-21.73 40.776-40.5 55.5a187.57 187.57 0 0 0-24.5 15.5c-7.87 3.85-16.04 7.01-24.5 9.5-2.24 1.42-3.91 3.26-5 5.5 7.29 8.13 15.13 15.79 23.5 23 1.61 3.94 4.28 6.94 8 9l17 20c15.31 13.47 30.14 27.47 44.5 42l4 6c-.03 1.53-.7 2.7-2 3.5l-58.5 1.5c-9.58-.12-19.08-.95-28.5-2.5l-13-10.5-61.5-63c-.48-.95-.65-1.95-.5-3-1.05.15-2.05-.02-3-.5a319.72 319.72 0 0 1-29-31c-2.33-2.09-4.33-1.92-6 .5zm18-182a665.56 665.56 0 0 1 58 1.5c12.28 1.628 23.95 5.128 35 10.5 4.44 2.973 8.61 6.306 12.5 10 1.57 2.654 3.24 5.321 5 8 5.36 13.461 7.02 27.461 5 42a144.18 144.18 0 0 0-6 15c-2.76.999-4.09 2.999-4 6-5.89 4.887-12.05 9.387-18.5 13.5l-30 12c-16.56 3.631-33.22 6.631-50 9-7.42 2.432-13.42 6.766-18 13-1.72 1.559-3.72 2.392-6 2.5a2126.26 2126.26 0 0 1-1.5-136 11.06 11.06 0 0 1 5.5-5.5c4.52-.175 8.85-.675 13-1.5z" opacity=".92"/><path d="M2550.5 854.5c-.02 16.062-.68 32.396-2 49a754.14 754.14 0 0 1 3 64c-1.24 3.138-1.91 6.472-2 10 .05 6.282.72 12.448 2 18.5-.59 11.39-.92 22.56-1 33.5.12 2.99.79 5.82 2 8.5-.72 2.46-1.38 4.96-2 7.5.76 1.95 1.09 3.78 1 5.5-1.32 8.1-1.98 16.43-2 25l.5 24.5a4.5 4.5 0 0 1 1.5 2c-1.21 1.22-1.21 2.39 0 3.5l-2 2c-.29 1.39.05 2.89 1 4.5-3.48 12.32-11.48 20.15-24 23.5-12.67 2.39-23.67-.78-33-9.5a21.58 21.58 0 0 0-7.5-8c-27.72-42.43-56.39-84.43-86-126-12.47-19.142-25.47-37.808-39-56-1.57-4.001-3.57-7.668-6-11-5-7.321-10.33-14.321-16-21-.77.145-1.44.478-2 1l-1 27-3 181c-2.14 4.75-4.47 9.42-7 14a66.38 66.38 0 0 1-16.5 10.5 32.81 32.81 0 0 1-15 1c-9.24-3.59-17.08-9.09-23.5-16.5l-22-34-30-42c-4.28-8.4-9.45-16.23-15.5-23.5-.75-3.65-2.58-6.49-5.5-8.5-.79-3.79-2.79-6.79-6-9l-74-109c-1.1-3.689-3.1-6.689-6-9a697.7 697.7 0 0 0-35-51c-1.9-1.941-2.74-4.274-2.5-7h-3c.15-1.052-.02-2.052-.5-3-6.73-8.437-12.73-17.437-18-27-3.36-5.024-7.36-9.358-12-13-.95.405-1.61 1.072-2 2l-1 41c-1.49 2.456-3.32 4.622-5.5 6.5-17.31 1.249-34.64 2.083-52 2.5-15.99-.944-31.99-1.111-48-.5-3.53.86-5.69 3.027-6.5 6.5-.67 21-.67 42 0 63 1.05 1.59 2.21 3.09 3.5 4.5a112.98 112.98 0 0 0 15 .5c1.1.897 1.1 1.73 0 2.5a35.54 35.54 0 0 0 12.5-.5l41 2c1.01-.392 1.51-1.059 1.5-2a7.24 7.24 0 0 1 2.5 2l9-2 2 2c2.12-1.105 4.29-1.105 6.5 0 1.52.011 2.68.677 3.5 2 .67 20 .67 40 0 60a14.08 14.08 0 0 1-6.5 4.5l-84 .5c-.28-.789-.78-1.456-1.5-2-1.21 1.549-2.71 2.715-4.5 3.5l1 1c-1.98.605-2.31 1.605-1 3-.76 1.441-1.43 2.941-2 4.5-.66 22 .01 44.17 2 66.5a4.68 4.68 0 0 1-2 3c1.85 1.68 3.52 3.52 5 5.5 33.5 1.29 67.5 1.29 102 0 2.33-.25 4.33.41 6 2 1.17 19.66 1.33 39.32.5 59-1.92 1.04-3.75 2.21-5.5 3.5a2283.29 2283.29 0 0 1-163 0c-1.81-.76-3.48-1.59-5-2.5-1.23-1.51-1.23-3.01 0-4.5-2.07-.32-2.4-1.16-1-2.5-2-2.97-3-6.31-3-10V954c0-43.211.67-86.211 2-129-.83-7.72-.83-15.553 0-23.5-.36-2.509-1.03-4.676-2-6.5.41-1.93 1.08-3.764 2-5.5l-2-6c.87-5.641 3.87-9.641 9-12 1.34 1.402 2.18 1.069 2.5-1 5.61 1.246 11.28 1.246 17 0l2.5 1c-1.58.798-3.24 1.298-5 1.5a240.38 240.38 0 0 0 31 0l-25-1 108.5-1.5a663.97 663.97 0 0 0 31.5 1.5c-1.2.654-1.2 1.154 0 1.5a11.24 11.24 0 0 1 3.5-1 413.54 413.54 0 0 0 11.5 2h36.5a209.92 209.92 0 0 0 13-2h6c1.56 2.135 3.39 2.468 5.5 1a15.02 15.02 0 0 1 8 2.5c13.23 16.321 25.06 33.488 35.5 51.5l3 2a985.01 985.01 0 0 1 28 45c2.84 2.863 5.51 5.863 8 9l35 54c6.22 7.421 12.22 15.088 18 23a83.94 83.94 0 0 0 10.5 16c.75 1.236 1.08 2.57 1 4-.29 2.323.21 4.656 1.5 7 2.82 3.459 5.66 6.292 8.5 8.5 1.57.699 2.91.365 4-1l-1-3c2.49-2.244 2.49-4.577 0-7 .86-21.916.86-43.749 0-65.5a708.03 708.03 0 0 1 3-59c-.35-2.589-1.02-5.089-2-7.5.25-1.326.92-2.326 2-3-1.29-3.571-1.96-7.405-2-11.5 1.03-11.569 1.03-23.069 0-34.5l2-3c-.43-3.047-.43-6.214 0-9.5 1.8-5.951 4.8-11.118 9-15.5 2.8-1.477 5.3-3.31 7.5-5.5 11.8-5.141 23.64-5.308 35.5-.5 4.83 3.491 9.49 7.158 14 11l86.5 126.5c5.28 8.786 10.78 17.452 16.5 26a93.39 93.39 0 0 0 13.5 17c5.25 10.203 11.25 19.87 18 29 1.99 2.405 4.32 3.072 7 2l-.5-185.5.5-17.5c.41-2.732 1.08-5.399 2-8 1.07-.691 2.23-1.191 3.5-1.5 19.67-.667 39.33-.667 59 0a29.61 29.61 0 0 1 4.5 2.5 46.1 46.1 0 0 1 2 12l.5 71z" opacity=".924"/><path d="M2706.5 834.5c-15.14-1.769-30.47-2.269-46-1.5-2.97.763-5.47 2.263-7.5 4.5l-.5 69c.54 1.248 1.21 2.415 2 3.5l-1 1c2.92.668 6.09 1.501 9.5 2.5 27.41-1.184 54.91-1.184 82.5 0 .88 1.26 1.88 2.426 3 3.5l-1 1a11.38 11.38 0 0 1 1.5 3.5c.44 18.164.61 36.164.5 54-1.07 2.24-2.73 4.074-5 5.5l-84 1c-2.5.51-4 2.01-4.5 4.5-.5 15-.67 30-.5 45-.99 7.99-1.33 15.82-1 23.5.81 1.71 2.14 2.54 4 2.5-.19 1.6.31 2.94 1.5 4l1-2a7.24 7.24 0 0 0 2.5 2c8.34-.43 17.01-1.09 26-2 5.59.56 11.09.56 16.5 0 3.44.79 6.94 1.45 10.5 2a16.28 16.28 0 0 0 5-2c6.84.67 13.67 1 20.5 1l2.5-.5c-1.1-.77-1.1-1.6 0-2.5h1c.11.62.44 1.12 1 1.5l12 1c1.45 1.52 2.95 1.68 4.5.5 1.22.77 2.22 1.77 3 3 .76 5.34.59 10.5-.5 15.5.46 10.69 1.46 21.36 3 32-1.09 3.31-1.43 6.47-1 9.5-.15 3.81-2.15 5.48-6 5-56.64-.31-112.97-.31-169 0a2.99 2.99 0 0 1-2-2c-.7-33.53-.7-67.53 0-102a1116.92 1116.92 0 0 1-1.5-67l1 11 .5-6c-1.02-7.574-1.68-15.074-2-22.5a9.24 9.24 0 0 1 2-2.5c-.75-3.277-1.25-6.61-1.5-10-.8 3.924-1.3 3.924-1.5 0 0-3.102.5-3.435 1.5-1l.5-2c.6-3.881-.07-7.715-2-11.5.96-1.365 1.62-2.865 2-4.5-1.1-2.22-1.1-4.387 0-6.5l-2-5c2.09-4.059 2.42-8.225 1-12.5l2-10.5c-1.66-15.837-2.66-31.837-3-48 1.94-6.001 2.44-12.168 1.5-18.5l-1 9c-.19-2.208-.69-4.208-1.5-6-.27-12.371.06-24.704 1-37 1.6.188 2.94-.312 4-1.5l137.5-1.5c10.21-.101 20.38.399 30.5 1.5 2.27 2.344 3.44 5.178 3.5 8.5.23 13.516.73 27.016 1.5 40.5.1 5.924-1.9 10.924-6 15l-4 1c-16 .5-32 .667-48 .5z" opacity=".919"/></g><path fill="#f4f4f4" d="M2108.5 773.5c-2.11 1.468-3.94 1.135-5.5-1h-6a209.92 209.92 0 0 1-13 2c-12.12-.144-24.29-.144-36.5 0l-11.5-2a11.24 11.24 0 0 0-3.5 1c-1.2-.346-1.2-.846 0-1.5a663.97 663.97 0 0 1-31.5-1.5l-108.5 1.5 25 1a240.38 240.38 0 0 1-31 0c1.76-.202 3.42-.702 5-1.5l-2.5-1c-5.72 1.246-11.39 1.246-17 0-.32 2.069-1.16 2.402-2.5 1-5.13 2.359-8.13 6.359-9 12l2 6c-.92 1.736-1.59 3.57-2 5.5.97 1.824 1.64 3.991 2 6.5-.83 7.947-.83 15.78 0 23.5-1.33 42.789-2 85.789-2 129v159.5c0 3.69 1 7.03 3 10-1.4 1.34-1.07 2.18 1 2.5-1.23 1.49-1.23 2.99 0 4.5-2.69-.52-4.19-2.19-4.5-5l1-350c2.18-2.916 5.02-4.75 8.5-5.5l237 1c.88.708 1.55 1.542 2 2.5z" opacity=".021"/><path fill="#fefefe" d="M1258.5 770.5a881.87 881.87 0 0 1 42 .5c1.91 1.87 4.07 3.37 6.5 4.5 1.64 19.91 1.98 39.91 1 60-.95 2.07-2.45 3.57-4.5 4.5l-37.5 2.5-1-1c-9.33 2.117-18.83 3.284-28.5 3.5-4.06.351-7.72 1.685-11 4a136.19 136.19 0 0 0-16 3 108.01 108.01 0 0 0-21 9.5c-4.59 4.497-9.59 8.497-15 12-4.91 6.761-10.08 13.428-15.5 20-11.06 23.156-14.73 47.49-11 73 2.27 14.97 5.6 29.636 10 44a212.7 212.7 0 0 1 10 17c3.25 3.48 6.42 7.15 9.5 11 4.27 3.28 8.27 6.78 12 10.5a559.32 559.32 0 0 0 21 10c4.82.83 9.49 2.16 14 4 5.35.52 10.69 1.19 16 2 20.67.35 41.34.35 62 0 1.92.36 3.59 1.19 5 2.5 1.73 3.43 2.89 7.09 3.5 11a752.74 752.74 0 0 1 0 55c-1.42.96-2.92 1.79-4.5 2.5-28.45 3.91-56.78 3.25-85-2a198.55 198.55 0 0 0-25-5c-9.99-2.91-19.66-6.58-29-11a492.38 492.38 0 0 0-26-15.5c-7.9-6.39-15.4-13.39-22.5-21-23.64-30.19-37.97-64.52-43-103-5.92-39.953-.09-77.953 17.5-114 13.22-25.053 31.55-45.553 55-61.5 23.05-12.833 47.72-21.833 74-27 10.95-1.564 21.95-2.564 33-3a51.22 51.22 0 0 1 4-2.5z" opacity=".916"/><path fill="#f5f5f5" d="M2590.5 1123.5c-1.28-2.06-2.11-4.4-2.5-7l-1.5-309c.81 1.792 1.31 3.792 1.5 6l1-9c.94 6.332.44 12.499-1.5 18.5.34 16.163 1.34 32.163 3 48l-2 10.5c1.42 4.275 1.09 8.441-1 12.5l2 5c-1.1 2.113-1.1 4.28 0 6.5-.38 1.635-1.04 3.135-2 4.5 1.93 3.785 2.6 7.619 2 11.5l-.5 2c-1-2.435-1.5-2.102-1.5 1 .2 3.924.7 3.924 1.5 0 .25 3.39.75 6.723 1.5 10a9.24 9.24 0 0 0-2 2.5c.32 7.426.98 14.926 2 22.5l-.5 6-1-11a1116.92 1116.92 0 0 0 1.5 67c-.7 34.47-.7 68.47 0 102z" opacity=".142"/><path fill="#f4f4f4" d="M1812.5 774.5a79.26 79.26 0 0 1 6.5 8 175.38 175.38 0 0 1 4 18l.5 283.5c-1.66 15.06-2.49 30.22-2.5 45.5-.01 2.76-1.17 4.76-3.5 6-.11-.62-.44-1.12-1-1.5a14.93 14.93 0 0 0 3-3.5c-1.08-2.63-.75-5.13 1-7.5-1.1-9.76-1.1-19.43 0-29-.72-2.46-1.38-4.96-2-7.5l1.5-3c.65 1.2 1.15 1.2 1.5 0a4.5 4.5 0 0 0-2-1.5c1.27-2.42 2.27-4.92 3-7.5v-264c.1-2.445-.57-4.611-2-6.5.85-2.133 1.19-4.133 1-6-2.12-1.523-2.45-3.356-1-5.5-1.9-1.435-2.23-3.102-1-5-1.59-1.673-2.25-3.673-2-6a4.94 4.94 0 0 1-3-.5l1-1c-2.11-1.264-3.11-3.097-3-5.5z" opacity=".068"/><path fill="#f3f3f3" d="M2271.5 791.5c-.43 3.286-.43 6.453 0 9.5l-2 3c1.03 11.431 1.03 22.931 0 34.5.04 4.095.71 7.929 2 11.5-1.08.674-1.75 1.674-2 3 .98 2.411 1.65 4.911 2 7.5a708.03 708.03 0 0 0-3 59c.86 21.751.86 43.584 0 65.5 2.49 2.423 2.49 4.756 0 7l1 3c-1.09 1.365-2.43 1.699-4 1-2.84-2.208-5.68-5.041-8.5-8.5-1.29-2.344-1.79-4.677-1.5-7 2.86 2.702 5.19 5.869 7 9.5 1.49 1.368 2.99 1.535 4.5.5l2-189c.31-3.59 1.14-6.923 2.5-10z" opacity=".054"/><path fill="#f4f4f4" d="M2706.5 834.5a1259.94 1259.94 0 0 1-48 1.5 9.39 9.39 0 0 0-2.5 1.5 586.16 586.16 0 0 0-1 68c.5 3.167 2.33 5 5.5 5.5h78c5.11-.583 8.94 1.25 11.5 5.5a582.66 582.66 0 0 1-.5 59c.11-17.836-.06-35.836-.5-54a11.38 11.38 0 0 0-1.5-3.5l1-1c-1.12-1.074-2.12-2.24-3-3.5-27.59-1.184-55.09-1.184-82.5 0-3.41-.999-6.58-1.832-9.5-2.5l1-1c-.79-1.085-1.46-2.252-2-3.5l.5-69c2.03-2.237 4.53-3.737 7.5-4.5 15.53-.769 30.86-.269 46 1.5z" opacity=".068"/><path fill="#f2f2f2" d="M1944.5 912.5l70 .5c2.38.223 4.05 1.39 5 3.5-2.21-1.105-4.38-1.105-6.5 0l-2-2-9 2a7.24 7.24 0 0 0-2.5-2c.01.941-.49 1.608-1.5 2l-41-2a35.54 35.54 0 0 1-12.5.5c1.1-.77 1.1-1.603 0-2.5z" opacity=".061"/><path fill="#f4f4f4" d="M1543.5 1114.5c-.58-3.73-1.74-7.4-3.5-11l-1-11-3-177c-1.05-1.017-2.22-1.184-3.5-.5a53.62 53.62 0 0 1-8 9.5c-.11-.617-.44-1.117-1-1.5l5-6-1-1c2.65-2.407 4.98-4.407 7-6 1-.667 2-.667 3 0-.55 1.398-.88 2.732-1 4 1.39.956 2.06 2.289 2 4 .81 11.931.81 23.931 0 36l2 27.5c.01 2.093-.65 3.926-2 5.5.91 3.065.91 5.898 0 8.5.46 3.662 1.46 7.16 3 10.5l-2 4a165.11 165.11 0 0 1 0 34c1.16 7.76 1.66 15.59 1.5 23.5-.65-1.2-1.15-1.2-1.5 0 2.63 4.42 2.63 9.25 0 14.5.51 1.83 1.34 1.99 2.5.5a34.44 34.44 0 0 1-1.5 11.5c1.89 2.67 2.23 5.34 1 8 1.6 3.98 2.27 8.15 2 12.5z" opacity=".133"/><g fill="#f2f2f2"><path d="M2792.5 768.5c-.01 1.517-.68 2.684-2 3.5l.5 200.5c1.15 20.668 1.32 40.84.5 60.5l.5 4.5 1-7c.98 5.02.48 9.86-1.5 14.5a9.3 9.3 0 0 0 2 2.5c-.99.97-1.66 2.13-2 3.5.35 3.1.85 2.94 1.5-.5l.5 17.5c.06 11.05-.61 21.71-2 32 .35 6.54 1.35 12.87 3 19-.93.39-1.59 1.05-2 2 1.23 1.39 2.23 2.89 3 4.5-3.34-.98-4.84-3.32-4.5-7l-1-348c.71-.881 1.54-1.547 2.5-2z" opacity=".041"/><path d="M1932.5 983.5c-2.06 1.91-3.56 4.243-4.5 7-.67 23.33-.67 46.67 0 70 .16 2.18 1 4.01 2.5 5.5l101 2.5c-34.5 1.29-68.5 1.29-102 0-1.48-1.98-3.15-3.82-5-5.5a4.68 4.68 0 0 0 2-3c-1.99-22.33-2.66-44.5-2-66.5.57-1.559 1.24-3.059 2-4.5-1.31-1.395-.98-2.395 1-3l-1-1c1.79-.785 3.29-1.951 4.5-3.5.72.544 1.22 1.211 1.5 2z" opacity=".085"/><path d="M975.5 938.5c1.187 2.24 1.854 4.74 2 7.5-1.378 2.825-1.045 5.325 1 7.5a147.74 147.74 0 0 0-2 12l2 69-1 34.5 2 27.5c-.019 7.54-.685 14.87-2 22l-2-180z" opacity=".042"/></g><g fill="#f3f3f3"><path d="M2550.5 854.5a5512.34 5512.34 0 0 1 1.5 254c-.21 1.56-.71 2.89-1.5 4-.95-1.61-1.29-3.11-1-4.5l2-2c-1.21-1.11-1.21-2.28 0-3.5a4.5 4.5 0 0 0-1.5-2l-.5-24.5c.02-8.57.68-16.9 2-25 .09-1.72-.24-3.55-1-5.5.62-2.54 1.28-5.04 2-7.5-1.21-2.68-1.88-5.51-2-8.5.08-10.94.41-22.11 1-33.5-1.28-6.052-1.95-12.218-2-18.5.09-3.528.76-6.862 2-10a754.14 754.14 0 0 0-3-64c1.32-16.604 1.98-32.938 2-49z" opacity=".095"/><path d="M2655.5 1031.5c.83 7.49 1.33 15.16 1.5 23 2.79 3.46 6.46 5.12 11 5l76.5-2c-1.1.9-1.1 1.73 0 2.5l-2.5.5c-6.83 0-13.66-.33-20.5-1a16.28 16.28 0 0 1-5 2c-3.56-.55-7.06-1.21-10.5-2-5.41.56-10.91.56-16.5 0-8.99.91-17.66 1.57-26 2a7.24 7.24 0 0 1-2.5-2l-1 2c-1.19-1.06-1.69-2.4-1.5-4-1.86.04-3.19-.79-4-2.5-.33-7.68.01-15.51 1-23.5z" opacity=".121"/><path d="M2745.5 1057.5a73.84 73.84 0 0 1 19 1.5c1.54 1.58 2.71 3.41 3.5 5.5 1.52 15.72 2.36 31.05 2.5 46-.64 2.97-1.14 5.97-1.5 9-.38.56-.88.89-1.5 1-.43-3.03-.09-6.19 1-9.5-1.54-10.64-2.54-21.31-3-32 1.09-5 1.26-10.16.5-15.5-.78-1.23-1.78-2.23-3-3-1.55 1.18-3.05 1.02-4.5-.5l-12-1c-.56-.38-.89-.88-1-1.5z" opacity=".126"/><path d="M2761.5 1125.5l-152.5 3-12.5-.5-4-2.5h169z" opacity=".031"/></g><path fill="#f2f2f2" d="M2861.5 1016.5c1.09 33.99 1.25 67.99.5 102a20.69 20.69 0 0 1-2 6c-4.03 1.54-8.2 2.71-12.5 3.5-16 .67-32 .67-48 0-1.57-.61-2.9-1.44-4-2.5 17.04.62 34.21.95 51.5 1a30.72 30.72 0 0 0 12.5-4c-.64-3.14.03-6.14 2-9-.57-14.37-.57-28.87 0-43.5.07-15.76-.6-31.09-2-46a139.79 139.79 0 0 1 2-7.5z" opacity=".031"/><path d="M2899.5 1161.5c11.72-1.74 19.22 2.93 22.5 14 .07 4.19.91 8.19 2.5 12a116.91 116.91 0 0 1 18.5 7c1.15-.96 2.15-.62 3 1 5.04-1.96 10.87-3.63 17.5-5 6.76.8 12.92 3.13 18.5 7 5.58-3.81 11.75-6.14 18.5-7 13.8 1.26 18.96 8.59 15.5 22a546.12 546.12 0 0 1-31.5 58.5c-7.29 5.51-15.29 6.85-24 4-6.94-3.8-9.44-9.63-7.5-17.5 1.62-5.23 3.78-10.23 6.5-15 0-2.24-.33-4.57-1-7-4.83 5.33-9.83 10.5-15 15.5a36.23 36.23 0 0 1-11 4c-10.34.22-20.67-.12-31-1-9.05-1.72-13.88-7.22-14.5-16.5-.67-20-.67-40 0-60 1.07-7.89 5.24-13.22 12.5-16z" opacity=".072"/><path d="M2555.5 1163.5c15.15-1.58 29.15 1.59 42 9.5 6.19 6.26 12.03 12.76 17.5 19.5 12.5-1.58 25.34-2.58 38.5-3-1.55-13.92 4.45-22.26 18-25 13.91 2.05 19.91 9.88 18 23.5l2 2c4.71.38 9.38 1.04 14 2 3.27 1.8 6.6 3.3 10 4.5 5.75-3.08 11.92-5.08 18.5-6a66.25 66.25 0 0 1 16.5 5c5.51-2.11 11.18-3.95 17-5.5a36.07 36.07 0 0 1 12 0 117.28 117.28 0 0 1 19 7.5c4.69-2.86 9.69-5.02 15-6.5 39.67-8.32 56.84 7.51 51.5 47.5-3.13 13.16-11.3 17.99-24.5 14.5l-9-4.5c-7.02 5.18-14.69 6.68-23 4.5-2.96-1.97-6.13-3.47-9.5-4.5a132.72 132.72 0 0 1-17.5 6.5c-18.08 2.63-31.74-3.87-41-19.5-1.76.63-3.26 1.63-4.5 3-7.47 15.49-18.64 18.99-33.5 10.5-3.14-4.64-6.47-9.14-10-13.5-1.39 1.11-2.56 2.44-3.5 4-3.69 12.43-11.85 16.93-24.5 13.5-4.9-1.9-8.07-5.4-9.5-10.5a411.75 411.75 0 0 0-3-18c-4.41-1.96-7.41-.63-9 4-.27 5.8-1.27 11.47-3 17-7.18 9.34-16.02 11.17-26.5 5.5-2.89-3.63-5.89-7.13-9-10.5-15.18 12.63-32.51 17.13-52 13.5-8.39-2.25-12.89-7.75-13.5-16.5a808.46 808.46 0 0 1 0-57c1.68-9.51 7.18-15.18 16.5-17z" opacity=".075"/><path d="M3069.5 1164.5c9.82-1.79 17.66 1.21 23.5 9 3.91 8.81 8.07 17.48 12.5 26 .59-.21 1.09-.54 1.5-1 .21-7.05.88-14.05 2-21 4.56-12.09 13.06-15.92 25.5-11.5 7.51 4.18 11.01 10.68 10.5 19.5.67 15.67.67 31.33 0 47-1.73 19.61-12.06 26.27-31 20-8.68 3.42-17.51 2.59-26.5-2.5-4.12-7.4-10.12-9.73-18-7-7.3 10.24-16.97 13.57-29 10-6.02-2.73-8.69-7.4-8-14a36.37 36.37 0 0 1 1.5-9.5 991.37 991.37 0 0 1 24-57c3.15-3.81 6.98-6.48 11.5-8z" opacity=".071"/><path fill="#f4f4f4" d="M2464.5 1174.5c-1.24-1.75-2.74-3.42-4.5-5h-284c-15.31 2.25-30.64 2.25-46 0-24.19 1.18-48.19 1.18-72 0-2.57 2.45-5.07 2.45-7.5 0-1.2.35-1.2.85 0 1.5l-5.5.5-176.5-1 51-.5-26-1c9.18-.17 18.18-.67 27-1.5l221.5 1 316.5-1.5c5.56.01 7.56 2.51 6 7.5z" opacity=".151"/><path fill="#f1f1f1" d="M1049.5 1138.5c-.65 9.52.19 18.85 2.5 28 .75.63 1.58 1.13 2.5 1.5l866-.5c-8.82.83-17.82 1.33-27 1.5l26 1-51 .5-96 1c-6.69-.49-13.35-1.15-20-2h-134a22.63 22.63 0 0 1-5.5 2c-11.16-1.32-22.33-1.32-33.5 0-2.75-.35-5.42-1.02-8-2-84.89 1.25-169.89 1.25-255 0l-55 2-13-2h-183l-12.5 2-5.5-5.5a823.82 823.82 0 0 1 .5-26.5c.38-.56.88-.89 1.5-1z" opacity=".026"/><path d="M2912.5 1168.5c-.17 10.67 0 21.34.5 32 8.72-5.13 17.55-5.3 26.5-.5 8.82 8.13 11.32 17.96 7.5 29.5-5.84 11.5-15 15.67-27.5 12.5-2.6-.88-4.77-2.38-6.5-4.5-.49 1.29-.66 2.63-.5 4h-15v-73h15zm-338 3c19.16 3.45 29.5 14.95 31 34.5-.83 18.49-10.16 30.16-28 35-9.33.5-18.66.67-28 .5v-70h25z" opacity=".999" fill="#804f9e"/><path fill="#7e4d9b" d="M2668.5 1170.5c10.25-.49 14.08 4.18 11.5 14-6.36 6.51-12.02 5.84-17-2-1.13-5.41.71-9.41 5.5-12z" opacity=".998"/><path fill="#7f4e9d" d="M3067.5 1170.5c5.26-.3 10.43.03 15.5 1l28.5 69.5a80.85 80.85 0 0 1-18 0 94.7 94.7 0 0 1-5-12.5 113.06 113.06 0 0 0-26-.5c-2.16 4.33-3.83 8.83-5 13.5h-18l28-71z" opacity=".999"/><path fill="#7d4d9a" d="M3118.5 1170.5h16v71h-17c-.32-23.74.01-47.41 1-71z" opacity=".996"/><path d="M2912.5 1168.5h-15v73c-1-24.49-1.33-49.16-1-74 5.53-.32 10.86.01 16 1zm-338 3h-25v70c-1-23.49-1.33-47.16-1-71 8.85-.33 17.52.01 26 1z" opacity=".486" fill="#694081"/><path d="M2565.5 1185.5c18.61 2.52 25.11 12.86 19.5 31-4.34 7.51-10.84 10.84-19.5 10v-41z" opacity=".111"/><path fill="#7f4e9d" d="M2640.5 1196.5a60.39 60.39 0 0 1 11 .5c1.5.58 2.83 1.42 4 2.5-2.08 4.49-4.41 8.83-7 13-3.73-2.01-7.73-2.51-12-1.5l-2.5 2.5a137.68 137.68 0 0 0-1.5 28h-16v-44h16c-.16 1.7.01 3.37.5 5 2.11-2.62 4.61-4.62 7.5-6z"/><path fill="#7e4d9b" d="M2766.5 1196.5c20-2.39 30 6.28 30 26h-31c-.03 4.1 1.97 6.6 6 7.5 5.3.9 9.8-.6 13.5-4.5 2.98 1.88 6.14 3.38 9.5 4.5.52.56.86 1.23 1 2-5.16 7.75-12.5 11.58-22 11.5-19.27-2.42-27.11-13.09-23.5-32 3.19-7.66 8.69-12.66 16.5-15z" opacity=".999"/><path fill="#804e9d" d="M2830.5 1196.5c8.79-1.57 16.29.77 22.5 7a23.01 23.01 0 0 1 2 5 541.86 541.86 0 0 1 .5 33h-16c.17-9.34 0-18.67-.5-28-5.33-6.81-10.33-6.48-15 1a362.8 362.8 0 0 0-.5 27h-16v-44h16c-.16 1.37.01 2.71.5 4 1.97-2.05 4.13-3.72 6.5-5z"/><path fill="#804e9e" d="M2663.5 1197.5h16v44h-16v-44z"/><path fill="#7f4e9c" d="M2686.5 1198.5c6.18-1.32 12.51-1.32 19 0l10 21a306.05 306.05 0 0 0 10-21c6.31-1.16 12.64-1.33 19-.5l-22.5 42.5c-4.12 1.3-8.28 1.3-12.5 0l-23-42z" opacity=".999"/><path fill="#7f4e9d" d="M2976.5 1263.5c-5.86.32-11.52-.01-17-1l14-28-20-36a41.1 41.1 0 0 1 18 0c3.58 6.83 7.41 13.5 11.5 20 3.44-6.55 6.61-13.21 9.5-20a41.1 41.1 0 0 1 18 0l-34 65z" opacity=".999"/><path fill="#030104" d="M3074.5 1194.5c3.04 5.58 5.7 11.41 8 17.5a97.67 97.67 0 0 1-14 .5l6-18z" opacity=".204"/><path fill="#040205" d="M2780.5 1211.5c-4.81.99-9.81 1.32-15 1 2.7-5.92 7.03-7.42 13-4.5 1.32.82 1.99 1.98 2 3.5z" opacity=".212"/><path fill="#010001" d="M2919.5 1209.5c9.52.02 13.36 4.69 11.5 14-2.63 5.23-6.8 7.06-12.5 5.5-5.52-2.92-7.36-7.42-5.5-13.5 1.49-2.81 3.66-4.81 6.5-6z" opacity=".156"/><path fill="#462b56" d="M2780.5 1211.5c.54.06.88.39 1 1-5.49 1.31-10.82 1.31-16 0 5.19.32 10.19-.01 15-1z" opacity=".361"/><path fill="#4d2f5e" d="M2959.5 1262.5c5.48.99 11.14 1.32 17 1-5.85 1.32-11.85 1.32-18 0 .12-.61.46-.94 1-1z" opacity=".31"/></svg>