<?xml version="1.0" encoding="UTF-8"?>
<!DOCTYPE svg PUBLIC "-//W3C//DTD SVG 1.1//EN" "http://www.w3.org/Graphics/SVG/1.1/DTD/svg11.dtd">
<svg xmlns="http://www.w3.org/2000/svg" version="1.1" width="1366px" height="768px" style="shape-rendering:geometricPrecision; text-rendering:geometricPrecision; image-rendering:optimizeQuality; fill-rule:evenodd; clip-rule:evenodd" xmlns:xlink="http://www.w3.org/1999/xlink">
<g><path style="opacity:0.914" fill="#fffefe" d="M 366.5,229.5 C 369.833,229.5 373.167,229.5 376.5,229.5C 376.5,244.5 376.5,259.5 376.5,274.5C 372.894,274.789 369.394,274.456 366,273.5C 355.681,278.173 348.681,275.173 345,264.5C 343.651,254.025 348.151,248.025 358.5,246.5C 361.047,246.442 363.38,247.109 365.5,248.5C 366.496,242.202 366.83,235.868 366.5,229.5 Z M 358.5,255.5 C 366.346,255.694 368.346,259.194 364.5,266C 355.352,266.536 353.352,263.036 358.5,255.5 Z"/></g>
<g><path style="opacity:0.914" fill="#fffefe" d="M 137.5,231.5 C 145.174,231.334 152.841,231.5 160.5,232C 168.525,236.744 170.692,243.577 167,252.5C 162.103,257.917 155.936,260.25 148.5,259.5C 148.5,264.5 148.5,269.5 148.5,274.5C 144.833,274.5 141.167,274.5 137.5,274.5C 137.5,260.167 137.5,245.833 137.5,231.5 Z M 148.5,239.5 C 150.927,239.523 153.26,240.023 155.5,241C 158.167,243.667 158.167,246.333 155.5,249C 153.26,249.977 150.927,250.477 148.5,250.5C 148.5,246.833 148.5,243.167 148.5,239.5 Z"/></g>
<g><path style="opacity:0.92" fill="#fffefe" d="M 396.5,231.5 C 404.253,231.104 411.92,231.604 419.5,233C 423.305,237.091 424.472,241.924 423,247.5C 422.535,248.931 421.701,250.097 420.5,251C 427.549,255.487 429.383,261.654 426,269.5C 424.269,271.617 422.102,273.117 419.5,274C 411.841,274.5 404.174,274.666 396.5,274.5C 396.5,260.167 396.5,245.833 396.5,231.5 Z M 407.5,239.5 C 413.501,239.741 414.834,242.241 411.5,247C 410.207,247.49 408.873,247.657 407.5,247.5C 407.5,244.833 407.5,242.167 407.5,239.5 Z M 407.5,257.5 C 411.881,256.534 414.881,258.034 416.5,262C 414.881,265.966 411.881,267.466 407.5,266.5C 407.5,263.5 407.5,260.5 407.5,257.5 Z"/></g>
<g><path style="opacity:0.894" fill="#fffefe" d="M 182.5,246.5 C 194.042,244.927 201.042,249.76 203.5,261C 203.366,266.942 200.699,271.275 195.5,274C 185.146,277.988 176.979,275.488 171,266.5C 168.934,256.285 172.768,249.618 182.5,246.5 Z M 184.5,255.5 C 192.818,255.987 194.485,259.487 189.5,266C 184.584,267.69 181.584,266.023 180.5,261C 181.036,258.492 182.369,256.659 184.5,255.5 Z"/></g>
<g><path style="opacity:0.883" fill="#fffefe" d="M 267.5,246.5 C 279.57,245.244 285.57,250.578 285.5,262.5C 279.132,262.17 272.798,262.504 266.5,263.5C 269.984,268.492 273.984,268.825 278.5,264.5C 280.996,265.58 283.33,266.914 285.5,268.5C 280.763,275.054 274.429,277.221 266.5,275C 257.577,271.319 254.41,264.819 257,255.5C 259.489,251.168 262.989,248.168 267.5,246.5 Z M 269.5,253.5 C 272.022,253.128 274.022,253.961 275.5,256C 272.773,256.818 270.106,256.652 267.5,255.5C 268.243,254.818 268.909,254.151 269.5,253.5 Z"/></g>
<g><path style="opacity:0.894" fill="#fefffe" d="M 304.5,246.5 C 307.545,246.508 310.545,246.841 313.5,247.5C 313.076,250.354 312.076,253.021 310.5,255.5C 307.943,255.782 305.277,255.949 302.5,256C 301.667,256.833 300.833,257.667 300,258.5C 299.501,263.823 299.334,269.156 299.5,274.5C 296.167,274.5 292.833,274.5 289.5,274.5C 289.5,265.5 289.5,256.5 289.5,247.5C 293.351,246.971 296.851,247.638 300,249.5C 301.652,248.601 303.152,247.601 304.5,246.5 Z"/></g>
<g><path style="opacity:0.874" fill="#fffefe" d="M 324.5,246.5 C 336.8,245.111 343.133,250.444 343.5,262.5C 337.167,262.5 330.833,262.5 324.5,262.5C 325.385,266.784 328.051,268.284 332.5,267C 335.324,264.012 338.324,264.012 341.5,267C 342.022,267.561 342.355,268.228 342.5,269C 339.404,273.823 334.904,275.989 329,275.5C 316.097,274.034 311.431,267.034 315,254.5C 317.362,250.755 320.528,248.089 324.5,246.5 Z M 326.5,253.5 C 328.977,253.051 330.977,253.717 332.5,255.5C 329.894,256.652 327.227,256.818 324.5,256C 325.381,255.292 326.047,254.458 326.5,253.5 Z"/></g>
<g><path style="opacity:0.955" fill="#fffefe" d="M 492.5,246.5 C 708.75,246.193 925.083,246.693 1141.5,248C 1144.1,248.883 1146.27,250.383 1148,252.5C 1161.99,279.158 1176.49,305.491 1191.5,331.5C 1198.93,319.645 1205.6,307.312 1211.5,294.5C 1223.83,293.167 1236.17,293.167 1248.5,294.5C 1235.82,318.528 1223.15,342.528 1210.5,366.5C 1225.36,394.376 1240.36,422.209 1255.5,450C 1243.89,451.579 1232.22,451.912 1220.5,451C 1210.37,434.572 1200.87,417.739 1192,400.5C 1182.55,417.911 1172.71,435.078 1162.5,452C 1152.17,452.667 1141.83,452.667 1131.5,452C 1129.94,450.244 1128.27,450.244 1126.5,452C 1113.17,452.667 1099.83,452.667 1086.5,452C 1078.59,444.759 1071.42,436.926 1065,428.5C 1055.96,420.46 1047.63,411.793 1040,402.5C 1040.45,418.821 1040.45,435.154 1040,451.5C 1029.86,452.824 1019.7,452.824 1009.5,451.5C 1007.41,399.846 1007.07,348.18 1008.5,296.5C 1031.45,293.975 1054.45,293.475 1077.5,295C 1115.02,301.54 1131.52,323.706 1127,361.5C 1124.23,374.931 1117.39,385.764 1106.5,394C 1099.77,398.032 1092.77,401.532 1085.5,404.5C 1098.83,419.661 1112.83,434.161 1127.5,448C 1128.33,448.688 1129,448.521 1129.5,447.5C 1144.42,420.311 1158.76,392.977 1172.5,365.5C 1156.49,336.135 1140.49,306.802 1124.5,277.5C 1056.91,276.524 989.406,276.19 922,276.5C 772.57,277.634 623.07,278.301 473.5,278.5C 473.5,277.5 473.5,276.5 473.5,275.5C 471.645,275.728 470.812,275.061 471,273.5C 478.061,264.288 485.228,255.288 492.5,246.5 Z M 1048.5,325.5 C 1062.09,324.488 1075.09,326.655 1087.5,332C 1096.35,341.401 1097.85,351.901 1092,363.5C 1086.67,369.25 1080.17,373.084 1072.5,375C 1063.74,376.607 1055.07,378.273 1046.5,380C 1044.19,381.265 1042.02,382.765 1040,384.5C 1039.5,365.17 1039.33,345.836 1039.5,326.5C 1042.71,326.81 1045.71,326.477 1048.5,325.5 Z"/></g>
<g><path style="opacity:0.898" fill="#fffefe" d="M 202.5,247.5 C 206.555,247.176 210.555,247.509 214.5,248.5C 216.43,252.458 218.263,256.458 220,260.5C 222.107,256.619 223.941,252.619 225.5,248.5C 228.106,247.348 230.773,247.182 233.5,248C 235.462,252.093 237.296,256.259 239,260.5C 241.024,256.286 243.191,252.119 245.5,248C 249.211,247.175 252.878,247.341 256.5,248.5C 251.912,256.676 247.578,265.009 243.5,273.5C 240.572,274.484 237.572,274.817 234.5,274.5C 233.298,270.422 231.798,266.422 230,262.5C 228.077,266.088 226.244,269.754 224.5,273.5C 221.894,274.652 219.227,274.818 216.5,274C 211.426,265.35 206.759,256.517 202.5,247.5 Z"/></g>
<g><path style="opacity:0.891" fill="#fffefe" d="M 427.5,247.5 C 431.182,247.335 434.848,247.501 438.5,248C 440.959,251.75 443.292,255.583 445.5,259.5C 447.368,255.597 449.368,251.764 451.5,248C 455.152,247.501 458.818,247.335 462.5,247.5C 456.393,261.048 449.726,274.381 442.5,287.5C 438.5,288.833 434.5,288.833 430.5,287.5C 433.245,281.675 436.245,276.008 439.5,270.5C 435.219,262.937 431.219,255.271 427.5,247.5 Z"/></g>
<g><path style="opacity:0.966" fill="#fffefe" d="M 241.5,292.5 C 253.112,292.277 259.612,297.944 261,309.5C 261.315,362.503 261.815,415.503 262.5,468.5C 416.515,468.449 570.515,467.783 724.5,466.5C 773.019,466.189 821.685,466.522 870.5,467.5C 871.025,468.192 871.692,468.692 872.5,469C 863.825,479.043 854.491,488.376 844.5,497C 639.834,497.5 435.167,497.667 230.5,497.5C 229.904,451.836 229.404,406.169 229,360.5C 208.559,392.642 188.393,424.975 168.5,457.5C 166.833,457.833 165.167,458.167 163.5,458.5C 153.509,457.556 143.509,456.723 133.5,456C 133.043,455.586 132.709,455.086 132.5,454.5C 166.121,403.291 199.288,351.624 232,299.5C 234.505,296.147 237.671,293.814 241.5,292.5 Z"/></g>
<g><path style="opacity:0.962" fill="#fffefe" d="M 480.5,292.5 C 490.651,290.988 497.485,294.988 501,304.5C 501.983,334.493 502.65,364.493 503,394.5C 523.667,362.5 544.333,330.5 565,298.5C 571.546,292.92 578.713,292.087 586.5,296C 589.021,298.22 591.188,300.72 593,303.5C 593.614,353.302 593.948,402.969 594,452.5C 593.626,453.416 593.126,454.25 592.5,455C 581.839,455.5 571.172,455.667 560.5,455.5C 561.23,425.169 561.397,394.835 561,364.5C 543.584,390.997 526.417,417.663 509.5,444.5C 505.92,450.58 500.92,455.08 494.5,458C 487.095,459.951 480.929,458.118 476,452.5C 474.3,449.48 472.634,446.48 471,443.5C 470.667,415.167 470.333,386.833 470,358.5C 451.458,386.938 433.458,415.605 416,444.5C 413.744,448.537 410.911,452.037 407.5,455C 383.167,455.667 358.833,455.667 334.5,455C 309.225,450.628 290.725,437.128 279,414.5C 266.786,386.728 267.786,359.394 282,332.5C 301.702,306.19 328.035,294.523 361,297.5C 364.833,297.667 368.667,297.833 372.5,298C 373,298.5 373.5,299 374,299.5C 374.758,309.534 374.591,319.534 373.5,329.5C 359.663,328.812 345.997,329.979 332.5,333C 307.57,343.361 298.404,361.861 305,388.5C 308.363,408.732 320.196,420.232 340.5,423C 351.495,423.5 362.495,423.667 373.5,423.5C 374.249,432.467 374.749,441.467 375,450.5C 407.514,400.521 439.847,350.188 472,299.5C 474.441,296.546 477.275,294.213 480.5,292.5 Z"/></g>
<g><path style="opacity:0.951" fill="#fffefe" d="M 794.5,295.5 C 806.907,293.283 815.407,297.95 820,309.5C 837.961,336.14 855.961,362.806 874,389.5C 873.926,358.493 874.093,327.493 874.5,296.5C 885.03,295.176 895.53,295.176 906,296.5C 906.833,346.837 906.667,397.17 905.5,447.5C 904.427,451.562 901.76,454.062 897.5,455C 889.864,456.895 883.364,455.061 878,449.5C 856.998,418.473 835.998,387.473 815,356.5C 813.864,386.791 813.031,417.124 812.5,447.5C 806.554,456.927 798.554,458.927 788.5,453.5C 785.295,450.435 782.462,447.102 780,443.5C 749.102,397.237 718.102,350.904 687,304.5C 686.593,311.673 686.426,318.673 686.5,325.5C 670.514,326.499 654.514,326.833 638.5,326.5C 638.5,336.833 638.5,347.167 638.5,357.5C 651.504,357.333 664.504,357.5 677.5,358C 678,358.5 678.5,359 679,359.5C 679.72,369.504 680.053,379.504 680,389.5C 679.5,390 679,390.5 678.5,391C 665.171,391.5 651.837,391.667 638.5,391.5C 638.546,402.543 638.546,413.376 638.5,424C 654.83,424.5 671.163,424.667 687.5,424.5C 687.819,434.416 687.486,444.25 686.5,454C 660.827,454.833 635.16,454.666 609.5,453.5C 608.338,401.541 608.171,349.541 609,297.5C 645.429,296.337 681.929,296.171 718.5,297C 740.324,328.513 761.824,360.347 783,392.5C 783,364.5 783,336.5 783,308.5C 785.273,302.73 789.106,298.397 794.5,295.5 Z"/></g>
<g><path style="opacity:0.931" fill="#fffefe" d="M 920.5,295.5 C 946.175,295.167 971.842,295.5 997.5,296.5C 998.833,305.833 998.833,315.167 997.5,324.5C 981.863,325.86 966.196,326.527 950.5,326.5C 950.5,336.5 950.5,346.5 950.5,356.5C 963.837,356.333 977.171,356.5 990.5,357C 991,357.5 991.5,358 992,358.5C 993.26,368.528 993.426,378.528 992.5,388.5C 978.846,389.476 965.179,390.142 951.5,390.5C 951.5,400.5 951.5,410.5 951.5,420.5C 967.5,420.5 983.5,420.5 999.5,420.5C 1000.78,431.043 1000.78,441.543 999.5,452C 976.157,452.229 952.824,452.729 929.5,453.5C 926.467,453.331 923.467,452.998 920.5,452.5C 919.397,400.099 919.397,347.766 920.5,295.5 Z"/></g>
<g><path style="opacity:0.932" fill="#f1c410" d="M 1117.5,456.5 C 1120.83,456.5 1124.17,456.5 1127.5,456.5C 1127.33,463.175 1127.5,469.842 1128,476.5C 1133.31,472.675 1138.81,472.509 1144.5,476C 1150.13,482.541 1150.96,489.708 1147,497.5C 1142.81,502.088 1137.64,503.588 1131.5,502C 1130.07,501.535 1128.9,500.701 1128,499.5C 1124.85,501.362 1121.35,502.029 1117.5,501.5C 1117.5,486.5 1117.5,471.5 1117.5,456.5 Z M 1130.5,482.5 C 1135.41,481.782 1138.41,483.782 1139.5,488.5C 1136.59,494.29 1132.76,494.957 1128,490.5C 1127.39,487.389 1128.22,484.723 1130.5,482.5 Z"/></g>
<g><path style="opacity:0.935" fill="#f1c413" d="M 924.5,458.5 C 931.175,458.334 937.842,458.5 944.5,459C 959.045,465.614 963.212,476.447 957,491.5C 953.712,495.784 949.545,498.95 944.5,501C 937.842,501.5 931.175,501.666 924.5,501.5C 924.5,487.167 924.5,472.833 924.5,458.5 Z M 935.5,467.5 C 946.156,469.145 949.989,475.145 947,485.5C 944.524,489.991 940.691,492.324 935.5,492.5C 935.5,484.167 935.5,475.833 935.5,467.5 Z"/></g>
<g><path style="opacity:0.923" fill="#f2c413" d="M 992.5,457.5 C 1000.61,458.543 1002.27,462.377 997.5,469C 991.166,470.329 988.332,467.829 989,461.5C 989.69,459.65 990.856,458.316 992.5,457.5 Z"/></g>
<g><path style="opacity:0.955" fill="#f1c411" d="M 1212.5,458.5 C 1216.23,458.177 1219.89,458.511 1223.5,459.5C 1228.97,473.248 1234.64,486.914 1240.5,500.5C 1236.55,501.491 1232.55,501.824 1228.5,501.5C 1227.83,498.833 1227.17,496.167 1226.5,493.5C 1221.16,493.334 1215.82,493.501 1210.5,494C 1209.6,496.192 1208.6,498.358 1207.5,500.5C 1203.54,501.66 1199.54,501.827 1195.5,501C 1201.59,486.986 1207.26,472.819 1212.5,458.5 Z M 1217.5,473.5 C 1219.79,476.37 1221.13,479.703 1221.5,483.5C 1219.08,483.808 1216.74,483.474 1214.5,482.5C 1215.8,479.573 1216.8,476.573 1217.5,473.5 Z"/></g>
<g><path style="opacity:0.98" fill="#f1c30e" d="M 1241.5,458.5 C 1244.83,458.5 1248.17,458.5 1251.5,458.5C 1251.5,472.833 1251.5,487.167 1251.5,501.5C 1248.17,501.5 1244.83,501.5 1241.5,501.5C 1241.5,487.167 1241.5,472.833 1241.5,458.5 Z"/></g>
<g><path style="opacity:0.927" fill="#f1c40e" d="M 978.5,473.5 C 988.059,472.859 989.725,476.025 983.5,483C 982.05,483.117 980.55,482.95 979,482.5C 977.188,482.493 975.688,483.16 974.5,484.5C 973.546,490.104 973.212,495.771 973.5,501.5C 970.167,501.5 966.833,501.5 963.5,501.5C 963.5,492.5 963.5,483.5 963.5,474.5C 967.351,473.971 970.851,474.638 974,476.5C 975.409,475.219 976.909,474.219 978.5,473.5 Z"/></g>
<g><path style="opacity:0.945" fill="#f1c411" d="M 1046.5,473.5 C 1058.73,472.087 1065.06,477.42 1065.5,489.5C 1059.17,489.5 1052.83,489.5 1046.5,489.5C 1047.38,493.784 1050.05,495.284 1054.5,494C 1055.97,493.365 1057.3,492.531 1058.5,491.5C 1060.83,492.667 1063.17,493.833 1065.5,495C 1062.3,500.517 1057.47,503.017 1051,502.5C 1038.48,501.315 1033.81,494.648 1037,482.5C 1038.83,478.016 1042,475.016 1046.5,473.5 Z M 1048.5,480.5 C 1051.35,480.03 1053.68,480.863 1055.5,483C 1052.5,483.667 1049.5,483.667 1046.5,483C 1047.38,482.292 1048.05,481.458 1048.5,480.5 Z"/></g>
<g><path style="opacity:0.953" fill="#f1c410" d="M 1083.5,473.5 C 1090.08,472.512 1094.91,474.845 1098,480.5C 1098.5,487.492 1098.67,494.492 1098.5,501.5C 1095.17,501.5 1091.83,501.5 1088.5,501.5C 1088.67,495.824 1088.5,490.157 1088,484.5C 1085.72,480.959 1083.05,480.626 1080,483.5C 1079.5,489.491 1079.33,495.491 1079.5,501.5C 1075.83,501.5 1072.17,501.5 1068.5,501.5C 1068.5,492.5 1068.5,483.5 1068.5,474.5C 1072.57,474.234 1076.57,474.567 1080.5,475.5C 1081.74,475.058 1082.74,474.391 1083.5,473.5 Z"/></g>
<g><path style="opacity:0.915" fill="#f1c40e" d="M 989.5,474.5 C 992.833,474.5 996.167,474.5 999.5,474.5C 999.5,483.5 999.5,492.5 999.5,501.5C 996.167,501.5 992.833,501.5 989.5,501.5C 989.5,492.5 989.5,483.5 989.5,474.5 Z"/></g>
<g><path style="opacity:0.943" fill="#f1c412" d="M 1000.5,474.5 C 1004.51,474.334 1008.51,474.501 1012.5,475C 1014.46,479.093 1016.3,483.259 1018,487.5C 1020.35,483.44 1022.52,479.273 1024.5,475C 1028.5,474.333 1032.5,474.333 1036.5,475C 1031.71,483.42 1027.04,491.92 1022.5,500.5C 1019.63,501.783 1016.79,501.783 1014,500.5C 1009.22,491.937 1004.72,483.27 1000.5,474.5 Z"/></g>
<g><path style="opacity:0.939" fill="#f1c412" d="M 1149.5,474.5 C 1153.18,474.335 1156.85,474.501 1160.5,475C 1162.96,478.75 1165.29,482.583 1167.5,486.5C 1169.36,482.619 1171.36,478.786 1173.5,475C 1177.21,474.175 1180.88,474.341 1184.5,475.5C 1178.09,488.656 1171.42,501.656 1164.5,514.5C 1160.5,515.833 1156.5,515.833 1152.5,514.5C 1155.25,508.675 1158.25,503.008 1161.5,497.5C 1157.22,489.937 1153.22,482.271 1149.5,474.5 Z"/></g>
</svg>
